<svg width="64" height="64" viewBox="0 0 64 64" fill="none" xmlns="http://www.w3.org/2000/svg">
<circle cx="32" cy="32" r="32" fill="#F5F5F4"/>
<path d="M34.6667 39.9999V23.9999C34.6667 23.2927 34.3857 22.6144 33.8856 22.1143C33.3855 21.6142 32.7072 21.3333 32 21.3333H21.3333C20.6261 21.3333 19.9478 21.6142 19.4477 22.1143C18.9476 22.6144 18.6667 23.2927 18.6667 23.9999V38.6666C18.6667 39.0202 18.8071 39.3593 19.0572 39.6094C19.3072 39.8594 19.6464 39.9999 20 39.9999H22.6667M22.6667 39.9999C22.6667 41.4727 23.8606 42.6666 25.3333 42.6666C26.8061 42.6666 28 41.4727 28 39.9999M22.6667 39.9999C22.6667 38.5272 23.8606 37.3333 25.3333 37.3333C26.8061 37.3333 28 38.5272 28 39.9999M36 39.9999H28M36 39.9999C36 41.4727 37.1939 42.6666 38.6667 42.6666C40.1394 42.6666 41.3333 41.4727 41.3333 39.9999M36 39.9999C36 38.5272 37.1939 37.3333 38.6667 37.3333C40.1394 37.3333 41.3333 38.5272 41.3333 39.9999M41.3333 39.9999H44C44.3536 39.9999 44.6927 39.8594 44.9428 39.6094C45.1928 39.3593 45.3333 39.0202 45.3333 38.6666V33.7999C45.3328 33.4973 45.2293 33.2039 45.04 32.9679L40.4 27.1679C40.2753 27.0118 40.1171 26.8856 39.9371 26.7988C39.757 26.7121 39.5598 26.6669 39.36 26.6666H34.6667" stroke="#292524" stroke-width="1.5" stroke-linecap="round" stroke-linejoin="round"/>
</svg>
