<svg width="64" height="64" viewBox="0 0 64 64" fill="none" xmlns="http://www.w3.org/2000/svg">
<circle cx="32" cy="32" r="32" fill="#F5F5F4"/>
<path d="M40.5 29.3334C40.5 26.5044 39.3762 23.7913 37.3758 21.7909C35.3754 19.7906 32.6623 18.6667 29.8334 18.6667C27.0044 18.6667 24.2913 19.7906 22.2909 21.7909C20.2905 23.7913 19.1667 26.5044 19.1667 29.3334C19.1667 35.9907 26.552 42.9241 29.032 45.0654C29.2632 45.2388 29.5444 45.3324 29.8334 45.3321M40.5 45.3334V41.3334M36.5 45.3334C36.1464 45.3334 35.8073 45.1929 35.5572 44.9429C35.3072 44.6928 35.1667 44.3537 35.1667 44.0001V38.6667C35.1667 38.4473 35.2208 38.2312 35.3243 38.0377C35.4278 37.8442 35.5775 37.6792 35.76 37.5574L39.76 34.8907C39.9791 34.7446 40.2366 34.6665 40.5 34.6665C40.7634 34.6665 41.0209 34.7446 41.24 34.8907L45.24 37.5574C45.4226 37.6792 45.5722 37.8442 45.6757 38.0377C45.7792 38.2312 45.8334 38.4473 45.8334 38.6667V44.0001C45.8334 44.3537 45.6929 44.6928 45.4428 44.9429C45.1928 45.1929 44.8536 45.3334 44.5 45.3334H36.5ZM33.8334 29.3334C33.8334 31.5426 32.0425 33.3334 29.8334 33.3334C27.6242 33.3334 25.8334 31.5426 25.8334 29.3334C25.8334 27.1243 27.6242 25.3334 29.8334 25.3334C32.0425 25.3334 33.8334 27.1243 33.8334 29.3334Z" stroke="#292524" stroke-width="1.5" stroke-linecap="round" stroke-linejoin="round"/>
</svg>
