<svg width="64" height="64" viewBox="0 0 64 64" fill="none" xmlns="http://www.w3.org/2000/svg">
<circle cx="32" cy="32" r="32" fill="#F5F5F4"/>
<path d="M35.6 24.4001C35.3557 24.6494 35.2188 24.9845 35.2188 25.3335C35.2188 25.6825 35.3557 26.0175 35.6 26.2668L37.7333 28.4001C37.9825 28.6444 38.3176 28.7813 38.6666 28.7813C39.0156 28.7813 39.3507 28.6444 39.6 28.4001L43.7413 24.2601C44.168 23.8308 44.892 23.9668 45.052 24.5508C45.4548 26.016 45.4321 27.5655 44.9863 29.0182C44.5406 30.4709 43.6904 31.7667 42.5352 32.7538C41.3799 33.7409 39.9674 34.3786 38.463 34.5922C36.9585 34.8058 35.4244 34.5866 34.04 33.9601L23.4933 44.5068C22.9629 45.037 22.2435 45.3349 21.4935 45.3347C20.7435 45.3346 20.0242 45.0366 19.494 44.5061C18.9637 43.9757 18.6659 43.2563 18.666 42.5063C18.6661 41.7563 18.9642 41.037 19.4946 40.5068L30.0413 29.9601C29.4148 28.5757 29.1956 27.0416 29.4092 25.5371C29.6229 24.0327 30.2605 22.6202 31.2477 21.4649C32.2348 20.3097 33.5305 19.4595 34.9832 19.0138C36.4359 18.568 37.9855 18.5453 39.4506 18.9481C40.0346 19.1081 40.1706 19.8308 39.7426 20.2601L35.6 24.4001Z" stroke="#292524" stroke-width="1.5" stroke-linecap="round" stroke-linejoin="round"/>
</svg>
