<svg width="64" height="64" viewBox="0 0 64 64" fill="none" xmlns="http://www.w3.org/2000/svg">
<circle cx="32" cy="32" r="32" fill="#F5F5F4"/>
<path d="M34.9996 20V25.3333C34.9996 25.687 35.1401 26.0261 35.3902 26.2761C35.6402 26.5262 35.9793 26.6667 36.333 26.6667H41.6663M34.9996 20H25.6663C24.9591 20 24.2808 20.281 23.7807 20.781C23.2806 21.2811 22.9996 21.9594 22.9996 22.6667V41.3333C22.9996 42.0406 23.2806 42.7189 23.7807 43.219C24.2808 43.719 24.9591 44 25.6663 44H38.9996C39.7069 44 40.3852 43.719 40.8853 43.219C41.3853 42.7189 41.6663 42.0406 41.6663 41.3333V26.6667M34.9996 20L41.6663 26.6667M28.333 36L30.9996 38.6667L36.333 33.3333" stroke="#292524" stroke-width="1.5" stroke-linecap="round" stroke-linejoin="round"/>
</svg>
