<svg width="64" height="64" viewBox="0 0 64 64" fill="none" xmlns="http://www.w3.org/2000/svg">
<circle cx="32" cy="32" r="32" fill="#F5F5F4"/>
<path d="M30.4665 45.3334H23.6665C22.9593 45.3334 22.281 45.0525 21.7809 44.5524C21.2808 44.0523 20.9998 43.374 20.9998 42.6668V21.3334C20.9998 20.6262 21.2808 19.9479 21.7809 19.4478C22.281 18.9477 22.9593 18.6668 23.6665 18.6668H34.3332M34.3332 18.6668C34.7557 18.6657 35.1742 18.7484 35.5647 18.9099C35.9551 19.0715 36.3096 19.3088 36.6078 19.6081L41.3932 24.3921C41.6922 24.6904 41.9293 25.045 42.0906 25.4354C42.252 25.8258 42.3344 26.2443 42.3332 26.6668M34.3332 18.6668V25.3334C34.3332 25.687 34.4737 26.0262 34.7237 26.2762C34.9738 26.5263 35.3129 26.6668 35.6665 26.6668H42.3332M42.3332 26.6668V31.0001M43.6665 45.3334L39.8265 41.4934M40.9998 38.6668C40.9998 40.8759 39.209 42.6668 36.9998 42.6668C34.7907 42.6668 32.9998 40.8759 32.9998 38.6668C32.9998 36.4576 34.7907 34.6668 36.9998 34.6668C39.209 34.6668 40.9998 36.4576 40.9998 38.6668Z" stroke="#292524" stroke-width="1.5" stroke-linecap="round" stroke-linejoin="round"/>
</svg>
