<svg width="56" height="56" viewBox="0 0 56 56" fill="none" xmlns="http://www.w3.org/2000/svg">
<rect width="56" height="56" rx="28" fill="#FFB251"/>
<path d="M23 37H33M35.5 28L38 22M32.25 19C32.52 19.1 33.05 19.53 33 20.36C32.94 21.19 32.07 21.56 32 22.38C31.95 23.16 32.34 23.62 32.73 24M27.25 19C27.52 19.1 28.05 19.53 27.99 20.36C27.94 21.19 27.06 21.56 27.01 22.38C26.95 23.16 27.34 23.62 27.73 24M22.25 19C22.52 19.1 23.05 19.53 23 20.36C22.94 21.19 22.07 21.56 22 22.38C21.95 23.16 22.34 23.62 22.74 24M28 37C30.3869 37 32.6761 36.0518 34.364 34.364C36.0518 32.6761 37 30.3869 37 28H19C19 30.3869 19.9482 32.6761 21.636 34.364C23.3239 36.0518 25.6131 37 28 37Z" stroke="#1A1A1A" stroke-width="1.5" stroke-linecap="round" stroke-linejoin="round"/>
</svg>
