<svg width="56" height="56" viewBox="0 0 56 56" fill="none" xmlns="http://www.w3.org/2000/svg">
<rect width="56" height="56" rx="28" fill="#FFB251"/>
<path d="M30 34V22C30 21.4696 29.7893 20.9609 29.4142 20.5858C29.0391 20.2107 28.5304 20 28 20H20C19.4696 20 18.9609 20.2107 18.5858 20.5858C18.2107 20.9609 18 21.4696 18 22V33C18 33.2652 18.1054 33.5196 18.2929 33.7071C18.4804 33.8946 18.7348 34 19 34H21M21 34C21 35.1046 21.8954 36 23 36C24.1046 36 25 35.1046 25 34M21 34C21 32.8954 21.8954 32 23 32C24.1046 32 25 32.8954 25 34M31 34H25M31 34C31 35.1046 31.8954 36 33 36C34.1046 36 35 35.1046 35 34M31 34C31 32.8954 31.8954 32 33 32C34.1046 32 35 32.8954 35 34M35 34H37C37.2652 34 37.5196 33.8946 37.7071 33.7071C37.8946 33.5196 38 33.2652 38 33V29.35C37.9996 29.1231 37.922 28.903 37.78 28.726L34.3 24.376C34.2065 24.2589 34.0878 24.1643 33.9528 24.0992C33.8178 24.0341 33.6699 24.0002 33.52 24H30" stroke="#1A1A1A" stroke-width="1.5" stroke-linecap="round" stroke-linejoin="round"/>
</svg>
