<svg width="56" height="56" viewBox="0 0 56 56" fill="none" xmlns="http://www.w3.org/2000/svg">
<rect width="56" height="56" rx="28" fill="#FFB251"/>
<path d="M22 30C22 32.5964 22.8421 35.1228 24.4 37.2C24.7183 37.6243 25.1921 37.9049 25.7172 37.9799C26.2423 38.0549 26.7757 37.9183 27.2 37.6C27.6243 37.2817 27.9049 36.8079 27.9799 36.2828C28.0549 35.7577 27.9183 35.2243 27.6 34.8C26.5614 33.4152 26 31.731 26 30M24 22V30M27 22C30.0414 22.0783 33.0139 21.0875 35.4 19.2C35.5486 19.0886 35.7252 19.0207 35.9102 19.004C36.0952 18.9874 36.2811 19.0225 36.4472 19.1056C36.6133 19.1886 36.753 19.3163 36.8507 19.4743C36.9483 19.6322 37 19.8143 37 20V32C37 32.1857 36.9483 32.3678 36.8507 32.5257C36.753 32.6837 36.6133 32.8114 36.4472 32.8944C36.2811 32.9775 36.0952 33.0126 35.9102 32.996C35.7252 32.9793 35.5486 32.9114 35.4 32.8C33.0139 30.9125 30.0414 29.9217 27 30H21C20.4696 30 19.9609 29.7893 19.5858 29.4142C19.2107 29.0391 19 28.5304 19 28V24C19 23.4696 19.2107 22.9609 19.5858 22.5858C19.9609 22.2107 20.4696 22 21 22H27Z" stroke="#1A1A1A" stroke-width="1.5" stroke-linecap="round" stroke-linejoin="round"/>
</svg>
