<svg width="56" height="56" viewBox="0 0 56 56" fill="none" xmlns="http://www.w3.org/2000/svg">
<rect width="56" height="56" rx="28" fill="#FFB251"/>
<path d="M30 29H32C32.5304 29 33.0391 29.2107 33.4142 29.5858C33.7893 29.9609 34 30.4696 34 31V33C34 33.5304 34.2107 34.0391 34.5858 34.4142C34.9609 34.7893 35.4696 35 36 35C36.5304 35 37.0391 34.7893 37.4142 34.4142C37.7893 34.0391 38 33.5304 38 33V26.002C38.0002 25.7381 37.9482 25.4767 37.8469 25.233C37.7457 24.9893 37.5972 24.7681 37.41 24.582L34 21M30 37V21C30 20.4696 29.7893 19.9609 29.4142 19.5858C29.0391 19.2107 28.5304 19 28 19H21C20.4696 19 19.9609 19.2107 19.5858 19.5858C19.2107 19.9609 19 20.4696 19 21V37M18 37H31M19 25H30" stroke="#1A1A1A" stroke-width="1.5" stroke-linecap="round" stroke-linejoin="round"/>
</svg>
