<svg width="56" height="56" viewBox="0 0 56 56" fill="none" xmlns="http://www.w3.org/2000/svg">
<rect width="56" height="56" rx="28" fill="#FFB251"/>
<path d="M28 32H28.01M32 32H32.01M24 32H24.01M19 35C19 35.5304 19.2107 36.0391 19.5858 36.4142C19.9609 36.7893 20.4696 37 21 37H35C35.5304 37 36.0391 36.7893 36.4142 36.4142C36.7893 36.0391 37 35.5304 37 35V24.5C37.0001 24.4103 36.9761 24.3222 36.9304 24.245C36.8848 24.1678 36.8192 24.1043 36.7405 24.0611C36.6619 24.018 36.5731 23.9968 36.4835 23.9997C36.3938 24.0027 36.3066 24.0297 36.231 24.078L31.769 26.922C31.6934 26.9703 31.6062 26.9973 31.5165 27.0003C31.4269 27.0032 31.3381 26.982 31.2595 26.9389C31.1808 26.8957 31.1152 26.8322 31.0696 26.755C31.0239 26.6778 30.9999 26.5897 31 26.5V24.5C31.0001 24.4103 30.9761 24.3222 30.9304 24.245C30.8848 24.1678 30.8192 24.1043 30.7405 24.0611C30.6619 24.018 30.5731 23.9968 30.4835 23.9997C30.3938 24.0027 30.3066 24.0297 30.231 24.078L25.77 26.922C25.6944 26.9705 25.6071 26.9978 25.5173 27.0009C25.4275 27.004 25.3385 26.9828 25.2597 26.9396C25.1809 26.8965 25.1152 26.8328 25.0695 26.7555C25.0238 26.6781 24.9998 26.5899 25 26.5V21C25 20.4696 24.7893 19.9609 24.4142 19.5858C24.0391 19.2107 23.5304 19 23 19H21C20.4696 19 19.9609 19.2107 19.5858 19.5858C19.2107 19.9609 19 20.4696 19 21V35Z" stroke="#1A1A1A" stroke-width="1.5" stroke-linecap="round" stroke-linejoin="round"/>
</svg>
