<svg width="48" height="48" viewBox="0 0 48 48" fill="none" xmlns="http://www.w3.org/2000/svg">
<path d="M0 24C0 10.7452 10.7452 0 24 0V0C37.2548 0 48 10.7452 48 24V24C48 37.2548 37.2548 48 24 48V48C10.7452 48 0 37.2548 0 24V24Z" fill="#2543F9"/>
<path fill-rule="evenodd" clip-rule="evenodd" d="M24.2466 35.3498C21.9964 35.3498 20.9506 35.0213 19.133 33.7073C17.9832 35.1856 14.3424 36.3408 14.1836 34.3643C14.1836 32.8806 13.8551 31.6269 13.4828 30.2581C13.0393 28.5718 12.5356 26.6939 12.5356 23.9729C12.5356 17.4741 17.8683 12.585 24.1864 12.585C30.5099 12.585 35.4648 17.715 35.4648 24.0331C35.486 30.2535 30.4669 35.3166 24.2466 35.3498ZM24.3397 18.2023C21.2627 18.0435 18.8647 20.1733 18.3336 23.513C17.8956 26.2778 18.6731 29.6449 19.3355 29.8201C19.6531 29.8968 20.4524 29.2507 20.9506 28.7525C21.7745 29.3216 22.7338 29.6634 23.7319 29.7435C26.9201 29.8968 29.6443 27.4696 29.8584 24.285C29.983 21.0935 27.5283 18.3904 24.3397 18.2077V18.2023Z" fill="white"/>
</svg>
