<svg width="139" height="32" viewBox="0 0 139 32" fill="none" xmlns="http://www.w3.org/2000/svg">
    <mask id="path-1-outside-1_166_4773" maskUnits="userSpaceOnUse" x="1" y="9" width="85" height="14" fill="black">
    <rect fill="white" x="1" y="9" width="85" height="14"/>
    <path d="M1.584 22V9.328H4.752V10.12C4.752 10.66 5.004 10.912 5.544 10.912H6.336V14.872C6.336 15.412 6.588 15.664 7.128 15.664H7.92V19.624C7.92 20.164 8.172 20.416 8.712 20.416H9.504V9.328H11.088V22H7.92V21.208C7.92 20.668 7.668 20.416 7.128 20.416H6.336V16.456C6.336 15.916 6.084 15.664 5.544 15.664H4.752V11.704C4.752 11.164 4.5 10.912 3.96 10.912H3.168V22H1.584ZM14.9778 22V9.328H22.8978V10.912H16.5618V14.08H21.3318V15.664H16.5618V20.416H22.8978V22H14.9778ZM25.2066 22V18.832H25.9986C26.5386 18.832 26.7906 18.58 26.7906 18.04V15.664H27.5826C28.1226 15.664 28.3746 15.412 28.3746 14.872C28.3746 14.332 28.1226 14.08 27.5826 14.08H26.7906V13.288C26.7906 12.748 26.5386 12.496 25.9986 12.496H25.2066V9.328H26.7906V11.704C26.7906 12.244 27.0426 12.496 27.5826 12.496H28.3746V13.288C28.3746 13.828 28.6266 14.08 29.1666 14.08H30.7506C31.2906 14.08 31.5426 13.828 31.5426 13.288V12.496H32.3346C32.8746 12.496 33.1266 12.244 33.1266 11.704V9.328H34.7106V12.496H33.9186C33.3786 12.496 33.1266 12.748 33.1266 13.288V14.08H32.3346C31.7946 14.08 31.5426 14.332 31.5426 14.872C31.5426 15.412 31.7946 15.664 32.3346 15.664H33.1266V18.04C33.1266 18.58 33.3786 18.832 33.9186 18.832H34.7106V22H33.1266V19.624C33.1266 19.084 32.8746 18.832 32.3346 18.832H31.5426V16.456C31.5426 15.916 31.2906 15.664 30.7506 15.664H29.1666C28.6266 15.664 28.3746 15.916 28.3746 16.456V18.832H27.5826C27.0426 18.832 26.7906 19.084 26.7906 19.624V22H25.2066ZM37.0184 20.416V10.912H37.8104C38.3504 10.912 38.6024 10.66 38.6024 10.12V9.328H46.5224V10.12C46.5224 10.66 46.7744 10.912 47.3144 10.912H48.1064V14.08H46.5224V11.704C46.5224 11.164 46.2704 10.912 45.7304 10.912H39.3944C38.8544 10.912 38.6024 11.164 38.6024 11.704V19.624C38.6024 20.164 38.8544 20.416 39.3944 20.416H45.7304C46.2704 20.416 46.5224 20.164 46.5224 19.624V17.248H48.1064V20.416H47.3144C46.7744 20.416 46.5224 20.668 46.5224 21.208V22H38.6024V21.208C38.6024 20.668 38.3504 20.416 37.8104 20.416H37.0184ZM50.4122 20.416V10.894H51.2042C51.7442 10.894 51.9962 10.642 51.9962 10.102V9.328H59.9162V10.102C59.9162 10.642 60.1682 10.894 60.7082 10.894H61.5002V20.416H60.7082C60.1682 20.416 59.9162 20.668 59.9162 21.208V22H51.9962V21.208C51.9962 20.668 51.7442 20.416 51.2042 20.416H50.4122ZM51.9962 19.624C51.9962 20.164 52.2482 20.416 52.7882 20.416H59.1242C59.6642 20.416 59.9162 20.164 59.9162 19.624V11.704C59.9162 11.164 59.6642 10.912 59.1242 10.912H52.7882C52.2482 10.912 51.9962 11.164 51.9962 11.704V19.624ZM73.3101 15.664C72.7701 15.664 72.5181 15.916 72.5181 16.456C72.5181 16.996 72.7701 17.248 73.3101 17.248H74.1021V22H72.5181V18.04C72.5181 17.5 72.2661 17.248 71.7261 17.248H66.1821V22H64.5981V9.328H72.5181V10.12C72.5181 10.66 72.7701 10.912 73.3101 10.912H74.1021V15.664H73.3101ZM66.1821 15.664H71.7261C72.2661 15.664 72.5181 15.412 72.5181 14.872V11.704C72.5181 11.164 72.2661 10.912 71.7261 10.912H66.1821V15.664ZM77.2009 22V9.328H85.1209V10.912H78.7849V14.08H83.5549V15.664H78.7849V20.416H85.1209V22H77.2009Z"/>
    </mask>
    <path d="M1.584 22V9.328H4.752V10.12C4.752 10.66 5.004 10.912 5.544 10.912H6.336V14.872C6.336 15.412 6.588 15.664 7.128 15.664H7.92V19.624C7.92 20.164 8.172 20.416 8.712 20.416H9.504V9.328H11.088V22H7.92V21.208C7.92 20.668 7.668 20.416 7.128 20.416H6.336V16.456C6.336 15.916 6.084 15.664 5.544 15.664H4.752V11.704C4.752 11.164 4.5 10.912 3.96 10.912H3.168V22H1.584ZM14.9778 22V9.328H22.8978V10.912H16.5618V14.08H21.3318V15.664H16.5618V20.416H22.8978V22H14.9778ZM25.2066 22V18.832H25.9986C26.5386 18.832 26.7906 18.58 26.7906 18.04V15.664H27.5826C28.1226 15.664 28.3746 15.412 28.3746 14.872C28.3746 14.332 28.1226 14.08 27.5826 14.08H26.7906V13.288C26.7906 12.748 26.5386 12.496 25.9986 12.496H25.2066V9.328H26.7906V11.704C26.7906 12.244 27.0426 12.496 27.5826 12.496H28.3746V13.288C28.3746 13.828 28.6266 14.08 29.1666 14.08H30.7506C31.2906 14.08 31.5426 13.828 31.5426 13.288V12.496H32.3346C32.8746 12.496 33.1266 12.244 33.1266 11.704V9.328H34.7106V12.496H33.9186C33.3786 12.496 33.1266 12.748 33.1266 13.288V14.08H32.3346C31.7946 14.08 31.5426 14.332 31.5426 14.872C31.5426 15.412 31.7946 15.664 32.3346 15.664H33.1266V18.04C33.1266 18.58 33.3786 18.832 33.9186 18.832H34.7106V22H33.1266V19.624C33.1266 19.084 32.8746 18.832 32.3346 18.832H31.5426V16.456C31.5426 15.916 31.2906 15.664 30.7506 15.664H29.1666C28.6266 15.664 28.3746 15.916 28.3746 16.456V18.832H27.5826C27.0426 18.832 26.7906 19.084 26.7906 19.624V22H25.2066ZM37.0184 20.416V10.912H37.8104C38.3504 10.912 38.6024 10.66 38.6024 10.12V9.328H46.5224V10.12C46.5224 10.66 46.7744 10.912 47.3144 10.912H48.1064V14.08H46.5224V11.704C46.5224 11.164 46.2704 10.912 45.7304 10.912H39.3944C38.8544 10.912 38.6024 11.164 38.6024 11.704V19.624C38.6024 20.164 38.8544 20.416 39.3944 20.416H45.7304C46.2704 20.416 46.5224 20.164 46.5224 19.624V17.248H48.1064V20.416H47.3144C46.7744 20.416 46.5224 20.668 46.5224 21.208V22H38.6024V21.208C38.6024 20.668 38.3504 20.416 37.8104 20.416H37.0184ZM50.4122 20.416V10.894H51.2042C51.7442 10.894 51.9962 10.642 51.9962 10.102V9.328H59.9162V10.102C59.9162 10.642 60.1682 10.894 60.7082 10.894H61.5002V20.416H60.7082C60.1682 20.416 59.9162 20.668 59.9162 21.208V22H51.9962V21.208C51.9962 20.668 51.7442 20.416 51.2042 20.416H50.4122ZM51.9962 19.624C51.9962 20.164 52.2482 20.416 52.7882 20.416H59.1242C59.6642 20.416 59.9162 20.164 59.9162 19.624V11.704C59.9162 11.164 59.6642 10.912 59.1242 10.912H52.7882C52.2482 10.912 51.9962 11.164 51.9962 11.704V19.624ZM73.3101 15.664C72.7701 15.664 72.5181 15.916 72.5181 16.456C72.5181 16.996 72.7701 17.248 73.3101 17.248H74.1021V22H72.5181V18.04C72.5181 17.5 72.2661 17.248 71.7261 17.248H66.1821V22H64.5981V9.328H72.5181V10.12C72.5181 10.66 72.7701 10.912 73.3101 10.912H74.1021V15.664H73.3101ZM66.1821 15.664H71.7261C72.2661 15.664 72.5181 15.412 72.5181 14.872V11.704C72.5181 11.164 72.2661 10.912 71.7261 10.912H66.1821V15.664ZM77.2009 22V9.328H85.1209V10.912H78.7849V14.08H83.5549V15.664H78.7849V20.416H85.1209V22H77.2009Z" fill="white"/>
    <path d="M1.584 22H1.334V22.25H1.584V22ZM1.584 9.328V9.078H1.334V9.328H1.584ZM4.752 9.328H5.002V9.078H4.752V9.328ZM6.336 10.912H6.586V10.662H6.336V10.912ZM7.92 15.664H8.17V15.414H7.92V15.664ZM9.504 20.416V20.666H9.754V20.416H9.504ZM9.504 9.328V9.078H9.254V9.328H9.504ZM11.088 9.328H11.338V9.078H11.088V9.328ZM11.088 22V22.25H11.338V22H11.088ZM7.92 22H7.67V22.25H7.92V22ZM6.336 20.416H6.086V20.666H6.336V20.416ZM4.752 15.664H4.502V15.914H4.752V15.664ZM3.168 10.912V10.662H2.918V10.912H3.168ZM3.168 22V22.25H3.418V22H3.168ZM1.584 22H1.834V9.328H1.584H1.334V22H1.584ZM1.584 9.328V9.578H4.752V9.328V9.078H1.584V9.328ZM4.752 9.328H4.502V10.12H4.752H5.002V9.328H4.752ZM4.752 10.12H4.502C4.502 10.4242 4.57269 10.6992 4.76872 10.8953C4.96476 11.0913 5.23981 11.162 5.544 11.162V10.912V10.662C5.30819 10.662 5.18724 10.6067 5.12228 10.5417C5.05731 10.4768 5.002 10.3558 5.002 10.12H4.752ZM5.544 10.912V11.162H6.336V10.912V10.662H5.544V10.912ZM6.336 10.912H6.086V14.872H6.336H6.586V10.912H6.336ZM6.336 14.872H6.086C6.086 15.1762 6.15669 15.4512 6.35272 15.6473C6.54876 15.8433 6.82381 15.914 7.128 15.914V15.664V15.414C6.89219 15.414 6.77124 15.3587 6.70628 15.2937C6.64132 15.2288 6.586 15.1078 6.586 14.872H6.336ZM7.128 15.664V15.914H7.92V15.664V15.414H7.128V15.664ZM7.92 15.664H7.67V19.624H7.92H8.17V15.664H7.92ZM7.92 19.624H7.67C7.67 19.9282 7.74069 20.2032 7.93672 20.3993C8.13276 20.5953 8.40781 20.666 8.712 20.666V20.416V20.166C8.47619 20.166 8.35524 20.1107 8.29028 20.0457C8.22532 19.9808 8.17 19.8598 8.17 19.624H7.92ZM8.712 20.416V20.666H9.504V20.416V20.166H8.712V20.416ZM9.504 20.416H9.754V9.328H9.504H9.254V20.416H9.504ZM9.504 9.328V9.578H11.088V9.328V9.078H9.504V9.328ZM11.088 9.328H10.838V22H11.088H11.338V9.328H11.088ZM11.088 22V21.75H7.92V22V22.25H11.088V22ZM7.92 22H8.17V21.208H7.92H7.67V22H7.92ZM7.92 21.208H8.17C8.17 20.9038 8.09932 20.6288 7.90328 20.4327C7.70724 20.2367 7.43219 20.166 7.128 20.166V20.416V20.666C7.36381 20.666 7.48476 20.7213 7.54972 20.7863C7.61469 20.8512 7.67 20.9722 7.67 21.208H7.92ZM7.128 20.416V20.166H6.336V20.416V20.666H7.128V20.416ZM6.336 20.416H6.586V16.456H6.336H6.086V20.416H6.336ZM6.336 16.456H6.586C6.586 16.1518 6.51532 15.8768 6.31928 15.6807C6.12324 15.4847 5.84819 15.414 5.544 15.414V15.664V15.914C5.77981 15.914 5.90076 15.9693 5.96572 16.0343C6.03069 16.0992 6.086 16.2202 6.086 16.456H6.336ZM5.544 15.664V15.414H4.752V15.664V15.914H5.544V15.664ZM4.752 15.664H5.002V11.704H4.752H4.502V15.664H4.752ZM4.752 11.704H5.002C5.002 11.3998 4.93131 11.1248 4.73528 10.9287C4.53924 10.7327 4.26419 10.662 3.96 10.662V10.912V11.162C4.19581 11.162 4.31676 11.2173 4.38172 11.2823C4.44669 11.3472 4.502 11.4682 4.502 11.704H4.752ZM3.96 10.912V10.662H3.168V10.912V11.162H3.96V10.912ZM3.168 10.912H2.918V22H3.168H3.418V10.912H3.168ZM3.168 22V21.75H1.584V22V22.25H3.168V22ZM14.9778 22H14.7278V22.25H14.9778V22ZM14.9778 9.328V9.078H14.7278V9.328H14.9778ZM22.8978 9.328H23.1478V9.078H22.8978V9.328ZM22.8978 10.912V11.162H23.1478V10.912H22.8978ZM16.5618 10.912V10.662H16.3118V10.912H16.5618ZM16.5618 14.08H16.3118V14.33H16.5618V14.08ZM21.3318 14.08H21.5818V13.83H21.3318V14.08ZM21.3318 15.664V15.914H21.5818V15.664H21.3318ZM16.5618 15.664V15.414H16.3118V15.664H16.5618ZM16.5618 20.416H16.3118V20.666H16.5618V20.416ZM22.8978 20.416H23.1478V20.166H22.8978V20.416ZM22.8978 22V22.25H23.1478V22H22.8978ZM14.9778 22H15.2278V9.328H14.9778H14.7278V22H14.9778ZM14.9778 9.328V9.578H22.8978V9.328V9.078H14.9778V9.328ZM22.8978 9.328H22.6478V10.912H22.8978H23.1478V9.328H22.8978ZM22.8978 10.912V10.662H16.5618V10.912V11.162H22.8978V10.912ZM16.5618 10.912H16.3118V14.08H16.5618H16.8118V10.912H16.5618ZM16.5618 14.08V14.33H21.3318V14.08V13.83H16.5618V14.08ZM21.3318 14.08H21.0818V15.664H21.3318H21.5818V14.08H21.3318ZM21.3318 15.664V15.414H16.5618V15.664V15.914H21.3318V15.664ZM16.5618 15.664H16.3118V20.416H16.5618H16.8118V15.664H16.5618ZM16.5618 20.416V20.666H22.8978V20.416V20.166H16.5618V20.416ZM22.8978 20.416H22.6478V22H22.8978H23.1478V20.416H22.8978ZM22.8978 22V21.75H14.9778V22V22.25H22.8978V22ZM25.2066 22H24.9566V22.25H25.2066V22ZM25.2066 18.832V18.582H24.9566V18.832H25.2066ZM26.7906 15.664V15.414H26.5406V15.664H26.7906ZM26.7906 14.08H26.5406V14.33H26.7906V14.08ZM25.2066 12.496H24.9566V12.746H25.2066V12.496ZM25.2066 9.328V9.078H24.9566V9.328H25.2066ZM26.7906 9.328H27.0406V9.078H26.7906V9.328ZM28.3746 12.496H28.6246V12.246H28.3746V12.496ZM31.5426 12.496V12.246H31.2926V12.496H31.5426ZM33.1266 9.328V9.078H32.8766V9.328H33.1266ZM34.7106 9.328H34.9606V9.078H34.7106V9.328ZM34.7106 12.496V12.746H34.9606V12.496H34.7106ZM33.1266 14.08V14.33H33.3766V14.08H33.1266ZM33.1266 15.664H33.3766V15.414H33.1266V15.664ZM34.7106 18.832H34.9606V18.582H34.7106V18.832ZM34.7106 22V22.25H34.9606V22H34.7106ZM33.1266 22H32.8766V22.25H33.1266V22ZM31.5426 18.832H31.2926V19.082H31.5426V18.832ZM28.3746 18.832V19.082H28.6246V18.832H28.3746ZM26.7906 22V22.25H27.0406V22H26.7906ZM25.2066 22H25.4566V18.832H25.2066H24.9566V22H25.2066ZM25.2066 18.832V19.082H25.9986V18.832V18.582H25.2066V18.832ZM25.9986 18.832V19.082C26.3028 19.082 26.5778 19.0113 26.7739 18.8153C26.9699 18.6192 27.0406 18.3442 27.0406 18.04H26.7906H26.5406C26.5406 18.2758 26.4853 18.3968 26.4203 18.4617C26.3554 18.5267 26.2344 18.582 25.9986 18.582V18.832ZM26.7906 18.04H27.0406V15.664H26.7906H26.5406V18.04H26.7906ZM26.7906 15.664V15.914H27.5826V15.664V15.414H26.7906V15.664ZM27.5826 15.664V15.914C27.8868 15.914 28.1618 15.8433 28.3579 15.6473C28.5539 15.4512 28.6246 15.1762 28.6246 14.872H28.3746H28.1246C28.1246 15.1078 28.0693 15.2288 28.0043 15.2937C27.9394 15.3587 27.8184 15.414 27.5826 15.414V15.664ZM28.3746 14.872H28.6246C28.6246 14.5678 28.5539 14.2928 28.3579 14.0967C28.1618 13.9007 27.8868 13.83 27.5826 13.83V14.08V14.33C27.8184 14.33 27.9394 14.3853 28.0043 14.4503C28.0693 14.5152 28.1246 14.6362 28.1246 14.872H28.3746ZM27.5826 14.08V13.83H26.7906V14.08V14.33H27.5826V14.08ZM26.7906 14.08H27.0406V13.288H26.7906H26.5406V14.08H26.7906ZM26.7906 13.288H27.0406C27.0406 12.9838 26.9699 12.7088 26.7739 12.5127C26.5778 12.3167 26.3028 12.246 25.9986 12.246V12.496V12.746C26.2344 12.746 26.3554 12.8013 26.4203 12.8663C26.4853 12.9312 26.5406 13.0522 26.5406 13.288H26.7906ZM25.9986 12.496V12.246H25.2066V12.496V12.746H25.9986V12.496ZM25.2066 12.496H25.4566V9.328H25.2066H24.9566V12.496H25.2066ZM25.2066 9.328V9.578H26.7906V9.328V9.078H25.2066V9.328ZM26.7906 9.328H26.5406V11.704H26.7906H27.0406V9.328H26.7906ZM26.7906 11.704H26.5406C26.5406 12.0082 26.6113 12.2832 26.8073 12.4793C27.0034 12.6753 27.2784 12.746 27.5826 12.746V12.496V12.246C27.3468 12.246 27.2258 12.1907 27.1609 12.1257C27.0959 12.0608 27.0406 11.9398 27.0406 11.704H26.7906ZM27.5826 12.496V12.746H28.3746V12.496V12.246H27.5826V12.496ZM28.3746 12.496H28.1246V13.288H28.3746H28.6246V12.496H28.3746ZM28.3746 13.288H28.1246C28.1246 13.5922 28.1953 13.8672 28.3913 14.0633C28.5874 14.2593 28.8624 14.33 29.1666 14.33V14.08V13.83C28.9308 13.83 28.8098 13.7747 28.7449 13.7097C28.6799 13.6448 28.6246 13.5238 28.6246 13.288H28.3746ZM29.1666 14.08V14.33H30.7506V14.08V13.83H29.1666V14.08ZM30.7506 14.08V14.33C31.0548 14.33 31.3298 14.2593 31.5259 14.0633C31.7219 13.8672 31.7926 13.5922 31.7926 13.288H31.5426H31.2926C31.2926 13.5238 31.2373 13.6448 31.1723 13.7097C31.1074 13.7747 30.9864 13.83 30.7506 13.83V14.08ZM31.5426 13.288H31.7926V12.496H31.5426H31.2926V13.288H31.5426ZM31.5426 12.496V12.746H32.3346V12.496V12.246H31.5426V12.496ZM32.3346 12.496V12.746C32.6388 12.746 32.9138 12.6753 33.1099 12.4793C33.3059 12.2832 33.3766 12.0082 33.3766 11.704H33.1266H32.8766C32.8766 11.9398 32.8213 12.0608 32.7563 12.1257C32.6914 12.1907 32.5704 12.246 32.3346 12.246V12.496ZM33.1266 11.704H33.3766V9.328H33.1266H32.8766V11.704H33.1266ZM33.1266 9.328V9.578H34.7106V9.328V9.078H33.1266V9.328ZM34.7106 9.328H34.4606V12.496H34.7106H34.9606V9.328H34.7106ZM34.7106 12.496V12.246H33.9186V12.496V12.746H34.7106V12.496ZM33.9186 12.496V12.246C33.6144 12.246 33.3394 12.3167 33.1433 12.5127C32.9473 12.7088 32.8766 12.9838 32.8766 13.288H33.1266H33.3766C33.3766 13.0522 33.4319 12.9312 33.4969 12.8663C33.5618 12.8013 33.6828 12.746 33.9186 12.746V12.496ZM33.1266 13.288H32.8766V14.08H33.1266H33.3766V13.288H33.1266ZM33.1266 14.08V13.83H32.3346V14.08V14.33H33.1266V14.08ZM32.3346 14.08V13.83C32.0304 13.83 31.7554 13.9007 31.5593 14.0967C31.3633 14.2928 31.2926 14.5678 31.2926 14.872H31.5426H31.7926C31.7926 14.6362 31.8479 14.5152 31.9129 14.4503C31.9778 14.3853 32.0988 14.33 32.3346 14.33V14.08ZM31.5426 14.872H31.2926C31.2926 15.1762 31.3633 15.4512 31.5593 15.6473C31.7554 15.8433 32.0304 15.914 32.3346 15.914V15.664V15.414C32.0988 15.414 31.9778 15.3587 31.9129 15.2937C31.8479 15.2288 31.7926 15.1078 31.7926 14.872H31.5426ZM32.3346 15.664V15.914H33.1266V15.664V15.414H32.3346V15.664ZM33.1266 15.664H32.8766V18.04H33.1266H33.3766V15.664H33.1266ZM33.1266 18.04H32.8766C32.8766 18.3442 32.9473 18.6192 33.1433 18.8153C33.3394 19.0113 33.6144 19.082 33.9186 19.082V18.832V18.582C33.6828 18.582 33.5618 18.5267 33.4969 18.4617C33.4319 18.3968 33.3766 18.2758 33.3766 18.04H33.1266ZM33.9186 18.832V19.082H34.7106V18.832V18.582H33.9186V18.832ZM34.7106 18.832H34.4606V22H34.7106H34.9606V18.832H34.7106ZM34.7106 22V21.75H33.1266V22V22.25H34.7106V22ZM33.1266 22H33.3766V19.624H33.1266H32.8766V22H33.1266ZM33.1266 19.624H33.3766C33.3766 19.3198 33.3059 19.0448 33.1099 18.8487C32.9138 18.6527 32.6388 18.582 32.3346 18.582V18.832V19.082C32.5704 19.082 32.6914 19.1373 32.7563 19.2023C32.8213 19.2672 32.8766 19.3882 32.8766 19.624H33.1266ZM32.3346 18.832V18.582H31.5426V18.832V19.082H32.3346V18.832ZM31.5426 18.832H31.7926V16.456H31.5426H31.2926V18.832H31.5426ZM31.5426 16.456H31.7926C31.7926 16.1518 31.7219 15.8768 31.5259 15.6807C31.3298 15.4847 31.0548 15.414 30.7506 15.414V15.664V15.914C30.9864 15.914 31.1074 15.9693 31.1723 16.0343C31.2373 16.0992 31.2926 16.2202 31.2926 16.456H31.5426ZM30.7506 15.664V15.414H29.1666V15.664V15.914H30.7506V15.664ZM29.1666 15.664V15.414C28.8624 15.414 28.5874 15.4847 28.3913 15.6807C28.1953 15.8768 28.1246 16.1518 28.1246 16.456H28.3746H28.6246C28.6246 16.2202 28.6799 16.0992 28.7449 16.0343C28.8098 15.9693 28.9308 15.914 29.1666 15.914V15.664ZM28.3746 16.456H28.1246V18.832H28.3746H28.6246V16.456H28.3746ZM28.3746 18.832V18.582H27.5826V18.832V19.082H28.3746V18.832ZM27.5826 18.832V18.582C27.2784 18.582 27.0034 18.6527 26.8073 18.8487C26.6113 19.0448 26.5406 19.3198 26.5406 19.624H26.7906H27.0406C27.0406 19.3882 27.0959 19.2672 27.1609 19.2023C27.2258 19.1373 27.3468 19.082 27.5826 19.082V18.832ZM26.7906 19.624H26.5406V22H26.7906H27.0406V19.624H26.7906ZM26.7906 22V21.75H25.2066V22V22.25H26.7906V22ZM37.0184 20.416H36.7684V20.666H37.0184V20.416ZM37.0184 10.912V10.662H36.7684V10.912H37.0184ZM38.6024 9.328V9.078H38.3524V9.328H38.6024ZM46.5224 9.328H46.7724V9.078H46.5224V9.328ZM48.1064 10.912H48.3564V10.662H48.1064V10.912ZM48.1064 14.08V14.33H48.3564V14.08H48.1064ZM46.5224 14.08H46.2724V14.33H46.5224V14.08ZM46.5224 17.248V16.998H46.2724V17.248H46.5224ZM48.1064 17.248H48.3564V16.998H48.1064V17.248ZM48.1064 20.416V20.666H48.3564V20.416H48.1064ZM46.5224 22V22.25H46.7724V22H46.5224ZM38.6024 22H38.3524V22.25H38.6024V22ZM37.0184 20.416H37.2684V10.912H37.0184H36.7684V20.416H37.0184ZM37.0184 10.912V11.162H37.8104V10.912V10.662H37.0184V10.912ZM37.8104 10.912V11.162C38.1146 11.162 38.3896 11.0913 38.5857 10.8953C38.7817 10.6992 38.8524 10.4242 38.8524 10.12H38.6024H38.3524C38.3524 10.3558 38.2971 10.4768 38.2321 10.5417C38.1672 10.6067 38.0462 10.662 37.8104 10.662V10.912ZM38.6024 10.12H38.8524V9.328H38.6024H38.3524V10.12H38.6024ZM38.6024 9.328V9.578H46.5224V9.328V9.078H38.6024V9.328ZM46.5224 9.328H46.2724V10.12H46.5224H46.7724V9.328H46.5224ZM46.5224 10.12H46.2724C46.2724 10.4242 46.3431 10.6992 46.5391 10.8953C46.7352 11.0913 47.0102 11.162 47.3144 11.162V10.912V10.662C47.0786 10.662 46.9576 10.6067 46.8927 10.5417C46.8277 10.4768 46.7724 10.3558 46.7724 10.12H46.5224ZM47.3144 10.912V11.162H48.1064V10.912V10.662H47.3144V10.912ZM48.1064 10.912H47.8564V14.08H48.1064H48.3564V10.912H48.1064ZM48.1064 14.08V13.83H46.5224V14.08V14.33H48.1064V14.08ZM46.5224 14.08H46.7724V11.704H46.5224H46.2724V14.08H46.5224ZM46.5224 11.704H46.7724C46.7724 11.3998 46.7017 11.1248 46.5057 10.9287C46.3096 10.7327 46.0346 10.662 45.7304 10.662V10.912V11.162C45.9662 11.162 46.0872 11.2173 46.1521 11.2823C46.2171 11.3472 46.2724 11.4682 46.2724 11.704H46.5224ZM45.7304 10.912V10.662H39.3944V10.912V11.162H45.7304V10.912ZM39.3944 10.912V10.662C39.0902 10.662 38.8152 10.7327 38.6191 10.9287C38.4231 11.1248 38.3524 11.3998 38.3524 11.704H38.6024H38.8524C38.8524 11.4682 38.9077 11.3472 38.9727 11.2823C39.0376 11.2173 39.1586 11.162 39.3944 11.162V10.912ZM38.6024 11.704H38.3524V19.624H38.6024H38.8524V11.704H38.6024ZM38.6024 19.624H38.3524C38.3524 19.9282 38.4231 20.2032 38.6191 20.3993C38.8152 20.5953 39.0902 20.666 39.3944 20.666V20.416V20.166C39.1586 20.166 39.0376 20.1107 38.9727 20.0457C38.9077 19.9808 38.8524 19.8598 38.8524 19.624H38.6024ZM39.3944 20.416V20.666H45.7304V20.416V20.166H39.3944V20.416ZM45.7304 20.416V20.666C46.0346 20.666 46.3096 20.5953 46.5057 20.3993C46.7017 20.2032 46.7724 19.9282 46.7724 19.624H46.5224H46.2724C46.2724 19.8598 46.2171 19.9808 46.1521 20.0457C46.0872 20.1107 45.9662 20.166 45.7304 20.166V20.416ZM46.5224 19.624H46.7724V17.248H46.5224H46.2724V19.624H46.5224ZM46.5224 17.248V17.498H48.1064V17.248V16.998H46.5224V17.248ZM48.1064 17.248H47.8564V20.416H48.1064H48.3564V17.248H48.1064ZM48.1064 20.416V20.166H47.3144V20.416V20.666H48.1064V20.416ZM47.3144 20.416V20.166C47.0102 20.166 46.7352 20.2367 46.5391 20.4327C46.3431 20.6288 46.2724 20.9038 46.2724 21.208H46.5224H46.7724C46.7724 20.9722 46.8277 20.8512 46.8927 20.7863C46.9576 20.7213 47.0786 20.666 47.3144 20.666V20.416ZM46.5224 21.208H46.2724V22H46.5224H46.7724V21.208H46.5224ZM46.5224 22V21.75H38.6024V22V22.25H46.5224V22ZM38.6024 22H38.8524V21.208H38.6024H38.3524V22H38.6024ZM38.6024 21.208H38.8524C38.8524 20.9038 38.7817 20.6288 38.5857 20.4327C38.3896 20.2367 38.1146 20.166 37.8104 20.166V20.416V20.666C38.0462 20.666 38.1672 20.7213 38.2321 20.7863C38.2971 20.8512 38.3524 20.9722 38.3524 21.208H38.6024ZM37.8104 20.416V20.166H37.0184V20.416V20.666H37.8104V20.416ZM50.4122 20.416H50.1622V20.666H50.4122V20.416ZM50.4122 10.894V10.644H50.1622V10.894H50.4122ZM51.9962 9.328V9.078H51.7462V9.328H51.9962ZM59.9162 9.328H60.1662V9.078H59.9162V9.328ZM61.5002 10.894H61.7502V10.644H61.5002V10.894ZM61.5002 20.416V20.666H61.7502V20.416H61.5002ZM59.9162 22V22.25H60.1662V22H59.9162ZM51.9962 22H51.7462V22.25H51.9962V22ZM50.4122 20.416H50.6622V10.894H50.4122H50.1622V20.416H50.4122ZM50.4122 10.894V11.144H51.2042V10.894V10.644H50.4122V10.894ZM51.2042 10.894V11.144C51.5084 11.144 51.7835 11.0733 51.9795 10.8773C52.1755 10.6812 52.2462 10.4062 52.2462 10.102H51.9962H51.7462C51.7462 10.3378 51.6909 10.4588 51.626 10.5237C51.561 10.5887 51.44 10.644 51.2042 10.644V10.894ZM51.9962 10.102H52.2462V9.328H51.9962H51.7462V10.102H51.9962ZM51.9962 9.328V9.578H59.9162V9.328V9.078H51.9962V9.328ZM59.9162 9.328H59.6662V10.102H59.9162H60.1662V9.328H59.9162ZM59.9162 10.102H59.6662C59.6662 10.4062 59.7369 10.6812 59.933 10.8773C60.129 11.0733 60.404 11.144 60.7082 11.144V10.894V10.644C60.4724 10.644 60.3515 10.5887 60.2865 10.5237C60.2215 10.4588 60.1662 10.3378 60.1662 10.102H59.9162ZM60.7082 10.894V11.144H61.5002V10.894V10.644H60.7082V10.894ZM61.5002 10.894H61.2502V20.416H61.5002H61.7502V10.894H61.5002ZM61.5002 20.416V20.166H60.7082V20.416V20.666H61.5002V20.416ZM60.7082 20.416V20.166C60.404 20.166 60.129 20.2367 59.933 20.4327C59.7369 20.6288 59.6662 20.9038 59.6662 21.208H59.9162H60.1662C60.1662 20.9722 60.2215 20.8512 60.2865 20.7863C60.3515 20.7213 60.4724 20.666 60.7082 20.666V20.416ZM59.9162 21.208H59.6662V22H59.9162H60.1662V21.208H59.9162ZM59.9162 22V21.75H51.9962V22V22.25H59.9162V22ZM51.9962 22H52.2462V21.208H51.9962H51.7462V22H51.9962ZM51.9962 21.208H52.2462C52.2462 20.9038 52.1755 20.6288 51.9795 20.4327C51.7835 20.2367 51.5084 20.166 51.2042 20.166V20.416V20.666C51.44 20.666 51.561 20.7213 51.626 20.7863C51.6909 20.8512 51.7462 20.9722 51.7462 21.208H51.9962ZM51.2042 20.416V20.166H50.4122V20.416V20.666H51.2042V20.416ZM51.9962 19.624H51.7462C51.7462 19.9282 51.8169 20.2032 52.013 20.3993C52.209 20.5953 52.484 20.666 52.7882 20.666V20.416V20.166C52.5524 20.166 52.4315 20.1107 52.3665 20.0457C52.3016 19.9808 52.2462 19.8598 52.2462 19.624H51.9962ZM52.7882 20.416V20.666H59.1242V20.416V20.166H52.7882V20.416ZM59.1242 20.416V20.666C59.4284 20.666 59.7035 20.5953 59.8995 20.3993C60.0956 20.2032 60.1662 19.9282 60.1662 19.624H59.9162H59.6662C59.6662 19.8598 59.6109 19.9808 59.546 20.0457C59.481 20.1107 59.36 20.166 59.1242 20.166V20.416ZM59.9162 19.624H60.1662V11.704H59.9162H59.6662V19.624H59.9162ZM59.9162 11.704H60.1662C60.1662 11.3998 60.0956 11.1248 59.8995 10.9287C59.7035 10.7327 59.4284 10.662 59.1242 10.662V10.912V11.162C59.36 11.162 59.481 11.2173 59.546 11.2823C59.6109 11.3472 59.6662 11.4682 59.6662 11.704H59.9162ZM59.1242 10.912V10.662H52.7882V10.912V11.162H59.1242V10.912ZM52.7882 10.912V10.662C52.484 10.662 52.209 10.7327 52.013 10.9287C51.8169 11.1248 51.7462 11.3998 51.7462 11.704H51.9962H52.2462C52.2462 11.4682 52.3016 11.3472 52.3665 11.2823C52.4315 11.2173 52.5524 11.162 52.7882 11.162V10.912ZM51.9962 11.704H51.7462V19.624H51.9962H52.2462V11.704H51.9962ZM74.1021 17.248H74.3521V16.998H74.1021V17.248ZM74.1021 22V22.25H74.3521V22H74.1021ZM72.5181 22H72.2681V22.25H72.5181V22ZM66.1821 17.248V16.998H65.9321V17.248H66.1821ZM66.1821 22V22.25H66.4321V22H66.1821ZM64.5981 22H64.3481V22.25H64.5981V22ZM64.5981 9.328V9.078H64.3481V9.328H64.5981ZM72.5181 9.328H72.7681V9.078H72.5181V9.328ZM74.1021 10.912H74.3521V10.662H74.1021V10.912ZM74.1021 15.664V15.914H74.3521V15.664H74.1021ZM66.1821 15.664H65.9321V15.914H66.1821V15.664ZM66.1821 10.912V10.662H65.9321V10.912H66.1821ZM73.3101 15.664V15.414C73.0059 15.414 72.7308 15.4847 72.5348 15.6807C72.3387 15.8768 72.2681 16.1518 72.2681 16.456H72.5181H72.7681C72.7681 16.2202 72.8234 16.0992 72.8883 16.0343C72.9533 15.9693 73.0742 15.914 73.3101 15.914V15.664ZM72.5181 16.456H72.2681C72.2681 16.7602 72.3387 17.0352 72.5348 17.2313C72.7308 17.4273 73.0059 17.498 73.3101 17.498V17.248V16.998C73.0742 16.998 72.9533 16.9427 72.8883 16.8777C72.8234 16.8128 72.7681 16.6918 72.7681 16.456H72.5181ZM73.3101 17.248V17.498H74.1021V17.248V16.998H73.3101V17.248ZM74.1021 17.248H73.8521V22H74.1021H74.3521V17.248H74.1021ZM74.1021 22V21.75H72.5181V22V22.25H74.1021V22ZM72.5181 22H72.7681V18.04H72.5181H72.2681V22H72.5181ZM72.5181 18.04H72.7681C72.7681 17.7358 72.6974 17.4608 72.5013 17.2647C72.3053 17.0687 72.0303 16.998 71.7261 16.998V17.248V17.498C71.9619 17.498 72.0828 17.5533 72.1478 17.6183C72.2127 17.6832 72.2681 17.8042 72.2681 18.04H72.5181ZM71.7261 17.248V16.998H66.1821V17.248V17.498H71.7261V17.248ZM66.1821 17.248H65.9321V22H66.1821H66.4321V17.248H66.1821ZM66.1821 22V21.75H64.5981V22V22.25H66.1821V22ZM64.5981 22H64.8481V9.328H64.5981H64.3481V22H64.5981ZM64.5981 9.328V9.578H72.5181V9.328V9.078H64.5981V9.328ZM72.5181 9.328H72.2681V10.12H72.5181H72.7681V9.328H72.5181ZM72.5181 10.12H72.2681C72.2681 10.4242 72.3387 10.6992 72.5348 10.8953C72.7308 11.0913 73.0059 11.162 73.3101 11.162V10.912V10.662C73.0742 10.662 72.9533 10.6067 72.8883 10.5417C72.8234 10.4768 72.7681 10.3558 72.7681 10.12H72.5181ZM73.3101 10.912V11.162H74.1021V10.912V10.662H73.3101V10.912ZM74.1021 10.912H73.8521V15.664H74.1021H74.3521V10.912H74.1021ZM74.1021 15.664V15.414H73.3101V15.664V15.914H74.1021V15.664ZM66.1821 15.664V15.914H71.7261V15.664V15.414H66.1821V15.664ZM71.7261 15.664V15.914C72.0303 15.914 72.3053 15.8433 72.5013 15.6473C72.6974 15.4512 72.7681 15.1762 72.7681 14.872H72.5181H72.2681C72.2681 15.1078 72.2127 15.2288 72.1478 15.2937C72.0828 15.3587 71.9619 15.414 71.7261 15.414V15.664ZM72.5181 14.872H72.7681V11.704H72.5181H72.2681V14.872H72.5181ZM72.5181 11.704H72.7681C72.7681 11.3998 72.6974 11.1248 72.5013 10.9287C72.3053 10.7327 72.0303 10.662 71.7261 10.662V10.912V11.162C71.9619 11.162 72.0828 11.2173 72.1478 11.2823C72.2127 11.3472 72.2681 11.4682 72.2681 11.704H72.5181ZM71.7261 10.912V10.662H66.1821V10.912V11.162H71.7261V10.912ZM66.1821 10.912H65.9321V15.664H66.1821H66.4321V10.912H66.1821ZM77.2009 22H76.9509V22.25H77.2009V22ZM77.2009 9.328V9.078H76.9509V9.328H77.2009ZM85.1209 9.328H85.3709V9.078H85.1209V9.328ZM85.1209 10.912V11.162H85.3709V10.912H85.1209ZM78.7849 10.912V10.662H78.5349V10.912H78.7849ZM78.7849 14.08H78.5349V14.33H78.7849V14.08ZM83.5549 14.08H83.8049V13.83H83.5549V14.08ZM83.5549 15.664V15.914H83.8049V15.664H83.5549ZM78.7849 15.664V15.414H78.5349V15.664H78.7849ZM78.7849 20.416H78.5349V20.666H78.7849V20.416ZM85.1209 20.416H85.3709V20.166H85.1209V20.416ZM85.1209 22V22.25H85.3709V22H85.1209ZM77.2009 22H77.4509V9.328H77.2009H76.9509V22H77.2009ZM77.2009 9.328V9.578H85.1209V9.328V9.078H77.2009V9.328ZM85.1209 9.328H84.8709V10.912H85.1209H85.3709V9.328H85.1209ZM85.1209 10.912V10.662H78.7849V10.912V11.162H85.1209V10.912ZM78.7849 10.912H78.5349V14.08H78.7849H79.0349V10.912H78.7849ZM78.7849 14.08V14.33H83.5549V14.08V13.83H78.7849V14.08ZM83.5549 14.08H83.3049V15.664H83.5549H83.8049V14.08H83.5549ZM83.5549 15.664V15.414H78.7849V15.664V15.914H83.5549V15.664ZM78.7849 15.664H78.5349V20.416H78.7849H79.0349V15.664H78.7849ZM78.7849 20.416V20.666H85.1209V20.416V20.166H78.7849V20.416ZM85.1209 20.416H84.8709V22H85.1209H85.3709V20.416H85.1209ZM85.1209 22V21.75H77.2009V22V22.25H85.1209V22Z" fill="white" mask="url(#path-1-outside-1_166_4773)"/>
    <mask id="path-4-outside-2_166_4773" maskUnits="userSpaceOnUse" x="95" y="9" width="36" height="14" fill="black">
    <rect fill="white" x="95" y="9" width="36" height="14"/>
    <path d="M95.584 22V9.328H97.168V14.08H103.504V9.328H105.088V22H103.504V15.664H97.168V22H95.584ZM109.59 21.208C109.59 20.668 109.338 20.416 108.798 20.416H108.006V9.328H109.59V19.624C109.59 20.164 109.842 20.416 110.382 20.416H115.134C115.674 20.416 115.926 20.164 115.926 19.624V9.328H117.51V20.416H116.718C116.178 20.416 115.926 20.668 115.926 21.208V22H109.59V21.208ZM120.43 22V9.328H128.35V10.12C128.35 10.66 128.602 10.912 129.142 10.912H129.934V14.08H129.142C128.602 14.08 128.35 14.332 128.35 14.872C128.35 15.412 128.602 15.664 129.142 15.664H129.934V20.416H129.142C128.602 20.416 128.35 20.668 128.35 21.208V22H120.43ZM122.014 20.416H127.558C128.098 20.416 128.35 20.164 128.35 19.624V16.456C128.35 15.916 128.098 15.664 127.558 15.664H122.014V20.416ZM122.014 14.08H127.558C128.098 14.08 128.35 13.828 128.35 13.288V11.704C128.35 11.164 128.098 10.912 127.558 10.912H122.014V14.08Z"/>
    </mask>
    <path d="M95.584 22V9.328H97.168V14.08H103.504V9.328H105.088V22H103.504V15.664H97.168V22H95.584ZM109.59 21.208C109.59 20.668 109.338 20.416 108.798 20.416H108.006V9.328H109.59V19.624C109.59 20.164 109.842 20.416 110.382 20.416H115.134C115.674 20.416 115.926 20.164 115.926 19.624V9.328H117.51V20.416H116.718C116.178 20.416 115.926 20.668 115.926 21.208V22H109.59V21.208ZM120.43 22V9.328H128.35V10.12C128.35 10.66 128.602 10.912 129.142 10.912H129.934V14.08H129.142C128.602 14.08 128.35 14.332 128.35 14.872C128.35 15.412 128.602 15.664 129.142 15.664H129.934V20.416H129.142C128.602 20.416 128.35 20.668 128.35 21.208V22H120.43ZM122.014 20.416H127.558C128.098 20.416 128.35 20.164 128.35 19.624V16.456C128.35 15.916 128.098 15.664 127.558 15.664H122.014V20.416ZM122.014 14.08H127.558C128.098 14.08 128.35 13.828 128.35 13.288V11.704C128.35 11.164 128.098 10.912 127.558 10.912H122.014V14.08Z" fill="#FFB251"/>
    <path d="M95.584 22H95.334V22.25H95.584V22ZM95.584 9.328V9.078H95.334V9.328H95.584ZM97.168 9.328H97.418V9.078H97.168V9.328ZM97.168 14.08H96.918V14.33H97.168V14.08ZM103.504 14.08V14.33H103.754V14.08H103.504ZM103.504 9.328V9.078H103.254V9.328H103.504ZM105.088 9.328H105.338V9.078H105.088V9.328ZM105.088 22V22.25H105.338V22H105.088ZM103.504 22H103.254V22.25H103.504V22ZM103.504 15.664H103.754V15.414H103.504V15.664ZM97.168 15.664V15.414H96.918V15.664H97.168ZM97.168 22V22.25H97.418V22H97.168ZM95.584 22H95.834V9.328H95.584H95.334V22H95.584ZM95.584 9.328V9.578H97.168V9.328V9.078H95.584V9.328ZM97.168 9.328H96.918V14.08H97.168H97.418V9.328H97.168ZM97.168 14.08V14.33H103.504V14.08V13.83H97.168V14.08ZM103.504 14.08H103.754V9.328H103.504H103.254V14.08H103.504ZM103.504 9.328V9.578H105.088V9.328V9.078H103.504V9.328ZM105.088 9.328H104.838V22H105.088H105.338V9.328H105.088ZM105.088 22V21.75H103.504V22V22.25H105.088V22ZM103.504 22H103.754V15.664H103.504H103.254V22H103.504ZM103.504 15.664V15.414H97.168V15.664V15.914H103.504V15.664ZM97.168 15.664H96.918V22H97.168H97.418V15.664H97.168ZM97.168 22V21.75H95.584V22V22.25H97.168V22ZM108.006 20.416H107.756V20.666H108.006V20.416ZM108.006 9.328V9.078H107.756V9.328H108.006ZM109.59 9.328H109.84V9.078H109.59V9.328ZM115.926 9.328V9.078H115.676V9.328H115.926ZM117.51 9.328H117.76V9.078H117.51V9.328ZM117.51 20.416V20.666H117.76V20.416H117.51ZM115.926 22V22.25H116.176V22H115.926ZM109.59 22H109.34V22.25H109.59V22ZM109.59 21.208H109.84C109.84 20.9038 109.769 20.6288 109.573 20.4327C109.377 20.2367 109.102 20.166 108.798 20.166V20.416V20.666C109.034 20.666 109.155 20.7213 109.22 20.7863C109.285 20.8512 109.34 20.9722 109.34 21.208H109.59ZM108.798 20.416V20.166H108.006V20.416V20.666H108.798V20.416ZM108.006 20.416H108.256V9.328H108.006H107.756V20.416H108.006ZM108.006 9.328V9.578H109.59V9.328V9.078H108.006V9.328ZM109.59 9.328H109.34V19.624H109.59H109.84V9.328H109.59ZM109.59 19.624H109.34C109.34 19.9282 109.411 20.2032 109.607 20.3993C109.803 20.5953 110.078 20.666 110.382 20.666V20.416V20.166C110.146 20.166 110.025 20.1107 109.96 20.0457C109.895 19.9808 109.84 19.8598 109.84 19.624H109.59ZM110.382 20.416V20.666H115.134V20.416V20.166H110.382V20.416ZM115.134 20.416V20.666C115.438 20.666 115.713 20.5953 115.909 20.3993C116.105 20.2032 116.176 19.9282 116.176 19.624H115.926H115.676C115.676 19.8598 115.621 19.9808 115.556 20.0457C115.491 20.1107 115.37 20.166 115.134 20.166V20.416ZM115.926 19.624H116.176V9.328H115.926H115.676V19.624H115.926ZM115.926 9.328V9.578H117.51V9.328V9.078H115.926V9.328ZM117.51 9.328H117.26V20.416H117.51H117.76V9.328H117.51ZM117.51 20.416V20.166H116.718V20.416V20.666H117.51V20.416ZM116.718 20.416V20.166C116.414 20.166 116.139 20.2367 115.943 20.4327C115.747 20.6288 115.676 20.9038 115.676 21.208H115.926H116.176C116.176 20.9722 116.231 20.8512 116.296 20.7863C116.361 20.7213 116.482 20.666 116.718 20.666V20.416ZM115.926 21.208H115.676V22H115.926H116.176V21.208H115.926ZM115.926 22V21.75H109.59V22V22.25H115.926V22ZM109.59 22H109.84V21.208H109.59H109.34V22H109.59ZM120.43 22H120.18V22.25H120.43V22ZM120.43 9.328V9.078H120.18V9.328H120.43ZM128.35 9.328H128.6V9.078H128.35V9.328ZM129.934 10.912H130.184V10.662H129.934V10.912ZM129.934 14.08V14.33H130.184V14.08H129.934ZM129.934 15.664H130.184V15.414H129.934V15.664ZM129.934 20.416V20.666H130.184V20.416H129.934ZM128.35 22V22.25H128.6V22H128.35ZM122.014 20.416H121.764V20.666H122.014V20.416ZM122.014 15.664V15.414H121.764V15.664H122.014ZM122.014 14.08H121.764V14.33H122.014V14.08ZM122.014 10.912V10.662H121.764V10.912H122.014ZM120.43 22H120.68V9.328H120.43H120.18V22H120.43ZM120.43 9.328V9.578H128.35V9.328V9.078H120.43V9.328ZM128.35 9.328H128.1V10.12H128.35H128.6V9.328H128.35ZM128.35 10.12H128.1C128.1 10.4242 128.17 10.6992 128.366 10.8953C128.562 11.0913 128.837 11.162 129.142 11.162V10.912V10.662C128.906 10.662 128.785 10.6067 128.72 10.5417C128.655 10.4768 128.6 10.3558 128.6 10.12H128.35ZM129.142 10.912V11.162H129.934V10.912V10.662H129.142V10.912ZM129.934 10.912H129.684V14.08H129.934H130.184V10.912H129.934ZM129.934 14.08V13.83H129.142V14.08V14.33H129.934V14.08ZM129.142 14.08V13.83C128.837 13.83 128.562 13.9007 128.366 14.0967C128.17 14.2928 128.1 14.5678 128.1 14.872H128.35H128.6C128.6 14.6362 128.655 14.5152 128.72 14.4503C128.785 14.3853 128.906 14.33 129.142 14.33V14.08ZM128.35 14.872H128.1C128.1 15.1762 128.17 15.4512 128.366 15.6473C128.562 15.8433 128.837 15.914 129.142 15.914V15.664V15.414C128.906 15.414 128.785 15.3587 128.72 15.2937C128.655 15.2288 128.6 15.1078 128.6 14.872H128.35ZM129.142 15.664V15.914H129.934V15.664V15.414H129.142V15.664ZM129.934 15.664H129.684V20.416H129.934H130.184V15.664H129.934ZM129.934 20.416V20.166H129.142V20.416V20.666H129.934V20.416ZM129.142 20.416V20.166C128.837 20.166 128.562 20.2367 128.366 20.4327C128.17 20.6288 128.1 20.9038 128.1 21.208H128.35H128.6C128.6 20.9722 128.655 20.8512 128.72 20.7863C128.785 20.7213 128.906 20.666 129.142 20.666V20.416ZM128.35 21.208H128.1V22H128.35H128.6V21.208H128.35ZM128.35 22V21.75H120.43V22V22.25H128.35V22ZM122.014 20.416V20.666H127.558V20.416V20.166H122.014V20.416ZM127.558 20.416V20.666C127.862 20.666 128.137 20.5953 128.333 20.3993C128.529 20.2032 128.6 19.9282 128.6 19.624H128.35H128.1C128.1 19.8598 128.044 19.9808 127.979 20.0457C127.914 20.1107 127.793 20.166 127.558 20.166V20.416ZM128.35 19.624H128.6V16.456H128.35H128.1V19.624H128.35ZM128.35 16.456H128.6C128.6 16.1518 128.529 15.8768 128.333 15.6807C128.137 15.4847 127.862 15.414 127.558 15.414V15.664V15.914C127.793 15.914 127.914 15.9693 127.979 16.0343C128.044 16.0992 128.1 16.2202 128.1 16.456H128.35ZM127.558 15.664V15.414H122.014V15.664V15.914H127.558V15.664ZM122.014 15.664H121.764V20.416H122.014H122.264V15.664H122.014ZM122.014 14.08V14.33H127.558V14.08V13.83H122.014V14.08ZM127.558 14.08V14.33C127.862 14.33 128.137 14.2593 128.333 14.0633C128.529 13.8672 128.6 13.5922 128.6 13.288H128.35H128.1C128.1 13.5238 128.044 13.6448 127.979 13.7097C127.914 13.7747 127.793 13.83 127.558 13.83V14.08ZM128.35 13.288H128.6V11.704H128.35H128.1V13.288H128.35ZM128.35 11.704H128.6C128.6 11.3998 128.529 11.1248 128.333 10.9287C128.137 10.7327 127.862 10.662 127.558 10.662V10.912V11.162C127.793 11.162 127.914 11.2173 127.979 11.2823C128.044 11.3472 128.1 11.4682 128.1 11.704H128.35ZM127.558 10.912V10.662H122.014V10.912V11.162H127.558V10.912ZM122.014 10.912H121.764V14.08H122.014H122.264V10.912H122.014Z" fill="#FFB251" mask="url(#path-4-outside-2_166_4773)"/>
</svg>