<svg width="48" height="48" viewBox="0 0 48 48" fill="none" xmlns="http://www.w3.org/2000/svg">
<rect width="48" height="48" rx="24" fill="#0088CC"/>
<path fill-rule="evenodd" clip-rule="evenodd" d="M13.0411 23.7972C18.8712 21.2407 22.7683 19.5884 24.7325 18.7778C30.282 16.4707 31.4355 16.0654 32.1838 16.0342C32.3397 16.0342 32.7138 16.0654 32.9632 16.2524C33.1503 16.4083 33.2126 16.6265 33.2438 16.7824C33.275 16.9383 33.3062 17.2813 33.275 17.5618C32.9632 20.7107 31.685 28.4114 30.9991 31.9344C30.7185 33.4309 30.1573 33.9297 29.6273 33.9921C28.4737 34.0856 27.5696 33.2127 26.4472 32.4956C24.7013 31.3421 23.7037 30.625 21.9889 29.5026C20.0248 28.1932 21.303 27.4761 22.4254 26.3226C22.706 26.0108 27.8502 21.3654 27.9437 20.929C27.9437 20.8666 27.9749 20.6795 27.8502 20.586C27.7255 20.4925 27.5696 20.5237 27.4449 20.5548C27.2578 20.586 24.4519 22.4566 18.9959 26.1355C18.1853 26.6967 17.4683 26.9461 16.8136 26.9461C16.0965 26.9461 14.7247 26.5408 13.6959 26.1979C12.4488 25.7926 11.4511 25.5743 11.5447 24.8884C11.607 24.5455 12.1058 24.1714 13.0411 23.7972Z" fill="white"/>
</svg>
