<svg width="40" height="40" viewBox="0 0 40 40" fill="none" xmlns="http://www.w3.org/2000/svg">
    <g clip-path="url(#clip0_166_4785)">
    <path d="M20.0156 40.0312C31.0699 40.0312 40.0312 31.0699 40.0312 20.0156C40.0312 8.96128 31.0699 0 20.0156 0C8.96128 0 0 8.96128 0 20.0156C0 31.0699 8.96128 40.0312 20.0156 40.0312Z" fill="url(#paint0_linear_166_4785)"/>
    <path fill-rule="evenodd" clip-rule="evenodd" d="M9.04164 19.7972C14.8717 17.2407 18.7688 15.5884 20.733 14.7778C26.2825 12.4707 27.436 12.0654 28.1843 12.0342C28.3402 12.0342 28.7143 12.0654 28.9637 12.2524C29.1508 12.4083 29.2131 12.6265 29.2443 12.7824C29.2755 12.9383 29.3066 13.2813 29.2755 13.5618C28.9637 16.7107 27.6854 24.4114 26.9995 27.9344C26.719 29.4309 26.1578 29.9297 25.6278 29.9921C24.4742 30.0856 23.5701 29.2127 22.4477 28.4956C20.7018 27.3421 19.7041 26.625 17.9894 25.5026C16.0253 24.1932 17.3035 23.4761 18.4259 22.3226C18.7065 22.0108 23.8507 17.3654 23.9442 16.929C23.9442 16.8666 23.9754 16.6795 23.8507 16.586C23.726 16.4925 23.5701 16.5237 23.4454 16.5548C23.2583 16.586 20.4524 18.4566 14.9964 22.1355C14.1858 22.6967 13.4688 22.9461 12.814 22.9461C12.097 22.9461 10.7252 22.5408 9.69635 22.1979C8.44927 21.7926 7.45161 21.5743 7.54514 20.8884C7.6075 20.5455 8.10633 20.1714 9.04164 19.7972Z" fill="white"/>
    </g>
    <defs>
    <linearGradient id="paint0_linear_166_4785" x1="0" y1="20.0011" x2="40.0022" y2="20.0011" gradientUnits="userSpaceOnUse">
    <stop stop-color="#2AABEE"/>
    <stop offset="1" stop-color="#229ED9"/>
    </linearGradient>
    <clipPath id="clip0_166_4785">
    <rect width="40" height="40" fill="white"/>
    </clipPath>
    </defs>
</svg>