<svg width="64" height="64" viewBox="0 0 64 64" fill="none" xmlns="http://www.w3.org/2000/svg">
<circle cx="32" cy="32" r="32" fill="white"/>
<path d="M36.0001 43.9998V37.3332C36.0001 36.9795 35.8596 36.6404 35.6096 36.3904C35.3595 36.1403 35.0204 35.9998 34.6668 35.9998H29.3334C28.9798 35.9998 28.6407 36.1403 28.3906 36.3904C28.1406 36.6404 28.0001 36.9795 28.0001 37.3332V43.9998M39.6988 29.7465C39.4208 29.4804 39.0509 29.3319 38.6661 29.3319C38.2813 29.3319 37.9114 29.4804 37.6334 29.7465C37.0134 30.3379 36.1896 30.6678 35.3328 30.6678C34.476 30.6678 33.6521 30.3379 33.0321 29.7465C32.7542 29.4808 32.3846 29.3325 32.0001 29.3325C31.6156 29.3325 31.246 29.4808 30.9681 29.7465C30.348 30.3383 29.5239 30.6684 28.6668 30.6684C27.8097 30.6684 26.9855 30.3383 26.3654 29.7465C26.0875 29.4804 25.7175 29.3319 25.3328 29.3319C24.948 29.3319 24.5781 29.4804 24.3001 29.7465C23.7012 30.318 22.9111 30.6462 22.0836 30.6672C21.2561 30.6883 20.4503 30.4007 19.8232 29.8603C19.196 29.32 18.7924 28.5657 18.6907 27.7442C18.5891 26.9226 18.7968 26.0927 19.2734 25.4158L23.1254 19.8372C23.3698 19.4765 23.6989 19.1812 24.0838 18.9772C24.4687 18.7731 24.8978 18.6664 25.3334 18.6665H38.6668C39.1012 18.6663 39.529 18.7723 39.9131 18.9752C40.2972 19.178 40.626 19.4716 40.8708 19.8305L44.7308 25.4198C45.2075 26.0972 45.4149 26.9278 45.3127 27.7498C45.2104 28.5717 44.8058 29.3262 44.1777 29.8661C43.5495 30.406 42.7429 30.6927 41.9149 30.6704C41.0869 30.648 40.2969 30.3182 39.6988 29.7452M21.3334 30.5998V41.3332C21.3334 42.0404 21.6144 42.7187 22.1145 43.2188C22.6146 43.7189 23.2929 43.9998 24.0001 43.9998H40.0001C40.7073 43.9998 41.3856 43.7189 41.8857 43.2188C42.3858 42.7187 42.6668 42.0404 42.6668 41.3332V30.5998" stroke="#292524" stroke-width="1.5" stroke-linecap="round" stroke-linejoin="round"/>
</svg>
