<svg width="64" height="64" viewBox="0 0 64 64" fill="none" xmlns="http://www.w3.org/2000/svg">
<circle cx="32" cy="32" r="32" fill="white"/>
<path d="M27.6187 34.6665H22.672C22.3924 34.6666 22.12 34.7546 21.8932 34.918C21.6663 35.0814 21.4966 35.312 21.408 35.5772L18.736 43.5772C18.669 43.7776 18.6506 43.9911 18.6823 44.2C18.7141 44.4089 18.795 44.6073 18.9184 44.7788C19.0419 44.9503 19.2043 45.09 19.3924 45.1864C19.5804 45.2828 19.7887 45.3331 20 45.3332H44C44.2112 45.333 44.4193 45.2827 44.6072 45.1864C44.7951 45.0901 44.9574 44.9505 45.0808 44.7792C45.2043 44.6078 45.2852 44.4096 45.3171 44.2009C45.3489 43.9922 45.3307 43.7788 45.264 43.5785L42.5973 35.5785C42.5089 35.3129 42.339 35.0819 42.1119 34.9182C41.8848 34.7545 41.612 34.6664 41.332 34.6665H36.3827M40 26.6665C40 31.4838 34.8413 36.5718 32.8093 38.3932C32.5769 38.5707 32.2925 38.6669 32 38.6669C31.7075 38.6669 31.4231 38.5707 31.1907 38.3932C29.16 36.5718 24 31.4838 24 26.6665C24 24.5448 24.8429 22.5099 26.3431 21.0096C27.8434 19.5094 29.8783 18.6665 32 18.6665C34.1217 18.6665 36.1566 19.5094 37.6569 21.0096C39.1571 22.5099 40 24.5448 40 26.6665ZM34.6667 26.6665C34.6667 28.1393 33.4728 29.3332 32 29.3332C30.5272 29.3332 29.3333 28.1393 29.3333 26.6665C29.3333 25.1937 30.5272 23.9998 32 23.9998C33.4728 23.9998 34.6667 25.1937 34.6667 26.6665Z" stroke="#292524" stroke-width="1.5" stroke-linecap="round" stroke-linejoin="round"/>
</svg>
