<svg width="64" height="64" viewBox="0 0 64 64" fill="none" xmlns="http://www.w3.org/2000/svg">
<circle cx="32" cy="32" r="32" fill="white"/>
<path d="M30.6667 38.6668L33.3334 41.3335C33.5961 41.5962 33.9079 41.8045 34.251 41.9466C34.5942 42.0888 34.962 42.1619 35.3334 42.1619C35.7048 42.1619 36.0726 42.0888 36.4158 41.9466C36.759 41.8045 37.0708 41.5962 37.3334 41.3335C37.5961 41.0709 37.8044 40.7591 37.9465 40.4159C38.0887 40.0727 38.1618 39.7049 38.1618 39.3335C38.1618 38.9621 38.0887 38.5943 37.9465 38.2511C37.8044 37.908 37.5961 37.5962 37.3334 37.3335M34.6667 34.6668L38.0001 38.0002C38.5305 38.5306 39.2499 38.8286 40.0001 38.8286C40.7502 38.8286 41.4696 38.5306 42.0001 38.0002C42.5305 37.4697 42.8285 36.7503 42.8285 36.0002C42.8285 35.25 42.5305 34.5306 42.0001 34.0002L36.8267 28.8268C36.0767 28.0778 35.0601 27.657 34.0001 27.657C32.9401 27.657 31.9234 28.0778 31.1734 28.8268L30.0001 30.0002C29.4696 30.5306 28.7502 30.8286 28.0001 30.8286C27.2499 30.8286 26.5305 30.5306 26.0001 30.0002C25.4696 29.4697 25.1717 28.7503 25.1717 28.0002C25.1717 27.25 25.4696 26.5306 26.0001 26.0002L29.7467 22.2535C30.9631 21.0404 32.5493 20.2676 34.2543 20.0575C35.9593 19.8474 37.6856 20.212 39.1601 21.0935L39.7867 21.4668C40.3545 21.8095 41.0295 21.9283 41.6801 21.8002L44.0001 21.3335M44.0001 20.0002L45.3334 34.6668H42.6667M20.0001 20.0002L18.6667 34.6668L27.3334 43.3335C27.8638 43.8639 28.5833 44.1619 29.3334 44.1619C30.0836 44.1619 30.803 43.8639 31.3334 43.3335C31.8638 42.8031 32.1618 42.0837 32.1618 41.3335C32.1618 40.5834 31.8638 39.8639 31.3334 39.3335M20.0001 21.3335H30.6667" stroke="#292524" stroke-width="1.5" stroke-linecap="round" stroke-linejoin="round"/>
</svg>
