<?xml version="1.0" standalone="no"?>
  <!DOCTYPE svg PUBLIC "-//W3C//DTD SVG 1.1//EN" "http://www.w3.org/Graphics/SVG/1.1/DTD/svg11.dtd" >
  <svg>
  <metadata>
  Created by font-carrier
  </metadata>
  <defs>
  <font id="ArticulatCF-DemiBold" horiz-adv-x="1080" vert-adv-y="1080" >
    <font-face
      
      font-family="Articulat CF Demi Bold"
      
      font-weight="400"
      
      font-stretch="normal"
      
      units-per-em="1000"
      
      ascent="980"
      
      descent="-220"
      
    />
      <missing-glyph />

      

      
      <glyph glyph-name="uni41" unicode="&#x41;" d="M544 0L689 0L416 700L296 700L24 0L168 0L219 144L493 144ZM254 243L356 533L458 243Z"  horiz-adv-x="712" vert-adv-y="1000"  />

      
      <glyph glyph-name="unic1" unicode="&#xc1;" d="M511 889L371 889L289 761L398 761ZM544 0L689 0L416 700L296 700L24 0L168 0L219 144L493 144ZM254 243L356 533L458 243Z"  horiz-adv-x="712" vert-adv-y="1000"  />

      
      <glyph glyph-name="uni0102" unicode="&#x0102;" d="M356 742C467 742 520 801 520 889L437 889C430 847 406 827 356 827C306 827 282 847 276 889L192 889C192 801 245 742 356 742ZM544 0L689 0L416 700L296 700L24 0L168 0L219 144L493 144ZM254 243L356 533L458 243Z"  horiz-adv-x="712" vert-adv-y="1000"  />

      
      <glyph glyph-name="uni01CD" unicode="&#x01CD;" d="M472 742L546 880L446 880L355 799L264 880L163 880L237 742ZM544 0L689 0L416 700L296 700L24 0L168 0L219 144L493 144ZM254 243L356 533L458 243Z"  horiz-adv-x="712" vert-adv-y="1000"  />

      
      <glyph glyph-name="unic2" unicode="&#xc2;" d="M356 832L447 751L547 751L473 889L238 889L164 751L265 751ZM544 0L689 0L416 700L296 700L24 0L168 0L219 144L493 144ZM254 243L356 533L458 243Z"  horiz-adv-x="712" vert-adv-y="1000"  />

      
      <glyph glyph-name="unic4" unicode="&#xc4;" d="M307 889L176 889L176 785L307 785ZM535 889L405 889L405 785L535 785ZM544 0L689 0L416 700L296 700L24 0L168 0L219 144L493 144ZM254 243L356 533L458 243Z"  horiz-adv-x="712" vert-adv-y="1000"  />

      
      <glyph glyph-name="unic0" unicode="&#xc0;" d="M420 761L338 889L198 889L311 761ZM544 0L689 0L416 700L296 700L24 0L168 0L219 144L493 144ZM254 243L356 533L458 243Z"  horiz-adv-x="712" vert-adv-y="1000"  />

      
      <glyph glyph-name="uni0100" unicode="&#x0100;" d="M529 889L182 889L182 814L529 814ZM544 0L689 0L416 700L296 700L24 0L168 0L219 144L493 144ZM254 243L356 533L458 243Z"  horiz-adv-x="712" vert-adv-y="1000"  />

      
      <glyph glyph-name="uni0104" unicode="&#x0104;" d="M638 0L689 0L416 700L296 700L24 0L168 0L219 144L493 144L544 0C476-10 385-58 385-133C385-237 528-232 593-198L593-143C541-159 506-150 506-110C506-76 531-30 638 0ZM254 243L356 533L458 243Z"  horiz-adv-x="712" vert-adv-y="1000"  />

      
      <glyph glyph-name="unic5" unicode="&#xc5;" d="M356 760C408 760 452 802 452 856C452 909 408 952 356 952C303 952 259 909 259 856C259 802 303 760 356 760ZM356 895C377 895 395 880 395 856C395 832 377 816 356 816C334 816 316 832 316 856C316 880 334 895 356 895ZM544 0L689 0L416 700L296 700L24 0L168 0L219 144L493 144ZM254 243L356 533L458 243Z"  horiz-adv-x="712" vert-adv-y="1000"  />

      
      <glyph glyph-name="unic3" unicode="&#xc3;" d="M257 834C326 834 365 758 442 758C516 758 558 810 558 880L506 880C507 861 487 846 462 846C393 846 354 923 277 923C202 923 161 870 161 801L213 801C212 819 232 834 257 834ZM544 0L689 0L416 700L296 700L24 0L168 0L219 144L493 144ZM254 243L356 533L458 243Z"  horiz-adv-x="712" vert-adv-y="1000"  />

      
      <glyph glyph-name="unic6" unicode="&#xc6;" d="M637 116L637 302L935 302L935 410L637 410L637 584L985 584L985 700L503 700L24 0L164 0L262 143L504 143L504 0L995 0L995 116ZM332 246L504 498L504 246Z"  horiz-adv-x="1025" vert-adv-y="1000"  />

      
      <glyph glyph-name="uni42" unicode="&#x42;" d="M471 384C524 406 563 456 563 521C563 627 489 700 336 700L54 700L54 0L345 0C525 0 609 78 609 206C609 288 557 360 471 384ZM187 589L337 589C387 589 423 562 423 510C423 461 393 422 336 422L187 422ZM341 111L187 111L187 319L344 319C436 319 465 265 465 211C465 156 432 111 341 111Z"  horiz-adv-x="653" vert-adv-y="1000"  />

      
      <glyph glyph-name="uni43" unicode="&#x43;" d="M360 107C246 107 179 197 179 350C179 504 246 593 360 593C442 593 482 558 508 490L641 490C622 635 500 709 357 709C170 709 39 584 39 350C39 116 170-9 357-9C501-9 624 65 643 212L510 212C484 142 443 107 360 107Z"  horiz-adv-x="673" vert-adv-y="1000"  />

      
      <glyph glyph-name="uni0106" unicode="&#x0106;" d="M293 761L375 889L515 889L402 761ZM360 107C246 107 179 197 179 350C179 504 246 593 360 593C442 593 482 558 508 490L641 490C622 635 500 709 357 709C170 709 39 584 39 350C39 116 170-9 357-9C501-9 624 65 643 212L510 212C484 142 443 107 360 107Z"  horiz-adv-x="673" vert-adv-y="1000"  />

      
      <glyph glyph-name="uni010C" unicode="&#x010C;" d="M450 880L359 799L268 880L167 880L241 742L476 742L550 880ZM360 107C246 107 179 197 179 350C179 504 246 593 360 593C442 593 482 558 508 490L641 490C622 635 500 709 357 709C170 709 39 584 39 350C39 116 170-9 357-9C501-9 624 65 643 212L510 212C484 142 443 107 360 107Z"  horiz-adv-x="673" vert-adv-y="1000"  />

      
      <glyph glyph-name="unic7" unicode="&#xc7;" d="M643 212L510 212C484 142 443 107 360 107C246 107 179 197 179 350C179 504 246 593 360 593C442 593 482 558 508 490L641 490C622 635 500 709 357 709C170 709 39 584 39 350C39 139 146 16 304-5L260-80L291-130C322-104 359-115 359-146C359-177 328-190 267-191L267-244C370-244 457-229 457-143C457-86 409-58 359-58L409-6C529 10 626 83 643 212Z"  horiz-adv-x="673" vert-adv-y="1000"  />

      
      <glyph glyph-name="uni010A" unicode="&#x010A;" d="M295 889L295 785L426 785L426 889ZM360 107C246 107 179 197 179 350C179 504 246 593 360 593C442 593 482 558 508 490L641 490C622 635 500 709 357 709C170 709 39 584 39 350C39 116 170-9 357-9C501-9 624 65 643 212L510 212C484 142 443 107 360 107Z"  horiz-adv-x="673" vert-adv-y="1000"  />

      
      <glyph glyph-name="uni44" unicode="&#x44;" d="M308 700L54 700L54 0L308 0C532 0 646 126 646 350C646 574 532 700 308 700ZM295 116L187 116L187 584L295 584C453 584 512 513 512 350C512 187 453 116 295 116Z"  horiz-adv-x="679" vert-adv-y="1000"  />

      
      <glyph glyph-name="unid0" unicode="&#xd0;" d="M339 700L85 700L85 393L20 393L20 297L85 297L85 0L339 0C563 0 677 126 677 350C677 574 563 700 339 700ZM326 116L218 116L218 297L319 297L319 393L218 393L218 584L326 584C484 584 543 513 543 350C543 187 484 116 326 116Z"  horiz-adv-x="710" vert-adv-y="1000"  />

      
      <glyph glyph-name="uni010E" unicode="&#x010E;" d="M449 742L523 880L423 880L332 799L241 880L140 880L214 742ZM308 700L54 700L54 0L308 0C532 0 646 126 646 350C646 574 532 700 308 700ZM295 116L187 116L187 584L295 584C453 584 512 513 512 350C512 187 453 116 295 116Z"  horiz-adv-x="679" vert-adv-y="1000"  />

      
      <glyph glyph-name="uni0110" unicode="&#x0110;" d="M339 700L85 700L85 393L20 393L20 297L85 297L85 0L339 0C563 0 677 126 677 350C677 574 563 700 339 700ZM326 116L218 116L218 297L319 297L319 393L218 393L218 584L326 584C484 584 543 513 543 350C543 187 484 116 326 116Z"  horiz-adv-x="710" vert-adv-y="1000"  />

      
      <glyph glyph-name="uni45" unicode="&#x45;" d="M187 116L187 302L485 302L485 410L187 410L187 584L535 584L535 700L54 700L54 0L545 0L545 116Z"  horiz-adv-x="575" vert-adv-y="1000"  />

      
      <glyph glyph-name="unic9" unicode="&#xc9;" d="M452 889L312 889L230 761L339 761ZM187 116L187 302L485 302L485 410L187 410L187 584L535 584L535 700L54 700L54 0L545 0L545 116Z"  horiz-adv-x="575" vert-adv-y="1000"  />

      
      <glyph glyph-name="uni011A" unicode="&#x011A;" d="M413 742L487 880L387 880L296 799L205 880L104 880L178 742ZM187 116L187 302L485 302L485 410L187 410L187 584L535 584L535 700L54 700L54 0L545 0L545 116Z"  horiz-adv-x="575" vert-adv-y="1000"  />

      
      <glyph glyph-name="unica" unicode="&#xca;" d="M297 832L388 751L488 751L414 889L179 889L105 751L206 751ZM187 116L187 302L485 302L485 410L187 410L187 584L535 584L535 700L54 700L54 0L545 0L545 116Z"  horiz-adv-x="575" vert-adv-y="1000"  />

      
      <glyph glyph-name="unicb" unicode="&#xcb;" d="M248 889L117 889L117 785L248 785ZM476 889L346 889L346 785L476 785ZM187 116L187 302L485 302L485 410L187 410L187 584L535 584L535 700L54 700L54 0L545 0L545 116Z"  horiz-adv-x="575" vert-adv-y="1000"  />

      
      <glyph glyph-name="uni0116" unicode="&#x0116;" d="M363 889L232 889L232 785L363 785ZM187 116L187 302L485 302L485 410L187 410L187 584L535 584L535 700L54 700L54 0L545 0L545 116Z"  horiz-adv-x="575" vert-adv-y="1000"  />

      
      <glyph glyph-name="unic8" unicode="&#xc8;" d="M361 761L279 889L139 889L252 761ZM187 116L187 302L485 302L485 410L187 410L187 584L535 584L535 700L54 700L54 0L545 0L545 116Z"  horiz-adv-x="575" vert-adv-y="1000"  />

      
      <glyph glyph-name="uni0112" unicode="&#x0112;" d="M470 889L123 889L123 814L470 814ZM187 116L187 302L485 302L485 410L187 410L187 584L535 584L535 700L54 700L54 0L545 0L545 116Z"  horiz-adv-x="575" vert-adv-y="1000"  />

      
      <glyph glyph-name="uni0118" unicode="&#x0118;" d="M545 0L545 116L187 116L187 302L485 302L485 410L187 410L187 584L535 584L535 700L54 700L54 0L451 0C383-10 292-58 292-133C292-237 435-232 500-198L500-143C448-159 413-150 413-110C413-76 438-30 545 0Z"  horiz-adv-x="575" vert-adv-y="1000"  />

      
      <glyph glyph-name="uni46" unicode="&#x46;" d="M511 584L511 700L54 700L54 0L187 0L187 293L454 293L454 400L187 400L187 584Z"  horiz-adv-x="541" vert-adv-y="1000"  />

      
      <glyph glyph-name="uni47" unicode="&#x47;" d="M663 377L386 377L386 272L540 272C533 154 472 107 365 107C245 107 179 199 179 350C179 504 247 593 360 593C436 593 478 561 504 503L638 503C612 638 495 709 357 709C170 709 39 584 39 350C39 116 169-9 365-9C573-9 663 109 663 332Z"  horiz-adv-x="706" vert-adv-y="1000"  />

      
      <glyph glyph-name="uni011E" unicode="&#x011E;" d="M438 889C431 847 407 827 357 827C307 827 283 847 277 889L193 889C193 801 246 742 357 742C468 742 521 801 521 889ZM663 377L386 377L386 272L540 272C533 154 472 107 365 107C245 107 179 199 179 350C179 504 247 593 360 593C436 593 478 561 504 503L638 503C612 638 495 709 357 709C170 709 39 584 39 350C39 116 169-9 365-9C573-9 663 109 663 332Z"  horiz-adv-x="706" vert-adv-y="1000"  />

      
      <glyph glyph-name="uni0122" unicode="&#x0122;" d="M663 377L386 377L386 272L540 272C533 154 472 107 365 107C245 107 179 199 179 350C179 504 247 593 360 593C436 593 478 561 504 503L638 503C612 638 495 709 357 709C170 709 39 584 39 350C39 116 169-9 365-9C573-9 663 109 663 332ZM295-339C363-338 436-320 436-179L436-30L295-30L295-178L350-178L350-209C350-254 336-288 295-299Z"  horiz-adv-x="706" vert-adv-y="1000"  />

      
      <glyph glyph-name="uni0120" unicode="&#x0120;" d="M292 889L292 785L423 785L423 889ZM663 377L386 377L386 272L540 272C533 154 472 107 365 107C245 107 179 199 179 350C179 504 247 593 360 593C436 593 478 561 504 503L638 503C612 638 495 709 357 709C170 709 39 584 39 350C39 116 169-9 365-9C573-9 663 109 663 332Z"  horiz-adv-x="706" vert-adv-y="1000"  />

      
      <glyph glyph-name="uni48" unicode="&#x48;" d="M482 700L482 402L187 402L187 700L54 700L54 0L187 0L187 293L482 293L482 0L616 0L616 700Z"  horiz-adv-x="670" vert-adv-y="1000"  />

      
      <glyph glyph-name="uni0126" unicode="&#x0126;" d="M482 700L482 572L187 572L187 700L54 700L54 0L187 0L187 293L482 293L482 0L616 0L616 700ZM187 402L187 467L482 467L482 402Z"  horiz-adv-x="670" vert-adv-y="1000"  />

      
      <glyph glyph-name="uni49" unicode="&#x49;" d="M187 0L187 700L54 700L54 0Z"  horiz-adv-x="241" vert-adv-y="1000"  />

      
      <glyph glyph-name="uni0132" unicode="&#x0132;" d="M187 0L187 700L54 700L54 0ZM330 168L260 85C300 36 369-7 464-7C597-7 712 61 712 240L712 700L578 700L578 246C578 135 522 109 463 109C395 109 354 141 330 168Z"  horiz-adv-x="760" vert-adv-y="1000"  />

      
      <glyph glyph-name="unicd" unicode="&#xcd;" d="M53 761L135 889L275 889L162 761ZM187 0L187 700L54 700L54 0Z"  horiz-adv-x="241" vert-adv-y="1000"  />

      
      <glyph glyph-name="uni01CF" unicode="&#x01CF;" d="M210 880L119 799L28 880L-73 880L1 742L236 742L310 880ZM187 0L187 700L54 700L54 0Z"  horiz-adv-x="241" vert-adv-y="1000"  />

      
      <glyph glyph-name="unice" unicode="&#xce;" d="M211 751L311 751L237 889L2 889L-72 751L29 751L120 832ZM187 0L187 700L54 700L54 0Z"  horiz-adv-x="241" vert-adv-y="1000"  />

      
      <glyph glyph-name="unicf" unicode="&#xcf;" d="M-60 889L-60 785L71 785L71 889ZM169 889L169 785L299 785L299 889ZM187 0L187 700L54 700L54 0Z"  horiz-adv-x="241" vert-adv-y="1000"  />

      
      <glyph glyph-name="uni0130" unicode="&#x0130;" d="M55 889L55 785L186 785L186 889ZM187 0L187 700L54 700L54 0Z"  horiz-adv-x="241" vert-adv-y="1000"  />

      
      <glyph glyph-name="unicc" unicode="&#xcc;" d="M184 761L75 761L-38 889L102 889ZM187 0L187 700L54 700L54 0Z"  horiz-adv-x="241" vert-adv-y="1000"  />

      
      <glyph glyph-name="uni012A" unicode="&#x012A;" d="M-54 889L-54 814L293 814L293 889ZM187 0L187 700L54 700L54 0Z"  horiz-adv-x="241" vert-adv-y="1000"  />

      
      <glyph glyph-name="uni012E" unicode="&#x012E;" d="M56-110C56-76 81-30 188 0L187 0L187 700L54 700L54 0L94 0C26-10-65-58-65-133C-65-237 78-232 143-198L143-143C91-159 56-150 56-110Z"  horiz-adv-x="241" vert-adv-y="1000"  />

      
      <glyph glyph-name="uni4a" unicode="&#x4a;" d="M89 168L19 85C59 36 128-7 223-7C356-7 471 61 471 240L471 700L337 700L337 246C337 135 281 109 222 109C154 109 113 141 89 168Z"  horiz-adv-x="519" vert-adv-y="1000"  />

      
      <glyph glyph-name="uni4b" unicode="&#x4b;" d="M366 383L640 700L487 700L187 357L187 700L54 700L54 0L187 0L187 177L286 292L286 290L519 0L667 0Z"  horiz-adv-x="687" vert-adv-y="1000"  />

      
      <glyph glyph-name="uni0136" unicode="&#x0136;" d="M366 383L640 700L487 700L187 357L187 700L54 700L54 0L187 0L187 177L286 292L286 290L519 0L667 0ZM272-178L327-178L327-209C327-254 313-288 272-299L272-339C340-338 413-320 413-179L413-30L272-30Z"  horiz-adv-x="687" vert-adv-y="1000"  />

      
      <glyph glyph-name="uni4c" unicode="&#x4c;" d="M187 116L187 700L54 700L54 0L517 0L517 116Z"  horiz-adv-x="545" vert-adv-y="1000"  />

      
      <glyph glyph-name="uni0139" unicode="&#x0139;" d="M63 759L145 887L285 887L172 759ZM187 116L187 700L54 700L54 0L517 0L517 116Z"  horiz-adv-x="545" vert-adv-y="1000"  />

      
      <glyph glyph-name="uni013D" unicode="&#x013D;" d="M187 116L187 700L54 700L54 0L517 0L517 116ZM289 391C357 392 430 410 430 551L430 700L289 700L289 552L344 552L344 521C344 476 330 442 289 431Z"  horiz-adv-x="545" vert-adv-y="1000"  />

      
      <glyph glyph-name="uni013B" unicode="&#x013B;" d="M187 116L187 700L54 700L54 0L517 0L517 116ZM203-344C271-343 344-325 344-184L344-35L203-35L203-183L258-183L258-214C258-259 244-293 203-304Z"  horiz-adv-x="545" vert-adv-y="1000"  />

      
      <glyph glyph-name="uni0141" unicode="&#x0141;" d="M210 116L210 346L297 438L297 568L296 568L210 477L210 700L77 700L77 337L14 271L14 140L77 206L77 0L540 0L540 116Z"  horiz-adv-x="568" vert-adv-y="1000"  />

      
      <glyph glyph-name="uni4d" unicode="&#x4d;" d="M54 700L54 0L187 0L187 471L192 471L372 0L472 0L651 471L656 471L656 0L790 0L790 700L636 700L422 176L208 700Z"  horiz-adv-x="843" vert-adv-y="1000"  />

      
      <glyph glyph-name="uni4e" unicode="&#x4e;" d="M633 700L499 700L499 213L495 213L191 700L54 700L54 0L187 0L187 479L191 479L490 0L633 0Z"  horiz-adv-x="686" vert-adv-y="1000"  />

      
      <glyph glyph-name="uni0143" unicode="&#x0143;" d="M277 761L359 889L499 889L386 761ZM633 700L499 700L499 213L495 213L191 700L54 700L54 0L187 0L187 479L191 479L490 0L633 0Z"  horiz-adv-x="686" vert-adv-y="1000"  />

      
      <glyph glyph-name="uni0147" unicode="&#x0147;" d="M434 880L343 799L252 880L151 880L225 742L460 742L534 880ZM633 700L499 700L499 213L495 213L191 700L54 700L54 0L187 0L187 479L191 479L490 0L633 0Z"  horiz-adv-x="686" vert-adv-y="1000"  />

      
      <glyph glyph-name="uni0145" unicode="&#x0145;" d="M633 700L499 700L499 213L495 213L191 700L54 700L54 0L187 0L187 479L191 479L490 0L633 0ZM274-339C342-338 415-320 415-179L415-30L274-30L274-178L329-178L329-209C329-254 315-288 274-299Z"  horiz-adv-x="686" vert-adv-y="1000"  />

      
      <glyph glyph-name="uni014A" unicode="&#x014A;" d="M499 700L499 212L495 212L191 700L54 700L54 0L187 0L187 479L191 479L496-8C483-85 434-104 384-104C316-104 275-72 251-45L180-128C221-177 289-220 385-220C517-220 633-152 633 27L633 700Z"  horiz-adv-x="686" vert-adv-y="1000"  />

      
      <glyph glyph-name="unid1" unicode="&#xd1;" d="M494 880C495 861 475 846 450 846C381 846 342 923 265 923C190 923 149 870 149 801L201 801C200 819 220 834 245 834C314 834 353 758 430 758C504 758 546 810 546 880ZM633 700L499 700L499 213L495 213L191 700L54 700L54 0L187 0L187 479L191 479L490 0L633 0Z"  horiz-adv-x="686" vert-adv-y="1000"  />

      
      <glyph glyph-name="uni4f" unicode="&#x4f;" d="M366 709C170 709 39 579 39 350C39 122 170-9 366-9C563-9 694 122 694 350C694 579 563 709 366 709ZM366 107C249 107 179 196 179 350C179 505 249 593 366 593C484 593 554 505 554 350C554 196 484 107 366 107Z"  horiz-adv-x="733" vert-adv-y="1000"  />

      
      <glyph glyph-name="unid3" unicode="&#xd3;" d="M299 761L381 889L521 889L408 761ZM366 709C170 709 39 579 39 350C39 122 170-9 366-9C563-9 694 122 694 350C694 579 563 709 366 709ZM366 107C249 107 179 196 179 350C179 505 249 593 366 593C484 593 554 505 554 350C554 196 484 107 366 107Z"  horiz-adv-x="733" vert-adv-y="1000"  />

      
      <glyph glyph-name="uni01D1" unicode="&#x01D1;" d="M456 880L365 799L274 880L173 880L247 742L482 742L556 880ZM366 709C170 709 39 579 39 350C39 122 170-9 366-9C563-9 694 122 694 350C694 579 563 709 366 709ZM366 107C249 107 179 196 179 350C179 505 249 593 366 593C484 593 554 505 554 350C554 196 484 107 366 107Z"  horiz-adv-x="733" vert-adv-y="1000"  />

      
      <glyph glyph-name="unid4" unicode="&#xd4;" d="M457 751L557 751L483 889L248 889L174 751L275 751L366 832ZM366 709C170 709 39 579 39 350C39 122 170-9 366-9C563-9 694 122 694 350C694 579 563 709 366 709ZM366 107C249 107 179 196 179 350C179 505 249 593 366 593C484 593 554 505 554 350C554 196 484 107 366 107Z"  horiz-adv-x="733" vert-adv-y="1000"  />

      
      <glyph glyph-name="unid6" unicode="&#xd6;" d="M186 889L186 785L317 785L317 889ZM415 889L415 785L545 785L545 889ZM366 709C170 709 39 579 39 350C39 122 170-9 366-9C563-9 694 122 694 350C694 579 563 709 366 709ZM366 107C249 107 179 196 179 350C179 505 249 593 366 593C484 593 554 505 554 350C554 196 484 107 366 107Z"  horiz-adv-x="733" vert-adv-y="1000"  />

      
      <glyph glyph-name="unid2" unicode="&#xd2;" d="M430 761L321 761L208 889L348 889ZM366 709C170 709 39 579 39 350C39 122 170-9 366-9C563-9 694 122 694 350C694 579 563 709 366 709ZM366 107C249 107 179 196 179 350C179 505 249 593 366 593C484 593 554 505 554 350C554 196 484 107 366 107Z"  horiz-adv-x="733" vert-adv-y="1000"  />

      
      <glyph glyph-name="uni0150" unicode="&#x0150;" d="M239 761L321 889L461 889L348 761ZM436 761L518 889L658 889L545 761ZM366 709C170 709 39 579 39 350C39 122 170-9 366-9C563-9 694 122 694 350C694 579 563 709 366 709ZM366 107C249 107 179 196 179 350C179 505 249 593 366 593C484 593 554 505 554 350C554 196 484 107 366 107Z"  horiz-adv-x="733" vert-adv-y="1000"  />

      
      <glyph glyph-name="uni014C" unicode="&#x014C;" d="M192 889L192 814L539 814L539 889ZM366 709C170 709 39 579 39 350C39 122 170-9 366-9C563-9 694 122 694 350C694 579 563 709 366 709ZM366 107C249 107 179 196 179 350C179 505 249 593 366 593C484 593 554 505 554 350C554 196 484 107 366 107Z"  horiz-adv-x="733" vert-adv-y="1000"  />

      
      <glyph glyph-name="uni01EA" unicode="&#x01EA;" d="M429-4C590 21 694 147 694 350C694 579 563 709 366 709C170 709 39 579 39 350C39 141 150 13 319-6C257-24 190-69 190-133C190-237 333-232 398-198L398-143C346-159 311-150 311-110C311-78 334-34 429-4ZM179 350C179 505 249 593 366 593C484 593 554 505 554 350C554 196 484 107 366 107C249 107 179 196 179 350Z"  horiz-adv-x="733" vert-adv-y="1000"  />

      
      <glyph glyph-name="unid8" unicode="&#xd8;" d="M566 649L612 745L469 745L448 701C422 706 395 709 366 709C170 709 39 579 39 350C39 225 78 130 146 69L89-50L232-50L259 6C292-4 328-9 366-9C563-9 694 122 694 350C694 488 647 590 566 649ZM179 350C179 505 249 593 366 593C376 593 386 592 395 591L209 202C190 240 179 290 179 350ZM366 107C346 107 328 110 311 115L507 526C538 484 554 425 554 350C554 196 484 107 366 107Z"  horiz-adv-x="733" vert-adv-y="1000"  />

      
      <glyph glyph-name="unid5" unicode="&#xd5;" d="M516 880C517 861 497 846 472 846C403 846 364 923 287 923C212 923 171 870 171 801L223 801C222 819 242 834 267 834C336 834 375 758 452 758C526 758 568 810 568 880ZM366 709C170 709 39 579 39 350C39 122 170-9 366-9C563-9 694 122 694 350C694 579 563 709 366 709ZM366 107C249 107 179 196 179 350C179 505 249 593 366 593C484 593 554 505 554 350C554 196 484 107 366 107Z"  horiz-adv-x="733" vert-adv-y="1000"  />

      
      <glyph glyph-name="uni0152" unicode="&#x0152;" d="M692 116L692 302L990 302L990 410L692 410L692 584L1040 584L1040 700L559 700L559 654C507 690 441 709 366 709C170 709 39 579 39 350C39 122 170-9 366-9C441-9 507 10 559 46L559 0L1050 0L1050 116ZM366 107C249 107 179 196 179 350C179 505 249 593 366 593C484 593 554 505 554 350C554 196 484 107 366 107Z"  horiz-adv-x="1080" vert-adv-y="1000"  />

      
      <glyph glyph-name="uni50" unicode="&#x50;" d="M326 700L54 700L54 0L187 0L187 224L326 224C507 224 591 319 591 462C591 604 507 700 326 700ZM326 340L187 340L187 584L326 584C407 584 448 538 448 462C448 385 407 340 326 340Z"  horiz-adv-x="619" vert-adv-y="1000"  />

      
      <glyph glyph-name="unide" unicode="&#xde;" d="M336 565L182 565L182 700L54 700L54 0L182 0L182 139L336 139C517 139 601 204 601 352C601 490 517 565 336 565ZM338 249L182 249L182 455L338 455C415 455 473 435 473 352C473 260 415 249 338 249Z"  horiz-adv-x="629" vert-adv-y="1000"  />

      
      <glyph glyph-name="uni51" unicode="&#x51;" d="M694 350C694 579 563 709 366 709C170 709 39 579 39 350C39 122 170-9 366-9C435-9 496 7 547 38L604-20L683 55L626 112C670 172 694 252 694 350ZM366 107C249 107 179 196 179 350C179 505 249 593 366 593C484 593 554 505 554 350C554 295 545 249 528 211L429 312L350 237L457 129C431 115 400 107 366 107Z"  horiz-adv-x="728" vert-adv-y="1000"  />

      
      <glyph glyph-name="uni52" unicode="&#x52;" d="M608 117L608 171C608 244 579 291 502 323C557 355 603 404 603 492C603 611 526 700 348 700L54 700L54 0L187 0L187 262L370 262C431 262 474 231 474 167L474 117C474 57 478 27 494 0L628 0C612 27 608 57 608 117ZM347 369L187 369L187 584L345 584C423 584 465 550 465 480C465 407 429 369 347 369Z"  horiz-adv-x="656" vert-adv-y="1000"  />

      
      <glyph glyph-name="uni0154" unicode="&#x0154;" d="M447 889L307 889L225 761L334 761ZM608 117L608 171C608 244 579 291 502 323C557 355 603 404 603 492C603 611 526 700 348 700L54 700L54 0L187 0L187 262L370 262C431 262 474 231 474 167L474 117C474 57 478 27 494 0L628 0C612 27 608 57 608 117ZM347 369L187 369L187 584L345 584C423 584 465 550 465 480C465 407 429 369 347 369Z"  horiz-adv-x="656" vert-adv-y="1000"  />

      
      <glyph glyph-name="uni0158" unicode="&#x0158;" d="M408 742L482 880L382 880L291 799L200 880L99 880L173 742ZM608 117L608 171C608 244 579 291 502 323C557 355 603 404 603 492C603 611 526 700 348 700L54 700L54 0L187 0L187 262L370 262C431 262 474 231 474 167L474 117C474 57 478 27 494 0L628 0C612 27 608 57 608 117ZM347 369L187 369L187 584L345 584C423 584 465 550 465 480C465 407 429 369 347 369Z"  horiz-adv-x="656" vert-adv-y="1000"  />

      
      <glyph glyph-name="uni0156" unicode="&#x0156;" d="M608 117L608 171C608 244 579 291 502 323C557 355 603 404 603 492C603 611 526 700 348 700L54 700L54 0L187 0L187 262L370 262C431 262 474 231 474 167L474 117C474 57 478 27 494 0L628 0C612 27 608 57 608 117ZM347 369L187 369L187 584L345 584C423 584 465 550 465 480C465 407 429 369 347 369ZM222-178L277-178L277-209C277-254 263-288 222-299L222-339C290-338 363-320 363-179L363-30L222-30Z"  horiz-adv-x="656" vert-adv-y="1000"  />

      
      <glyph glyph-name="uni53" unicode="&#x53;" d="M382 401L277 421C211 434 191 468 191 507C191 547 225 598 310 598C391 598 434 563 443 502L581 502C568 636 466 709 310 709C152 709 54 628 54 511C54 387 139 337 256 315L351 297C422 283 461 260 461 200C461 146 410 102 321 102C225 102 188 157 177 222L39 222C49 77 151-9 320-9C480-9 600 65 600 199C600 316 533 370 382 401Z"  horiz-adv-x="638" vert-adv-y="1000"  />

      
      <glyph glyph-name="uni015A" unicode="&#x015A;" d="M244 761L326 889L466 889L353 761ZM382 401L277 421C211 434 191 468 191 507C191 547 225 598 310 598C391 598 434 563 443 502L581 502C568 636 466 709 310 709C152 709 54 628 54 511C54 387 139 337 256 315L351 297C422 283 461 260 461 200C461 146 410 102 321 102C225 102 188 157 177 222L39 222C49 77 151-9 320-9C480-9 600 65 600 199C600 316 533 370 382 401Z"  horiz-adv-x="638" vert-adv-y="1000"  />

      
      <glyph glyph-name="uni0160" unicode="&#x0160;" d="M401 880L310 799L219 880L118 880L192 742L427 742L501 880ZM382 401L277 421C211 434 191 468 191 507C191 547 225 598 310 598C391 598 434 563 443 502L581 502C568 636 466 709 310 709C152 709 54 628 54 511C54 387 139 337 256 315L351 297C422 283 461 260 461 200C461 146 410 102 321 102C225 102 188 157 177 222L39 222C49 77 151-9 320-9C480-9 600 65 600 199C600 316 533 370 382 401Z"  horiz-adv-x="638" vert-adv-y="1000"  />

      
      <glyph glyph-name="uni015E" unicode="&#x015E;" d="M600 199C600 316 533 370 382 401L277 421C211 434 191 468 191 507C191 547 225 598 310 598C391 598 434 563 443 502L581 502C568 636 466 709 310 709C152 709 54 628 54 511C54 387 139 337 256 315L351 297C422 283 461 260 461 200C461 146 410 102 321 102C225 102 188 157 177 222L39 222C48 97 125 15 255-4L210-80L241-130C272-104 309-115 309-146C309-177 278-190 217-191L217-244C320-244 407-229 407-143C407-86 359-58 309-58L357-8C498 3 600 75 600 199Z"  horiz-adv-x="638" vert-adv-y="1000"  />

      
      <glyph glyph-name="uni0218" unicode="&#x0218;" d="M382 401L277 421C211 434 191 468 191 507C191 547 225 598 310 598C391 598 434 563 443 502L581 502C568 636 466 709 310 709C152 709 54 628 54 511C54 387 139 337 256 315L351 297C422 283 461 260 461 200C461 146 410 102 321 102C225 102 188 157 177 222L39 222C49 77 151-9 320-9C480-9 600 65 600 199C600 316 533 370 382 401ZM240-339C308-338 381-320 381-179L381-30L240-30L240-178L295-178L295-209C295-254 281-288 240-299Z"  horiz-adv-x="638" vert-adv-y="1000"  />

      
      <glyph glyph-name="uni1E9E" unicode="&#x1E9E;" d="M458 439L621 710L254 710C119 710 54 655 54 520L54 0L187 0L187 507C187 566 207 594 267 594L424 594L281 334C435 340 537 286 537 204C537 158 511 106 446 106C380 106 357 161 357 205L228 205C228 72 290-10 446-10C593-10 677 76 677 206C677 348 575 422 458 439Z"  horiz-adv-x="715" vert-adv-y="1000"  />

      
      <glyph glyph-name="uni54" unicode="&#x54;" d="M571 700L24 700L24 584L230 584L230 0L364 0L364 584L571 584Z"  horiz-adv-x="595" vert-adv-y="1000"  />

      
      <glyph glyph-name="uni0166" unicode="&#x0166;" d="M571 584L571 700L24 700L24 584L230 584L230 494L125 494L125 419L230 419L230 0L364 0L364 419L472 419L472 494L364 494L364 584Z"  horiz-adv-x="595" vert-adv-y="1000"  />

      
      <glyph glyph-name="uni0164" unicode="&#x0164;" d="M413 742L487 880L387 880L296 799L205 880L104 880L178 742ZM571 700L24 700L24 584L230 584L230 0L364 0L364 584L571 584Z"  horiz-adv-x="595" vert-adv-y="1000"  />

      
      <glyph glyph-name="uni0162" unicode="&#x0162;" d="M364 0L364 584L571 584L571 700L24 700L24 584L230 584L230 0L182-81L213-131C244-105 281-116 281-147C281-178 250-191 189-192L189-245C292-245 379-230 379-144C379-87 331-59 281-59L337 0Z"  horiz-adv-x="595" vert-adv-y="1000"  />

      
      <glyph glyph-name="uni021A" unicode="&#x021A;" d="M571 700L24 700L24 584L230 584L230 0L364 0L364 584L571 584ZM212-179L267-179L267-210C267-255 253-289 212-300L212-340C280-339 353-321 353-180L353-31L212-31Z"  horiz-adv-x="595" vert-adv-y="1000"  />

      
      <glyph glyph-name="uni55" unicode="&#x55;" d="M620 270L620 700L486 700L486 275C486 163 431 107 337 107C243 107 187 163 187 275L187 700L54 700L54 270C54 92 167-9 337-9C506-9 620 92 620 270Z"  horiz-adv-x="674" vert-adv-y="1000"  />

      
      <glyph glyph-name="unida" unicode="&#xda;" d="M261 761L343 889L483 889L370 761ZM620 270L620 700L486 700L486 275C486 163 431 107 337 107C243 107 187 163 187 275L187 700L54 700L54 270C54 92 167-9 337-9C506-9 620 92 620 270Z"  horiz-adv-x="674" vert-adv-y="1000"  />

      
      <glyph glyph-name="uni016C" unicode="&#x016C;" d="M409 889C402 847 378 827 328 827C278 827 254 847 248 889L164 889C164 801 217 742 328 742C439 742 492 801 492 889ZM620 270L620 700L486 700L486 275C486 163 431 107 337 107C243 107 187 163 187 275L187 700L54 700L54 270C54 92 167-9 337-9C506-9 620 92 620 270Z"  horiz-adv-x="674" vert-adv-y="1000"  />

      
      <glyph glyph-name="uni01D3" unicode="&#x01D3;" d="M418 880L327 799L236 880L135 880L209 742L444 742L518 880ZM620 270L620 700L486 700L486 275C486 163 431 107 337 107C243 107 187 163 187 275L187 700L54 700L54 270C54 92 167-9 337-9C506-9 620 92 620 270Z"  horiz-adv-x="674" vert-adv-y="1000"  />

      
      <glyph glyph-name="unidb" unicode="&#xdb;" d="M419 751L519 751L445 889L210 889L136 751L237 751L328 832ZM620 270L620 700L486 700L486 275C486 163 431 107 337 107C243 107 187 163 187 275L187 700L54 700L54 270C54 92 167-9 337-9C506-9 620 92 620 270Z"  horiz-adv-x="674" vert-adv-y="1000"  />

      
      <glyph glyph-name="unidc" unicode="&#xdc;" d="M148 889L148 785L279 785L279 889ZM377 889L377 785L507 785L507 889ZM620 270L620 700L486 700L486 275C486 163 431 107 337 107C243 107 187 163 187 275L187 700L54 700L54 270C54 92 167-9 337-9C506-9 620 92 620 270Z"  horiz-adv-x="674" vert-adv-y="1000"  />

      
      <glyph glyph-name="unid9" unicode="&#xd9;" d="M392 761L283 761L170 889L310 889ZM620 270L620 700L486 700L486 275C486 163 431 107 337 107C243 107 187 163 187 275L187 700L54 700L54 270C54 92 167-9 337-9C506-9 620 92 620 270Z"  horiz-adv-x="674" vert-adv-y="1000"  />

      
      <glyph glyph-name="uni0170" unicode="&#x0170;" d="M201 761L283 889L423 889L310 761ZM398 761L480 889L620 889L507 761ZM620 270L620 700L486 700L486 275C486 163 431 107 337 107C243 107 187 163 187 275L187 700L54 700L54 270C54 92 167-9 337-9C506-9 620 92 620 270Z"  horiz-adv-x="674" vert-adv-y="1000"  />

      
      <glyph glyph-name="uni016A" unicode="&#x016A;" d="M154 889L154 814L501 814L501 889ZM620 270L620 700L486 700L486 275C486 163 431 107 337 107C243 107 187 163 187 275L187 700L54 700L54 270C54 92 167-9 337-9C506-9 620 92 620 270Z"  horiz-adv-x="674" vert-adv-y="1000"  />

      
      <glyph glyph-name="uni0172" unicode="&#x0172;" d="M486 700L486 275C486 163 431 107 337 107C243 107 187 163 187 275L187 700L54 700L54 270C54 106 150 7 298-7C237-25 171-69 171-133C171-237 314-232 379-198L379-143C327-159 292-150 292-110C292-76 317-30 424 0L420 0C542 28 620 123 620 270L620 700Z"  horiz-adv-x="674" vert-adv-y="1000"  />

      
      <glyph glyph-name="uni016E" unicode="&#x016E;" d="M328 760C380 760 424 802 424 856C424 909 380 952 328 952C275 952 231 909 231 856C231 802 275 760 328 760ZM328 816C306 816 288 832 288 856C288 880 306 895 328 895C349 895 367 880 367 856C367 832 349 816 328 816ZM620 270L620 700L486 700L486 275C486 163 431 107 337 107C243 107 187 163 187 275L187 700L54 700L54 270C54 92 167-9 337-9C506-9 620 92 620 270Z"  horiz-adv-x="674" vert-adv-y="1000"  />

      
      <glyph glyph-name="uni0168" unicode="&#x0168;" d="M478 880C479 861 459 846 434 846C365 846 326 923 249 923C174 923 133 870 133 801L185 801C184 819 204 834 229 834C298 834 337 758 414 758C488 758 530 810 530 880ZM620 270L620 700L486 700L486 275C486 163 431 107 337 107C243 107 187 163 187 275L187 700L54 700L54 270C54 92 167-9 337-9C506-9 620 92 620 270Z"  horiz-adv-x="674" vert-adv-y="1000"  />

      
      <glyph glyph-name="uni56" unicode="&#x56;" d="M541 700L351 167L162 700L19 700L291 0L411 0L684 700Z"  horiz-adv-x="702" vert-adv-y="1000"  />

      
      <glyph glyph-name="uni57" unicode="&#x57;" d="M857 700L726 202L576 700L445 700L295 202L163 700L24 700L225 0L349 0L510 497L672 0L796 0L997 700Z"  horiz-adv-x="1020" vert-adv-y="1000"  />

      
      <glyph glyph-name="uni1E82" unicode="&#x1E82;" d="M443 761L525 889L665 889L552 761ZM857 700L726 202L576 700L445 700L295 202L163 700L24 700L225 0L349 0L510 497L672 0L796 0L997 700Z"  horiz-adv-x="1020" vert-adv-y="1000"  />

      
      <glyph glyph-name="uni0174" unicode="&#x0174;" d="M601 751L701 751L627 889L392 889L318 751L419 751L510 832ZM857 700L726 202L576 700L445 700L295 202L163 700L24 700L225 0L349 0L510 497L672 0L796 0L997 700Z"  horiz-adv-x="1020" vert-adv-y="1000"  />

      
      <glyph glyph-name="uni1E84" unicode="&#x1E84;" d="M330 889L330 785L461 785L461 889ZM559 889L559 785L689 785L689 889ZM857 700L726 202L576 700L445 700L295 202L163 700L24 700L225 0L349 0L510 497L672 0L796 0L997 700Z"  horiz-adv-x="1020" vert-adv-y="1000"  />

      
      <glyph glyph-name="uni1E80" unicode="&#x1E80;" d="M574 761L465 761L352 889L492 889ZM857 700L726 202L576 700L445 700L295 202L163 700L24 700L225 0L349 0L510 497L672 0L796 0L997 700Z"  horiz-adv-x="1020" vert-adv-y="1000"  />

      
      <glyph glyph-name="uni58" unicode="&#x58;" d="M650 0L409 361L635 700L485 700L334 473L183 700L33 700L259 361L19 0L169 0L334 248L500 0Z"  horiz-adv-x="668" vert-adv-y="1000"  />

      
      <glyph glyph-name="uni59" unicode="&#x59;" d="M414 262L667 700L517 700L345 391L174 700L24 700L276 262L276 0L414 0Z"  horiz-adv-x="690" vert-adv-y="1000"  />

      
      <glyph glyph-name="unidd" unicode="&#xdd;" d="M278 761L360 889L500 889L387 761ZM414 262L667 700L517 700L345 391L174 700L24 700L276 262L276 0L414 0Z"  horiz-adv-x="690" vert-adv-y="1000"  />

      
      <glyph glyph-name="uni0176" unicode="&#x0176;" d="M436 751L536 751L462 889L227 889L153 751L254 751L345 832ZM414 262L667 700L517 700L345 391L174 700L24 700L276 262L276 0L414 0Z"  horiz-adv-x="690" vert-adv-y="1000"  />

      
      <glyph glyph-name="uni0178" unicode="&#x0178;" d="M165 889L165 785L296 785L296 889ZM394 889L394 785L524 785L524 889ZM414 262L667 700L517 700L345 391L174 700L24 700L276 262L276 0L414 0Z"  horiz-adv-x="690" vert-adv-y="1000"  />

      
      <glyph glyph-name="uni1EF2" unicode="&#x1EF2;" d="M409 761L300 761L187 889L327 889ZM414 262L667 700L517 700L345 391L174 700L24 700L276 262L276 0L414 0Z"  horiz-adv-x="690" vert-adv-y="1000"  />

      
      <glyph glyph-name="uni5a" unicode="&#x5a;" d="M579 116L194 116L575 597L575 700L51 700L51 584L419 584L40 103L40 0L579 0Z"  horiz-adv-x="619" vert-adv-y="1000"  />

      
      <glyph glyph-name="uni0179" unicode="&#x0179;" d="M251 761L333 889L473 889L360 761ZM579 116L194 116L575 597L575 700L51 700L51 584L419 584L40 103L40 0L579 0Z"  horiz-adv-x="619" vert-adv-y="1000"  />

      
      <glyph glyph-name="uni017D" unicode="&#x017D;" d="M408 880L317 799L226 880L125 880L199 742L434 742L508 880ZM579 116L194 116L575 597L575 700L51 700L51 584L419 584L40 103L40 0L579 0Z"  horiz-adv-x="619" vert-adv-y="1000"  />

      
      <glyph glyph-name="uni017B" unicode="&#x017B;" d="M253 889L253 785L384 785L384 889ZM579 116L194 116L575 597L575 700L51 700L51 584L419 584L40 103L40 0L579 0Z"  horiz-adv-x="619" vert-adv-y="1000"  />

      
      <glyph glyph-name="uni61" unicode="&#x61;" d="M497 122L497 313C497 463 433 525 276 525C143 525 68 471 59 367L179 367C187 414 223 431 275 431C323 431 369 417 369 343L369 341C338 323 277 316 218 306C116 288 29 262 29 152C29 40 111-7 203-7C327-7 373 73 382 89L382 76C382 21 427-4 487-4C506-4 519-3 534 4L534 78C510 79 497 93 497 122ZM369 164C357 144 317 85 237 85C182 85 157 118 157 156C157 196 178 217 237 230C290 241 334 247 369 264Z"  horiz-adv-x="553" vert-adv-y="1000"  />

      
      <glyph glyph-name="unie1" unicode="&#xe1;" d="M432 709L292 709L210 581L319 581ZM497 122L497 313C497 463 433 525 276 525C143 525 68 471 59 367L179 367C187 414 223 431 275 431C323 431 369 417 369 343L369 341C338 323 277 316 218 306C116 288 29 262 29 152C29 40 111-7 203-7C327-7 373 73 382 89L382 76C382 21 427-4 487-4C506-4 519-3 534 4L534 78C510 79 497 93 497 122ZM369 164C357 144 317 85 237 85C182 85 157 118 157 156C157 196 178 217 237 230C290 241 334 247 369 264Z"  horiz-adv-x="553" vert-adv-y="1000"  />

      
      <glyph glyph-name="uni0103" unicode="&#x0103;" d="M277 562C388 562 441 621 441 709L358 709C351 667 327 647 277 647C227 647 203 667 197 709L113 709C113 621 166 562 277 562ZM497 122L497 313C497 463 433 525 276 525C143 525 68 471 59 367L179 367C187 414 223 431 275 431C323 431 369 417 369 343L369 341C338 323 277 316 218 306C116 288 29 262 29 152C29 40 111-7 203-7C327-7 373 73 382 89L382 76C382 21 427-4 487-4C506-4 519-3 534 4L534 78C510 79 497 93 497 122ZM369 164C357 144 317 85 237 85C182 85 157 118 157 156C157 196 178 217 237 230C290 241 334 247 369 264Z"  horiz-adv-x="553" vert-adv-y="1000"  />

      
      <glyph glyph-name="uni01CE" unicode="&#x01CE;" d="M393 562L467 700L367 700L276 619L185 700L84 700L158 562ZM497 122L497 313C497 463 433 525 276 525C143 525 68 471 59 367L179 367C187 414 223 431 275 431C323 431 369 417 369 343L369 341C338 323 277 316 218 306C116 288 29 262 29 152C29 40 111-7 203-7C327-7 373 73 382 89L382 76C382 21 427-4 487-4C506-4 519-3 534 4L534 78C510 79 497 93 497 122ZM369 164C357 144 317 85 237 85C182 85 157 118 157 156C157 196 178 217 237 230C290 241 334 247 369 264Z"  horiz-adv-x="553" vert-adv-y="1000"  />

      
      <glyph glyph-name="unie2" unicode="&#xe2;" d="M277 652L368 571L468 571L394 709L159 709L85 571L186 571ZM497 122L497 313C497 463 433 525 276 525C143 525 68 471 59 367L179 367C187 414 223 431 275 431C323 431 369 417 369 343L369 341C338 323 277 316 218 306C116 288 29 262 29 152C29 40 111-7 203-7C327-7 373 73 382 89L382 76C382 21 427-4 487-4C506-4 519-3 534 4L534 78C510 79 497 93 497 122ZM369 164C357 144 317 85 237 85C182 85 157 118 157 156C157 196 178 217 237 230C290 241 334 247 369 264Z"  horiz-adv-x="553" vert-adv-y="1000"  />

      
      <glyph glyph-name="unie4" unicode="&#xe4;" d="M228 709L97 709L97 605L228 605ZM456 709L326 709L326 605L456 605ZM497 122L497 313C497 463 433 525 276 525C143 525 68 471 59 367L179 367C187 414 223 431 275 431C323 431 369 417 369 343L369 341C338 323 277 316 218 306C116 288 29 262 29 152C29 40 111-7 203-7C327-7 373 73 382 89L382 76C382 21 427-4 487-4C506-4 519-3 534 4L534 78C510 79 497 93 497 122ZM369 164C357 144 317 85 237 85C182 85 157 118 157 156C157 196 178 217 237 230C290 241 334 247 369 264Z"  horiz-adv-x="553" vert-adv-y="1000"  />

      
      <glyph glyph-name="unie0" unicode="&#xe0;" d="M341 581L259 709L119 709L232 581ZM497 122L497 313C497 463 433 525 276 525C143 525 68 471 59 367L179 367C187 414 223 431 275 431C323 431 369 417 369 343L369 341C338 323 277 316 218 306C116 288 29 262 29 152C29 40 111-7 203-7C327-7 373 73 382 89L382 76C382 21 427-4 487-4C506-4 519-3 534 4L534 78C510 79 497 93 497 122ZM369 164C357 144 317 85 237 85C182 85 157 118 157 156C157 196 178 217 237 230C290 241 334 247 369 264Z"  horiz-adv-x="553" vert-adv-y="1000"  />

      
      <glyph glyph-name="uni0101" unicode="&#x0101;" d="M450 709L103 709L103 634L450 634ZM497 122L497 313C497 463 433 525 276 525C143 525 68 471 59 367L179 367C187 414 223 431 275 431C323 431 369 417 369 343L369 341C338 323 277 316 218 306C116 288 29 262 29 152C29 40 111-7 203-7C327-7 373 73 382 89L382 76C382 21 427-4 487-4C506-4 519-3 534 4L534 78C510 79 497 93 497 122ZM369 164C357 144 317 85 237 85C182 85 157 118 157 156C157 196 178 217 237 230C290 241 334 247 369 264Z"  horiz-adv-x="553" vert-adv-y="1000"  />

      
      <glyph glyph-name="uni0105" unicode="&#x0105;" d="M534 78C510 79 497 93 497 122L497 313C497 463 433 525 276 525C143 525 68 471 59 367L179 367C187 414 223 431 275 431C323 431 369 417 369 343L369 341C338 323 277 316 218 306C116 288 29 262 29 152C29 40 111-7 203-7C327-7 373 73 382 89L382 76C382 35 407 11 444 1L436 1C368-9 277-57 277-132C277-236 420-231 485-197L485-142C433-158 398-149 398-109C398-75 423-29 530 1L527 1L534 4ZM369 164C357 144 317 85 237 85C182 85 157 118 157 156C157 196 178 217 237 230C290 241 334 247 369 264Z"  horiz-adv-x="553" vert-adv-y="1000"  />

      
      <glyph glyph-name="unie5" unicode="&#xe5;" d="M277 580C329 580 373 622 373 676C373 729 329 772 277 772C224 772 180 729 180 676C180 622 224 580 277 580ZM277 715C298 715 316 700 316 676C316 652 298 636 277 636C255 636 237 652 237 676C237 700 255 715 277 715ZM497 122L497 313C497 463 433 525 276 525C143 525 68 471 59 367L179 367C187 414 223 431 275 431C323 431 369 417 369 343L369 341C338 323 277 316 218 306C116 288 29 262 29 152C29 40 111-7 203-7C327-7 373 73 382 89L382 76C382 21 427-4 487-4C506-4 519-3 534 4L534 78C510 79 497 93 497 122ZM369 164C357 144 317 85 237 85C182 85 157 118 157 156C157 196 178 217 237 230C290 241 334 247 369 264Z"  horiz-adv-x="553" vert-adv-y="1000"  />

      
      <glyph glyph-name="unie3" unicode="&#xe3;" d="M178 654C247 654 286 578 363 578C437 578 479 630 479 700L427 700C428 681 408 666 383 666C314 666 275 743 198 743C123 743 82 690 82 621L134 621C133 639 153 654 178 654ZM497 122L497 313C497 463 433 525 276 525C143 525 68 471 59 367L179 367C187 414 223 431 275 431C323 431 369 417 369 343L369 341C338 323 277 316 218 306C116 288 29 262 29 152C29 40 111-7 203-7C327-7 373 73 382 89L382 76C382 21 427-4 487-4C506-4 519-3 534 4L534 78C510 79 497 93 497 122ZM369 164C357 144 317 85 237 85C182 85 157 118 157 156C157 196 178 217 237 230C290 241 334 247 369 264Z"  horiz-adv-x="553" vert-adv-y="1000"  />

      
      <glyph glyph-name="unie6" unicode="&#xe6;" d="M866 245C866 448 751 525 623 525C563 525 502 507 454 466C419 507 360 525 273 525C144 525 68 471 59 371L179 371C187 414 224 431 274 431C324 431 369 417 369 343L369 334C336 314 276 311 210 303C127 293 29 259 29 146C29 40 111-7 203-7C298-7 365 37 411 102C459 26 543-7 622-7C742-7 818 40 851 140L738 140C719 106 686 89 629 89C551 89 503 127 493 219L865 219C866 228 866 236 866 245ZM493 299C494 301 494 303 494 305L497 313L497 320C513 393 558 429 623 429C698 429 742 380 744 299ZM369 161C357 141 317 85 237 85C182 85 158 118 158 151C158 186 179 219 232 226C302 237 334 239 369 257Z"  horiz-adv-x="895" vert-adv-y="1000"  />

      
      <glyph glyph-name="uni62" unicode="&#x62;" d="M333 525C258 525 203 485 182 445L182 706L54 706L54 0L182 0L182 86C188 61 233-7 330-7C431-7 562 68 562 260C562 449 431 525 333 525ZM306 97C236 97 176 149 176 260C176 371 236 421 306 421C378 421 438 373 438 260C438 146 378 97 306 97Z"  horiz-adv-x="591" vert-adv-y="1000"  />

      
      <glyph glyph-name="uni63" unicode="&#x63;" d="M282 97C206 97 152 151 152 259C152 365 205 421 281 421C345 421 373 391 386 345L503 345C475 488 374 525 280 525C161 525 29 451 29 259C29 65 162-7 281-7C373-7 481 31 508 178L392 178C377 129 347 97 282 97Z"  horiz-adv-x="538" vert-adv-y="1000"  />

      
      <glyph glyph-name="uni0107" unicode="&#x0107;" d="M202 581L284 709L424 709L311 581ZM282 97C206 97 152 151 152 259C152 365 205 421 281 421C345 421 373 391 386 345L503 345C475 488 374 525 280 525C161 525 29 451 29 259C29 65 162-7 281-7C373-7 481 31 508 178L392 178C377 129 347 97 282 97Z"  horiz-adv-x="538" vert-adv-y="1000"  />

      
      <glyph glyph-name="uni010D" unicode="&#x010D;" d="M359 700L268 619L177 700L76 700L150 562L385 562L459 700ZM282 97C206 97 152 151 152 259C152 365 205 421 281 421C345 421 373 391 386 345L503 345C475 488 374 525 280 525C161 525 29 451 29 259C29 65 162-7 281-7C373-7 481 31 508 178L392 178C377 129 347 97 282 97Z"  horiz-adv-x="538" vert-adv-y="1000"  />

      
      <glyph glyph-name="unie7" unicode="&#xe7;" d="M508 178L392 178C377 129 347 97 282 97C206 97 152 151 152 259C152 365 205 421 281 421C345 421 373 391 386 345L503 345C475 488 374 525 280 525C161 525 29 451 29 259C29 96 122 20 223-1L176-80L207-130C238-104 275-115 275-146C275-177 244-190 183-191L183-244C286-244 373-229 373-143C373-86 325-58 275-58L327-4C406 8 485 55 508 178Z"  horiz-adv-x="538" vert-adv-y="1000"  />

      
      <glyph glyph-name="uni010B" unicode="&#x010B;" d="M204 709L204 605L335 605L335 709ZM282 97C206 97 152 151 152 259C152 365 205 421 281 421C345 421 373 391 386 345L503 345C475 488 374 525 280 525C161 525 29 451 29 259C29 65 162-7 281-7C373-7 481 31 508 178L392 178C377 129 347 97 282 97Z"  horiz-adv-x="538" vert-adv-y="1000"  />

      
      <glyph glyph-name="uni64" unicode="&#x64;" d="M258 525C160 525 29 449 29 260C29 68 160-7 261-7C358-7 403 61 409 86L409 0L537 0L537 706L409 706L409 445C388 485 333 525 258 525ZM285 97C213 97 153 146 153 260C153 373 213 421 285 421C355 421 415 371 415 260C415 149 355 97 285 97Z"  horiz-adv-x="591" vert-adv-y="1000"  />

      
      <glyph glyph-name="unif0" unicode="&#xf0;" d="M432 579L484 585L484 644L392 633C376 654 358 676 339 700L210 700C237 673 262 647 284 620L221 612L221 553L323 565C339 541 354 515 369 487C334 513 300 520 262 520C131 520 29 429 29 252C29 75 150-10 276-10C413-10 534 75 534 264C534 392 513 464 432 579ZM279 100C215 100 155 144 155 252C155 369 213 410 279 410C350 410 407 369 407 252C407 144 343 100 279 100Z"  horiz-adv-x="587" vert-adv-y="1000"  />

      
      <glyph glyph-name="uni010F" unicode="&#x010F;" d="M258 525C160 525 29 449 29 260C29 68 160-7 261-7C358-7 403 61 409 86L409 0L537 0L537 706L409 706L409 445C388 485 333 525 258 525ZM568 578L650 706L790 706L677 578ZM285 97C213 97 153 146 153 260C153 373 213 421 285 421C355 421 415 371 415 260C415 149 355 97 285 97Z"  horiz-adv-x="771" vert-adv-y="1000"  />

      
      <glyph glyph-name="uni0111" unicode="&#x0111;" d="M618 645L537 645L537 706L409 706L409 645L271 645L271 570L409 570L409 445C388 485 333 525 258 525C160 525 29 449 29 260C29 68 160-7 261-7C358-7 403 61 409 86L409 0L537 0L537 570L618 570ZM285 97C213 97 153 146 153 260C153 373 213 421 285 421C355 421 415 371 415 260C415 149 355 97 285 97Z"  horiz-adv-x="631" vert-adv-y="1000"  />

      
      <glyph glyph-name="uni65" unicode="&#x65;" d="M525 245C525 448 410 525 282 525C160 525 29 448 29 258C29 69 160-7 281-7C401-7 477 40 510 140L397 140C378 106 345 89 288 89C210 89 162 127 152 219L524 219C525 228 525 236 525 245ZM152 299C163 386 211 429 282 429C357 429 401 380 403 299Z"  horiz-adv-x="553" vert-adv-y="1000"  />

      
      <glyph glyph-name="unie9" unicode="&#xe9;" d="M435 709L295 709L213 581L322 581ZM525 245C525 448 410 525 282 525C160 525 29 448 29 258C29 69 160-7 281-7C401-7 477 40 510 140L397 140C378 106 345 89 288 89C210 89 162 127 152 219L524 219C525 228 525 236 525 245ZM152 299C163 386 211 429 282 429C357 429 401 380 403 299Z"  horiz-adv-x="553" vert-adv-y="1000"  />

      
      <glyph glyph-name="uni011B" unicode="&#x011B;" d="M396 562L470 700L370 700L279 619L188 700L87 700L161 562ZM525 245C525 448 410 525 282 525C160 525 29 448 29 258C29 69 160-7 281-7C401-7 477 40 510 140L397 140C378 106 345 89 288 89C210 89 162 127 152 219L524 219C525 228 525 236 525 245ZM152 299C163 386 211 429 282 429C357 429 401 380 403 299Z"  horiz-adv-x="553" vert-adv-y="1000"  />

      
      <glyph glyph-name="uniea" unicode="&#xea;" d="M280 652L371 571L471 571L397 709L162 709L88 571L189 571ZM525 245C525 448 410 525 282 525C160 525 29 448 29 258C29 69 160-7 281-7C401-7 477 40 510 140L397 140C378 106 345 89 288 89C210 89 162 127 152 219L524 219C525 228 525 236 525 245ZM152 299C163 386 211 429 282 429C357 429 401 380 403 299Z"  horiz-adv-x="553" vert-adv-y="1000"  />

      
      <glyph glyph-name="unieb" unicode="&#xeb;" d="M231 709L100 709L100 605L231 605ZM459 709L329 709L329 605L459 605ZM525 245C525 448 410 525 282 525C160 525 29 448 29 258C29 69 160-7 281-7C401-7 477 40 510 140L397 140C378 106 345 89 288 89C210 89 162 127 152 219L524 219C525 228 525 236 525 245ZM152 299C163 386 211 429 282 429C357 429 401 380 403 299Z"  horiz-adv-x="553" vert-adv-y="1000"  />

      
      <glyph glyph-name="uni0117" unicode="&#x0117;" d="M346 709L215 709L215 605L346 605ZM525 245C525 448 410 525 282 525C160 525 29 448 29 258C29 69 160-7 281-7C401-7 477 40 510 140L397 140C378 106 345 89 288 89C210 89 162 127 152 219L524 219C525 228 525 236 525 245ZM152 299C163 386 211 429 282 429C357 429 401 380 403 299Z"  horiz-adv-x="553" vert-adv-y="1000"  />

      
      <glyph glyph-name="unie8" unicode="&#xe8;" d="M344 581L262 709L122 709L235 581ZM525 245C525 448 410 525 282 525C160 525 29 448 29 258C29 69 160-7 281-7C401-7 477 40 510 140L397 140C378 106 345 89 288 89C210 89 162 127 152 219L524 219C525 228 525 236 525 245ZM152 299C163 386 211 429 282 429C357 429 401 380 403 299Z"  horiz-adv-x="553" vert-adv-y="1000"  />

      
      <glyph glyph-name="uni0113" unicode="&#x0113;" d="M453 709L106 709L106 634L453 634ZM525 245C525 448 410 525 282 525C160 525 29 448 29 258C29 69 160-7 281-7C401-7 477 40 510 140L397 140C378 106 345 89 288 89C210 89 162 127 152 219L524 219C525 228 525 236 525 245ZM152 299C163 386 211 429 282 429C357 429 401 380 403 299Z"  horiz-adv-x="553" vert-adv-y="1000"  />

      
      <glyph glyph-name="uni0119" unicode="&#x0119;" d="M525 245C525 448 410 525 282 525C160 525 29 448 29 258C29 87 136 9 245-5C181-20 106-66 106-134C106-238 249-233 314-199L314-144C262-160 227-151 227-111C227-77 252-31 359-1L349-1C430 15 484 61 510 140L397 140C378 106 345 89 288 89C210 89 162 127 152 219L524 219C525 228 525 236 525 245ZM152 299C163 386 211 429 282 429C357 429 401 380 403 299Z"  horiz-adv-x="553" vert-adv-y="1000"  />

      
      <glyph glyph-name="uni66" unicode="&#x66;" d="M285 617C303 617 321 614 332 611L332 705C317 711 283 716 255 716C185 716 94 704 94 550L94 520L20 520L20 419L94 419L94 0L222 0L222 419L328 419L328 520L222 520L222 547C222 597 237 617 285 617Z"  horiz-adv-x="352" vert-adv-y="1000"  />

      
      <glyph glyph-name="uni67" unicode="&#x67;" d="M405 523L405 445C384 485 329 525 254 525C158 525 29 449 29 260C29 69 158-6 257-6C354-6 398 61 405 86L405 11C405-79 361-115 269-115C197-115 158-86 135-59L55-109C90-176 174-220 282-220C382-220 533-182 533 11L533 523ZM284 98C214 98 156 148 156 260C156 372 214 421 284 421C354 421 411 371 411 260C411 149 354 98 284 98Z"  horiz-adv-x="587" vert-adv-y="1000"  />

      
      <glyph glyph-name="uni011F" unicode="&#x011F;" d="M274 562C385 562 438 621 438 709L355 709C348 667 324 647 274 647C224 647 200 667 194 709L110 709C110 621 163 562 274 562ZM405 523L405 445C384 485 329 525 254 525C158 525 29 449 29 260C29 69 158-6 257-6C354-6 398 61 405 86L405 11C405-79 361-115 269-115C197-115 158-86 135-59L55-109C90-176 174-220 282-220C382-220 533-182 533 11L533 523ZM284 98C214 98 156 148 156 260C156 372 214 421 284 421C354 421 411 371 411 260C411 149 354 98 284 98Z"  horiz-adv-x="587" vert-adv-y="1000"  />

      
      <glyph glyph-name="uni0123" unicode="&#x0123;" d="M333 715L278 715L278 746C278 791 292 825 333 836L333 876C265 875 192 857 192 716L192 567L333 567ZM405 523L405 445C384 485 329 525 254 525C158 525 29 449 29 260C29 69 158-6 257-6C354-6 398 61 405 86L405 11C405-79 361-115 269-115C197-115 158-86 135-59L55-109C90-176 174-220 282-220C382-220 533-182 533 11L533 523ZM284 98C214 98 156 148 156 260C156 372 214 421 284 421C354 421 411 371 411 260C411 149 354 98 284 98Z"  horiz-adv-x="587" vert-adv-y="1000"  />

      
      <glyph glyph-name="uni0121" unicode="&#x0121;" d="M340 709L209 709L209 605L340 605ZM405 523L405 445C384 485 329 525 254 525C158 525 29 449 29 260C29 69 158-6 257-6C354-6 398 61 405 86L405 11C405-79 361-115 269-115C197-115 158-86 135-59L55-109C90-176 174-220 282-220C382-220 533-182 533 11L533 523ZM284 98C214 98 156 148 156 260C156 372 214 421 284 421C354 421 411 371 411 260C411 149 354 98 284 98Z"  horiz-adv-x="587" vert-adv-y="1000"  />

      
      <glyph glyph-name="uni68" unicode="&#x68;" d="M354 525C253 525 196 449 182 412L182 706L54 706L54 0L182 0L182 311C188 349 227 419 307 419C367 419 411 389 411 307L411 0L539 0L539 314C539 471 459 525 354 525Z"  horiz-adv-x="592" vert-adv-y="1000"  />

      
      <glyph glyph-name="uni0127" unicode="&#x0127;" d="M387 525C286 525 229 449 215 412L215 525L306 525L306 614L215 614L215 706L87 706L87 614L14 614L14 525L87 525L87 0L215 0L215 311C221 349 260 419 340 419C400 419 444 389 444 307L444 0L572 0L572 314C572 471 492 525 387 525Z"  horiz-adv-x="625" vert-adv-y="1000"  />

      
      <glyph glyph-name="uni69" unicode="&#x69;" d="M54 709L54 608L182 608L182 709ZM54 520L54 0L182 0L182 520Z"  horiz-adv-x="235" vert-adv-y="1000"  />

      
      <glyph glyph-name="uni0131" unicode="&#x0131;" d="M54 520L54 0L182 0L182 520Z"  horiz-adv-x="235" vert-adv-y="1000"  />

      
      <glyph glyph-name="unied" unicode="&#xed;" d="M51 581L133 709L273 709L160 581ZM54 520L54 0L182 0L182 520Z"  horiz-adv-x="235" vert-adv-y="1000"  />

      
      <glyph glyph-name="uni01D0" unicode="&#x01D0;" d="M208 700L117 619L26 700L-75 700L-1 562L234 562L308 700ZM54 520L54 0L182 0L182 520Z"  horiz-adv-x="235" vert-adv-y="1000"  />

      
      <glyph glyph-name="uniee" unicode="&#xee;" d="M209 571L309 571L235 709L0 709L-74 571L27 571L118 652ZM54 520L54 0L182 0L182 520Z"  horiz-adv-x="235" vert-adv-y="1000"  />

      
      <glyph glyph-name="unief" unicode="&#xef;" d="M-62 709L-62 605L69 605L69 709ZM167 709L167 605L297 605L297 709ZM54 520L54 0L182 0L182 520Z"  horiz-adv-x="235" vert-adv-y="1000"  />

      
      <glyph glyph-name="uniec" unicode="&#xec;" d="M182 581L73 581L-40 709L100 709ZM54 520L54 0L182 0L182 520Z"  horiz-adv-x="235" vert-adv-y="1000"  />

      
      <glyph glyph-name="uni0133" unicode="&#x0133;" d="M54 709L54 608L182 608L182 709ZM290 709L290 608L418 608L418 709ZM54 520L54 0L182 0L182 520ZM161-97L161-201C190-214 227-220 265-220C357-220 418-172 418-64L418 520L290 520L290-44C290-74 279-110 232-110C216-110 192-107 161-97Z"  horiz-adv-x="471" vert-adv-y="1000"  />

      
      <glyph glyph-name="uni012B" unicode="&#x012B;" d="M-56 709L-56 634L291 634L291 709ZM54 520L54 0L182 0L182 520Z"  horiz-adv-x="235" vert-adv-y="1000"  />

      
      <glyph glyph-name="uni012F" unicode="&#x012F;" d="M53 709L53 605L184 605L184 709ZM54 0C-14-10-105-58-105-133C-105-237 38-232 103-198L103-143C51-159 16-150 16-110C16-76 41-30 148 0L182 0L182 520L54 520Z"  horiz-adv-x="235" vert-adv-y="1000"  />

      
      <glyph glyph-name="uni6a" unicode="&#x6a;" d="M65 709L65 608L193 608L193 709ZM-64-97L-64-201C-35-214 2-220 40-220C132-220 193-172 193-64L193 520L65 520L65-44C65-74 54-110 7-110C-9-110-33-107-64-97Z"  horiz-adv-x="246" vert-adv-y="1000"  />

      
      <glyph glyph-name="uni0237" unicode="&#x0237;" d="M-64-97L-64-201C-35-214 2-220 40-220C132-220 193-172 193-64L193 520L65 520L65-44C65-74 54-110 7-110C-9-110-33-107-64-97Z"  horiz-adv-x="246" vert-adv-y="1000"  />

      
      <glyph glyph-name="uni6b" unicode="&#x6b;" d="M421 0L561 0L318 300L531 520L386 520L182 307L182 706L54 706L54 0L182 0L182 159L238 217Z"  horiz-adv-x="570" vert-adv-y="1000"  />

      
      <glyph glyph-name="uni0137" unicode="&#x0137;" d="M318 300L531 520L386 520L182 307L182 706L54 706L54 0L182 0L182 159L238 217L421 0L561 0ZM228-178L283-178L283-209C283-254 269-288 228-299L228-339C296-338 369-320 369-179L369-30L228-30Z"  horiz-adv-x="570" vert-adv-y="1000"  />

      
      <glyph glyph-name="uni6c" unicode="&#x6c;" d="M54 706L54 0L182 0L182 706Z"  horiz-adv-x="235" vert-adv-y="1000"  />

      
      <glyph glyph-name="uni013A" unicode="&#x013A;" d="M51 767L133 895L273 895L160 767ZM54 706L54 0L182 0L182 706Z"  horiz-adv-x="235" vert-adv-y="1000"  />

      
      <glyph glyph-name="uni013E" unicode="&#x013E;" d="M54 706L54 0L182 0L182 706ZM245 391C313 392 386 410 386 551L386 700L245 700L245 552L300 552L300 521C300 476 286 442 245 431Z"  horiz-adv-x="426" vert-adv-y="1000"  />

      
      <glyph glyph-name="uni013C" unicode="&#x013C;" d="M54 706L54 0L182 0L182 706ZM48-339C116-338 189-320 189-179L189-30L48-30L48-178L103-178L103-209C103-254 89-288 48-299Z"  horiz-adv-x="235" vert-adv-y="1000"  />

      
      <glyph glyph-name="uni0142" unicode="&#x0142;" d="M285 559L284 559L217 488L217 706L89 706L89 354L24 285L24 154L89 222L89 0L217 0L217 357L285 429Z"  horiz-adv-x="308" vert-adv-y="1000"  />

      
      <glyph glyph-name="uni6d" unicode="&#x6d;" d="M686 525C598 525 532 462 510 409C484 493 420 525 346 525C247 525 194 449 182 412L182 520L54 520L54 0L182 0L182 310C186 351 222 419 299 419C353 419 395 387 395 302L395 0L523 0L523 313C523 347 561 419 641 419C695 419 736 387 736 302L736 0L864 0L864 305C864 466 784 525 686 525Z"  horiz-adv-x="917" vert-adv-y="1000"  />

      
      <glyph glyph-name="uni6e" unicode="&#x6e;" d="M354 525C253 525 196 449 182 412L182 520L54 520L54 0L182 0L182 311C188 349 227 419 307 419C367 419 411 389 411 307L411 0L539 0L539 314C539 471 459 525 354 525Z"  horiz-adv-x="592" vert-adv-y="1000"  />

      
      <glyph glyph-name="uni0144" unicode="&#x0144;" d="M451 709L311 709L229 581L338 581ZM354 525C253 525 196 449 182 412L182 520L54 520L54 0L182 0L182 311C188 349 227 419 307 419C367 419 411 389 411 307L411 0L539 0L539 314C539 471 459 525 354 525Z"  horiz-adv-x="592" vert-adv-y="1000"  />

      
      <glyph glyph-name="uni0148" unicode="&#x0148;" d="M412 562L486 700L386 700L295 619L204 700L103 700L177 562ZM354 525C253 525 196 449 182 412L182 520L54 520L54 0L182 0L182 311C188 349 227 419 307 419C367 419 411 389 411 307L411 0L539 0L539 314C539 471 459 525 354 525Z"  horiz-adv-x="592" vert-adv-y="1000"  />

      
      <glyph glyph-name="uni0146" unicode="&#x0146;" d="M354 525C253 525 196 449 182 412L182 520L54 520L54 0L182 0L182 311C188 349 227 419 307 419C367 419 411 389 411 307L411 0L539 0L539 314C539 471 459 525 354 525ZM226-178L281-178L281-209C281-254 267-288 226-299L226-339C294-338 367-320 367-179L367-30L226-30Z"  horiz-adv-x="592" vert-adv-y="1000"  />

      
      <glyph glyph-name="uni014B" unicode="&#x014B;" d="M354 525C253 525 196 449 182 412L182 520L54 520L54 0L182 0L182 311C188 349 227 419 307 419C367 419 411 389 411 307L411-44C411-74 400-110 353-110C337-110 313-107 283-97L283-201C311-214 348-220 386-220C478-220 539-172 539-64L539 314C539 471 459 525 354 525Z"  horiz-adv-x="592" vert-adv-y="1000"  />

      
      <glyph glyph-name="unif1" unicode="&#xf1;" d="M197 654C266 654 305 578 382 578C456 578 498 630 498 700L446 700C447 681 427 666 402 666C333 666 294 743 217 743C142 743 101 690 101 621L153 621C152 639 172 654 197 654ZM354 525C253 525 196 449 182 412L182 520L54 520L54 0L182 0L182 311C188 349 227 419 307 419C367 419 411 389 411 307L411 0L539 0L539 314C539 471 459 525 354 525Z"  horiz-adv-x="592" vert-adv-y="1000"  />

      
      <glyph glyph-name="uni6f" unicode="&#x6f;" d="M282 525C171 525 29 450 29 259C29 69 171-7 282-7C393-7 536 69 536 259C536 450 393 525 282 525ZM412 259C412 146 350 97 282 97C214 97 152 146 152 259C152 373 214 421 282 421C350 421 412 373 412 259Z"  horiz-adv-x="564" vert-adv-y="1000"  />

      
      <glyph glyph-name="unif3" unicode="&#xf3;" d="M215 581L297 709L437 709L324 581ZM282 525C171 525 29 450 29 259C29 69 171-7 282-7C393-7 536 69 536 259C536 450 393 525 282 525ZM412 259C412 146 350 97 282 97C214 97 152 146 152 259C152 373 214 421 282 421C350 421 412 373 412 259Z"  horiz-adv-x="564" vert-adv-y="1000"  />

      
      <glyph glyph-name="uni01D2" unicode="&#x01D2;" d="M372 700L281 619L190 700L89 700L163 562L398 562L472 700ZM282 525C171 525 29 450 29 259C29 69 171-7 282-7C393-7 536 69 536 259C536 450 393 525 282 525ZM412 259C412 146 350 97 282 97C214 97 152 146 152 259C152 373 214 421 282 421C350 421 412 373 412 259Z"  horiz-adv-x="564" vert-adv-y="1000"  />

      
      <glyph glyph-name="unif4" unicode="&#xf4;" d="M373 571L473 571L399 709L164 709L90 571L191 571L282 652ZM282 525C171 525 29 450 29 259C29 69 171-7 282-7C393-7 536 69 536 259C536 450 393 525 282 525ZM412 259C412 146 350 97 282 97C214 97 152 146 152 259C152 373 214 421 282 421C350 421 412 373 412 259Z"  horiz-adv-x="564" vert-adv-y="1000"  />

      
      <glyph glyph-name="unif6" unicode="&#xf6;" d="M102 709L102 605L233 605L233 709ZM331 709L331 605L461 605L461 709ZM282 525C171 525 29 450 29 259C29 69 171-7 282-7C393-7 536 69 536 259C536 450 393 525 282 525ZM412 259C412 146 350 97 282 97C214 97 152 146 152 259C152 373 214 421 282 421C350 421 412 373 412 259Z"  horiz-adv-x="564" vert-adv-y="1000"  />

      
      <glyph glyph-name="unif2" unicode="&#xf2;" d="M346 581L237 581L124 709L264 709ZM282 525C171 525 29 450 29 259C29 69 171-7 282-7C393-7 536 69 536 259C536 450 393 525 282 525ZM412 259C412 146 350 97 282 97C214 97 152 146 152 259C152 373 214 421 282 421C350 421 412 373 412 259Z"  horiz-adv-x="564" vert-adv-y="1000"  />

      
      <glyph glyph-name="uni0151" unicode="&#x0151;" d="M155 581L237 709L377 709L264 581ZM352 581L434 709L574 709L461 581ZM282 525C171 525 29 450 29 259C29 69 171-7 282-7C393-7 536 69 536 259C536 450 393 525 282 525ZM412 259C412 146 350 97 282 97C214 97 152 146 152 259C152 373 214 421 282 421C350 421 412 373 412 259Z"  horiz-adv-x="564" vert-adv-y="1000"  />

      
      <glyph glyph-name="uni014D" unicode="&#x014D;" d="M108 709L108 634L455 634L455 709ZM282 525C171 525 29 450 29 259C29 69 171-7 282-7C393-7 536 69 536 259C536 450 393 525 282 525ZM412 259C412 146 350 97 282 97C214 97 152 146 152 259C152 373 214 421 282 421C350 421 412 373 412 259Z"  horiz-adv-x="564" vert-adv-y="1000"  />

      
      <glyph glyph-name="uni01EB" unicode="&#x01EB;" d="M536 259C536 450 393 525 282 525C171 525 29 450 29 259C29 94 136 15 236-3C171-17 93-64 93-133C93-237 236-232 301-198L301-143C249-159 214-150 214-110C214-76 239-30 346 0L341 0C438 23 536 102 536 259ZM282 97C214 97 152 146 152 259C152 373 214 421 282 421C350 421 412 373 412 259C412 146 350 97 282 97Z"  horiz-adv-x="564" vert-adv-y="1000"  />

      
      <glyph glyph-name="unif8" unicode="&#xf8;" d="M439 473L490 578L379 578L349 516C327 522 304 525 282 525C171 525 29 450 29 259C29 158 70 89 124 46L78-50L189-50L214 2C237-4 260-7 282-7C393-7 536 69 536 259C536 362 495 431 439 473ZM152 259C152 373 214 421 282 421C289 421 296 420 303 419L177 156C161 181 152 215 152 259ZM282 97C275 97 267 98 260 99L387 363C403 338 412 303 412 259C412 146 350 97 282 97Z"  horiz-adv-x="564" vert-adv-y="1000"  />

      
      <glyph glyph-name="unif5" unicode="&#xf5;" d="M432 700C433 681 413 666 388 666C319 666 280 743 203 743C128 743 87 690 87 621L139 621C138 639 158 654 183 654C252 654 291 578 368 578C442 578 484 630 484 700ZM282 525C171 525 29 450 29 259C29 69 171-7 282-7C393-7 536 69 536 259C536 450 393 525 282 525ZM412 259C412 146 350 97 282 97C214 97 152 146 152 259C152 373 214 421 282 421C350 421 412 373 412 259Z"  horiz-adv-x="564" vert-adv-y="1000"  />

      
      <glyph glyph-name="uni0153" unicode="&#x0153;" d="M909 245C909 448 794 525 666 525C596 525 523 499 473 442C421 500 346 525 282 525C171 525 29 450 29 259C29 69 171-7 282-7C346-7 421 18 472 76C522 18 595-7 665-7C785-7 861 40 894 140L781 140C762 106 729 89 672 89C594 89 546 127 536 219L908 219C909 228 909 236 909 245ZM536 299C547 386 595 429 666 429C741 429 785 380 787 299ZM282 97C214 97 152 146 152 259C152 373 214 421 282 421C350 421 412 373 412 259C412 146 350 97 282 97Z"  horiz-adv-x="937" vert-adv-y="1000"  />

      
      <glyph glyph-name="uni70" unicode="&#x70;" d="M333 525C258 525 203 485 182 446L182 520L54 520L54-190L182-190L182 77C188 53 233-7 330-7C428-7 562 68 562 260C562 449 429 525 333 525ZM304 97C234 97 176 149 176 260C176 371 234 421 304 421C374 421 438 374 438 260C438 145 374 97 304 97Z"  horiz-adv-x="591" vert-adv-y="1000"  />

      
      <glyph glyph-name="unife" unicode="&#xfe;" d="M333 525L329 525C256 523 203 484 182 446L182 706L54 706L54-190L182-190L182 77C188 53 233-7 330-7C431-7 562 68 562 260C562 449 431 525 333 525ZM305 97C235 97 176 150 176 260C176 370 235 421 305 421C375 421 438 373 438 260C438 146 375 97 305 97Z"  horiz-adv-x="591" vert-adv-y="1000"  />

      
      <glyph glyph-name="uni71" unicode="&#x71;" d="M258 525C162 525 29 449 29 260C29 68 163-7 261-7C358-7 403 53 409 77L409-190L537-190L537 520L409 520L409 446C388 485 333 525 258 525ZM287 97C217 97 153 145 153 260C153 374 217 421 287 421C357 421 415 371 415 260C415 149 357 97 287 97Z"  horiz-adv-x="591" vert-adv-y="1000"  />

      
      <glyph glyph-name="uni72" unicode="&#x72;" d="M343 525C252 525 198 473 182 404L182 520L54 520L54 0L182 0L182 285C195 361 246 410 353 410C359 410 367 410 385 409L385 522C367 525 354 525 343 525Z"  horiz-adv-x="409" vert-adv-y="1000"  />

      
      <glyph glyph-name="uni0155" unicode="&#x0155;" d="M370 709L230 709L148 581L257 581ZM343 525C252 525 198 473 182 404L182 520L54 520L54 0L182 0L182 285C195 361 246 410 353 410C359 410 367 410 385 409L385 522C367 525 354 525 343 525Z"  horiz-adv-x="409" vert-adv-y="1000"  />

      
      <glyph glyph-name="uni0159" unicode="&#x0159;" d="M331 562L405 700L305 700L214 619L123 700L22 700L96 562ZM182 404L182 520L54 520L54 0L182 0L182 285C195 361 246 410 353 410C359 410 367 410 385 409L385 522C367 525 354 525 343 525C252 525 198 473 182 404Z"  horiz-adv-x="409" vert-adv-y="1000"  />

      
      <glyph glyph-name="uni0157" unicode="&#x0157;" d="M343 525C252 525 198 473 182 404L182 520L54 520L54 0L182 0L182 285C195 361 246 410 353 410C359 410 367 410 385 409L385 522C367 525 354 525 343 525ZM49-178L104-178L104-209C104-254 90-288 49-299L49-339C117-338 190-320 190-179L190-30L49-30Z"  horiz-adv-x="409" vert-adv-y="1000"  />

      
      <glyph glyph-name="uni73" unicode="&#x73;" d="M348 367L464 367C446 463 377 525 247 525C119 525 41 468 41 374C41 302 83 252 196 227L282 208C326 199 346 186 346 152C346 113 312 88 251 88C192 88 154 110 142 162L24 162C38 48 122-7 249-7C375-7 474 42 474 151C474 255 410 271 316 292L225 313C182 323 161 339 161 370C161 407 195 429 249 429C301 429 335 412 348 367Z"  horiz-adv-x="498" vert-adv-y="1000"  />

      
      <glyph glyph-name="uni015B" unicode="&#x015B;" d="M181 581L263 709L403 709L290 581ZM348 367L464 367C446 463 377 525 247 525C119 525 41 468 41 374C41 302 83 252 196 227L282 208C326 199 346 186 346 152C346 113 312 88 251 88C192 88 154 110 142 162L24 162C38 48 122-7 249-7C375-7 474 42 474 151C474 255 410 271 316 292L225 313C182 323 161 339 161 370C161 407 195 429 249 429C301 429 335 412 348 367Z"  horiz-adv-x="498" vert-adv-y="1000"  />

      
      <glyph glyph-name="uni0161" unicode="&#x0161;" d="M338 700L247 619L156 700L55 700L129 562L364 562L438 700ZM348 367L464 367C446 463 377 525 247 525C119 525 41 468 41 374C41 302 83 252 196 227L282 208C326 199 346 186 346 152C346 113 312 88 251 88C192 88 154 110 142 162L24 162C38 48 122-7 249-7C375-7 474 42 474 151C474 255 410 271 316 292L225 313C182 323 161 339 161 370C161 407 195 429 249 429C301 429 335 412 348 367Z"  horiz-adv-x="498" vert-adv-y="1000"  />

      
      <glyph glyph-name="uni015F" unicode="&#x015F;" d="M474 151C474 255 410 271 316 292L225 313C182 323 161 339 161 370C161 407 195 429 249 429C301 429 335 412 348 367L464 367C446 463 377 525 247 525C119 525 41 468 41 374C41 302 83 252 196 227L282 208C326 199 346 186 346 152C346 113 312 88 251 88C192 88 154 110 142 162L24 162C36 65 98 11 194-3L149-80L180-130C211-104 248-115 248-146C248-177 217-190 156-191L156-244C259-244 346-229 346-143C346-86 298-58 248-58L299-4C400 8 474 57 474 151Z"  horiz-adv-x="498" vert-adv-y="1000"  />

      
      <glyph glyph-name="uni0219" unicode="&#x0219;" d="M348 367L464 367C446 463 377 525 247 525C119 525 41 468 41 374C41 302 83 252 196 227L282 208C326 199 346 186 346 152C346 113 312 88 251 88C192 88 154 110 142 162L24 162C38 48 122-7 249-7C375-7 474 42 474 151C474 255 410 271 316 292L225 313C182 323 161 339 161 370C161 407 195 429 249 429C301 429 335 412 348 367ZM179-349C247-348 320-330 320-189L320-40L179-40L179-188L234-188L234-219C234-264 220-298 179-309Z"  horiz-adv-x="498" vert-adv-y="1000"  />

      
      <glyph glyph-name="unidf" unicode="&#xdf;" d="M433 383C483 387 536 438 536 516C536 648 436 700 292 700C152 700 54 641 54 475L54 0L182 0L182 475C182 555 220 590 299 590C357 590 408 570 408 507C408 458 381 421 296 421L265 421L265 324L296 324C374 324 452 302 452 216C452 133 387 110 309 110L265 110L265 0L306 0C494 0 580 65 580 213C580 304 509 374 433 383Z"  horiz-adv-x="623" vert-adv-y="1000"  />

      
      <glyph glyph-name="uni74" unicode="&#x74;" d="M281 94C239 94 226 114 226 145L226 419L330 419L330 520L226 520L226 650L98 650L98 520L14 520L14 419L98 419L98 131C98 18 162-6 245-6C281-6 313 0 335 8L335 101C313 96 296 94 281 94Z"  horiz-adv-x="364" vert-adv-y="1000"  />

      
      <glyph glyph-name="uni0167" unicode="&#x0167;" d="M281 94C239 94 226 114 226 145L226 257L330 257L330 360L226 360L226 419L330 419L330 520L226 520L226 650L98 650L98 520L14 520L14 419L98 419L98 360L14 360L14 257L98 257L98 131C98 18 162-6 245-6C281-6 313 0 335 8L335 101C313 96 296 94 281 94Z"  horiz-adv-x="364" vert-adv-y="1000"  />

      
      <glyph glyph-name="uni0165" unicode="&#x0165;" d="M336 706L254 578L363 578L476 706ZM226 145L226 419L330 419L330 520L226 520L226 650L98 650L98 520L14 520L14 419L98 419L98 131C98 18 162-6 245-6C281-6 313 0 335 8L335 101C313 96 296 94 281 94C239 94 226 114 226 145Z"  horiz-adv-x="362" vert-adv-y="1000"  />

      
      <glyph glyph-name="uni0163" unicode="&#x0163;" d="M335 8L335 101C313 96 296 94 281 94C239 94 226 114 226 145L226 419L330 419L330 520L226 520L226 650L98 650L98 520L14 520L14 419L98 419L98 131C98 48 132 13 184 0L136-80L167-130C198-104 235-115 235-146C235-177 204-190 143-191L143-244C246-244 333-229 333-143C333-86 285-58 235-58L287-3C306-1 322 3 335 8Z"  horiz-adv-x="364" vert-adv-y="1000"  />

      
      <glyph glyph-name="uni021B" unicode="&#x021B;" d="M281 94C239 94 226 114 226 145L226 419L330 419L330 520L226 520L226 650L98 650L98 520L14 520L14 419L98 419L98 131C98 18 162-6 245-6C281-6 313 0 335 8L335 101C313 96 296 94 281 94ZM166-178L221-178L221-209C221-254 207-288 166-299L166-339C234-338 307-320 307-179L307-30L166-30Z"  horiz-adv-x="364" vert-adv-y="1000"  />

      
      <glyph glyph-name="uni75" unicode="&#x75;" d="M406 520L406 208C399 170 360 99 280 99C221 99 177 130 177 212L177 520L49 520L49 205C49 48 128-7 234-7C334-7 392 71 406 107L406 0L534 0L534 520Z"  horiz-adv-x="587" vert-adv-y="1000"  />

      
      <glyph glyph-name="unifa" unicode="&#xfa;" d="M445 709L305 709L223 581L332 581ZM406 520L406 208C399 170 360 99 280 99C221 99 177 130 177 212L177 520L49 520L49 205C49 48 128-7 234-7C334-7 392 71 406 107L406 0L534 0L534 520Z"  horiz-adv-x="587" vert-adv-y="1000"  />

      
      <glyph glyph-name="uni016D" unicode="&#x016D;" d="M290 562C401 562 454 621 454 709L371 709C364 667 340 647 290 647C240 647 216 667 210 709L126 709C126 621 179 562 290 562ZM406 520L406 208C399 170 360 99 280 99C221 99 177 130 177 212L177 520L49 520L49 205C49 48 128-7 234-7C334-7 392 71 406 107L406 0L534 0L534 520Z"  horiz-adv-x="587" vert-adv-y="1000"  />

      
      <glyph glyph-name="uni01D4" unicode="&#x01D4;" d="M406 562L480 700L380 700L289 619L198 700L97 700L171 562ZM406 520L406 208C399 170 360 99 280 99C221 99 177 130 177 212L177 520L49 520L49 205C49 48 128-7 234-7C334-7 392 71 406 107L406 0L534 0L534 520Z"  horiz-adv-x="587" vert-adv-y="1000"  />

      
      <glyph glyph-name="unifb" unicode="&#xfb;" d="M290 652L381 571L481 571L407 709L172 709L98 571L199 571ZM406 520L406 208C399 170 360 99 280 99C221 99 177 130 177 212L177 520L49 520L49 205C49 48 128-7 234-7C334-7 392 71 406 107L406 0L534 0L534 520Z"  horiz-adv-x="587" vert-adv-y="1000"  />

      
      <glyph glyph-name="unifc" unicode="&#xfc;" d="M241 709L110 709L110 605L241 605ZM469 709L339 709L339 605L469 605ZM406 520L406 208C399 170 360 99 280 99C221 99 177 130 177 212L177 520L49 520L49 205C49 48 128-7 234-7C334-7 392 71 406 107L406 0L534 0L534 520Z"  horiz-adv-x="587" vert-adv-y="1000"  />

      
      <glyph glyph-name="unif9" unicode="&#xf9;" d="M354 581L272 709L132 709L245 581ZM406 520L406 208C399 170 360 99 280 99C221 99 177 130 177 212L177 520L49 520L49 205C49 48 128-7 234-7C334-7 392 71 406 107L406 0L534 0L534 520Z"  horiz-adv-x="587" vert-adv-y="1000"  />

      
      <glyph glyph-name="uni0171" unicode="&#x0171;" d="M385 709L245 709L163 581L272 581ZM469 581L582 709L442 709L360 581ZM406 208C399 170 360 99 280 99C221 99 177 130 177 212L177 520L49 520L49 205C49 48 128-7 234-7C334-7 392 71 406 107L406 0L534 0L534 520L406 520Z"  horiz-adv-x="587" vert-adv-y="1000"  />

      
      <glyph glyph-name="uni016B" unicode="&#x016B;" d="M463 709L116 709L116 634L463 634ZM406 520L406 208C399 170 360 99 280 99C221 99 177 130 177 212L177 520L49 520L49 205C49 48 128-7 234-7C334-7 392 71 406 107L406 0L534 0L534 520Z"  horiz-adv-x="587" vert-adv-y="1000"  />

      
      <glyph glyph-name="uni0173" unicode="&#x0173;" d="M406 520L406 208C399 170 360 99 280 99C221 99 177 130 177 212L177 520L49 520L49 205C49 48 128-7 234-7C334-7 392 71 406 107L406 0C338-10 247-58 247-133C247-237 390-232 455-198L455-143C403-159 368-150 368-110C368-76 393-30 500 0L534 0L534 520Z"  horiz-adv-x="587" vert-adv-y="1000"  />

      
      <glyph glyph-name="uni016F" unicode="&#x016F;" d="M290 580C342 580 386 622 386 676C386 729 342 772 290 772C237 772 193 729 193 676C193 622 237 580 290 580ZM290 715C311 715 329 700 329 676C329 652 311 636 290 636C268 636 250 652 250 676C250 700 268 715 290 715ZM406 520L406 208C399 170 360 99 280 99C221 99 177 130 177 212L177 520L49 520L49 205C49 48 128-7 234-7C334-7 392 71 406 107L406 0L534 0L534 520Z"  horiz-adv-x="587" vert-adv-y="1000"  />

      
      <glyph glyph-name="uni0169" unicode="&#x0169;" d="M191 654C260 654 299 578 376 578C450 578 492 630 492 700L440 700C441 681 421 666 396 666C327 666 288 743 211 743C136 743 95 690 95 621L147 621C146 639 166 654 191 654ZM406 520L406 208C399 170 360 99 280 99C221 99 177 130 177 212L177 520L49 520L49 205C49 48 128-7 234-7C334-7 392 71 406 107L406 0L534 0L534 520Z"  horiz-adv-x="587" vert-adv-y="1000"  />

      
      <glyph glyph-name="uni76" unicode="&#x76;" d="M362 0L564 520L436 520L291 128L147 520L19 520L221 0Z"  horiz-adv-x="583" vert-adv-y="1000"  />

      
      <glyph glyph-name="uni77" unicode="&#x77;" d="M793 520L664 520L572 161L456 520L355 520L239 161L148 520L19 520L167 0L279 0L406 368L533 0L644 0Z"  horiz-adv-x="811" vert-adv-y="1000"  />

      
      <glyph glyph-name="uni1E83" unicode="&#x1E83;" d="M338 581L420 709L560 709L447 581ZM793 520L664 520L572 161L456 520L355 520L239 161L148 520L19 520L167 0L279 0L406 368L533 0L644 0Z"  horiz-adv-x="811" vert-adv-y="1000"  />

      
      <glyph glyph-name="uni0175" unicode="&#x0175;" d="M496 571L596 571L522 709L287 709L213 571L314 571L405 652ZM793 520L664 520L572 161L456 520L355 520L239 161L148 520L19 520L167 0L279 0L406 368L533 0L644 0Z"  horiz-adv-x="811" vert-adv-y="1000"  />

      
      <glyph glyph-name="uni1E85" unicode="&#x1E85;" d="M225 709L225 605L356 605L356 709ZM454 709L454 605L584 605L584 709ZM793 520L664 520L572 161L456 520L355 520L239 161L148 520L19 520L167 0L279 0L406 368L533 0L644 0Z"  horiz-adv-x="811" vert-adv-y="1000"  />

      
      <glyph glyph-name="uni1E81" unicode="&#x1E81;" d="M469 581L360 581L247 709L387 709ZM793 520L664 520L572 161L456 520L355 520L239 161L148 520L19 520L167 0L279 0L406 368L533 0L644 0Z"  horiz-adv-x="811" vert-adv-y="1000"  />

      
      <glyph glyph-name="uni78" unicode="&#x78;" d="M542 0L354 270L527 520L387 520L283 364L178 520L38 520L211 270L24 0L163 0L283 177L402 0Z"  horiz-adv-x="565" vert-adv-y="1000"  />

      
      <glyph glyph-name="uni79" unicode="&#x79;" d="M417 520L281 159L151 520L19 520L209 49C219 21 222 8 213-14C194-56 165-95 76-85L76-194C206-208 270-159 331-9L547 520Z"  horiz-adv-x="565" vert-adv-y="1000"  />

      
      <glyph glyph-name="unifd" unicode="&#xfd;" d="M215 581L297 709L437 709L324 581ZM417 520L281 159L151 520L19 520L209 49C219 21 222 8 213-14C194-56 165-95 76-85L76-194C206-208 270-159 331-9L547 520Z"  horiz-adv-x="565" vert-adv-y="1000"  />

      
      <glyph glyph-name="uni0177" unicode="&#x0177;" d="M373 571L473 571L399 709L164 709L90 571L191 571L282 652ZM417 520L281 159L151 520L19 520L209 49C219 21 222 8 213-14C194-56 165-95 76-85L76-194C206-208 270-159 331-9L547 520Z"  horiz-adv-x="565" vert-adv-y="1000"  />

      
      <glyph glyph-name="uniff" unicode="&#xff;" d="M102 709L102 605L233 605L233 709ZM331 709L331 605L461 605L461 709ZM417 520L281 159L151 520L19 520L209 49C219 21 222 8 213-14C194-56 165-95 76-85L76-194C206-208 270-159 331-9L547 520Z"  horiz-adv-x="565" vert-adv-y="1000"  />

      
      <glyph glyph-name="uni1EF3" unicode="&#x1EF3;" d="M346 581L237 581L124 709L264 709ZM417 520L281 159L151 520L19 520L209 49C219 21 222 8 213-14C194-56 165-95 76-85L76-194C206-208 270-159 331-9L547 520Z"  horiz-adv-x="565" vert-adv-y="1000"  />

      
      <glyph glyph-name="uni7a" unicode="&#x7a;" d="M193 108L466 412L466 520L50 520L50 412L314 412L40 108L40 0L466 0L466 108Z"  horiz-adv-x="506" vert-adv-y="1000"  />

      
      <glyph glyph-name="uni017A" unicode="&#x017A;" d="M181 581L263 709L403 709L290 581ZM193 108L466 412L466 520L50 520L50 412L314 412L40 108L40 0L466 0L466 108Z"  horiz-adv-x="506" vert-adv-y="1000"  />

      
      <glyph glyph-name="uni017E" unicode="&#x017E;" d="M338 700L247 619L156 700L55 700L129 562L364 562L438 700ZM193 108L466 412L466 520L50 520L50 412L314 412L40 108L40 0L466 0L466 108Z"  horiz-adv-x="506" vert-adv-y="1000"  />

      
      <glyph glyph-name="uni017C" unicode="&#x017C;" d="M183 709L183 605L314 605L314 709ZM193 108L466 412L466 520L50 520L50 412L314 412L40 108L40 0L466 0L466 108Z"  horiz-adv-x="506" vert-adv-y="1000"  />

      
      <glyph glyph-name="uniFB01" unicode="&#xFB01;" d="M94 550L94 520L20 520L20 419L94 419L94 0L222 0L222 419L328 419L328 520L222 520L222 547C222 597 237 617 285 617C303 617 321 614 332 611L332 705C317 711 283 716 255 716C185 716 94 704 94 550ZM396 709L396 608L524 608L524 709ZM396 0L524 0L524 520L396 520Z"  horiz-adv-x="577" vert-adv-y="1000"  />

      
      <glyph glyph-name="uniFB02" unicode="&#xFB02;" d="M94 550L94 520L20 520L20 419L94 419L94 0L222 0L222 419L328 419L328 520L222 520L222 547C222 597 237 617 285 617C303 617 321 614 332 611L332 705C317 711 283 716 255 716C185 716 94 704 94 550ZM396 706L396 0L524 0L524 706Z"  horiz-adv-x="577" vert-adv-y="1000"  />

      
      <glyph glyph-name="uniaa" unicode="&#xaa;" d="M326 463L326 559C326 662 292 714 179 714C109 714 49 686 39 610L113 610C119 628 130 644 177 644C221 644 242 630 241 585L157 579C75 572 29 546 29 479C29 401 88 376 141 376C200 376 231 406 254 432C254 412 263 391 276 378L350 378C333 405 326 434 326 463ZM161 446C130 446 113 460 113 483C113 500 126 516 157 519C190 522 218 524 241 527L241 501C231 477 217 446 161 446Z"  horiz-adv-x="368" vert-adv-y="1000"  />

      
      <glyph glyph-name="uniba" unicode="&#xba;" d="M191 708C111 708 29 648 29 544C29 434 111 374 191 374C270 374 353 434 353 544C353 648 270 708 191 708ZM268 544C268 488 237 455 191 455C145 455 113 489 113 544C113 596 145 629 191 629C237 629 268 596 268 544Z"  horiz-adv-x="381" vert-adv-y="1000"  />

      
      <glyph glyph-name="uni0410" unicode="&#x0410;" d="M544 0L689 0L416 700L296 700L24 0L168 0L219 144L493 144ZM254 243L356 533L458 243Z"  horiz-adv-x="712" vert-adv-y="1000"  />

      
      <glyph glyph-name="uni0411" unicode="&#x0411;" d="M326 461L187 461L187 584L495 584L495 700L54 700L54 0L326 0C507 0 591 90 591 231C591 370 507 461 326 461ZM326 114L187 114L187 346L326 346C407 346 448 304 448 231C448 156 407 114 326 114Z"  horiz-adv-x="634" vert-adv-y="1000"  />

      
      <glyph glyph-name="uni0412" unicode="&#x0412;" d="M471 384C524 406 563 456 563 521C563 627 489 700 336 700L54 700L54 0L345 0C525 0 609 78 609 206C609 288 557 360 471 384ZM187 589L337 589C387 589 423 562 423 510C423 461 393 422 336 422L187 422ZM341 111L187 111L187 319L344 319C436 319 465 265 465 211C465 156 432 111 341 111Z"  horiz-adv-x="653" vert-adv-y="1000"  />

      
      <glyph glyph-name="uni0413" unicode="&#x0413;" d="M495 700L54 700L54 0L187 0L187 584L495 584Z"  horiz-adv-x="518" vert-adv-y="1000"  />

      
      <glyph glyph-name="uni0403" unicode="&#x0403;" d="M190 761L272 889L412 889L299 761ZM495 700L54 700L54 0L187 0L187 584L495 584Z"  horiz-adv-x="518" vert-adv-y="1000"  />

      
      <glyph glyph-name="uni0490" unicode="&#x0490;" d="M361 800L361 700L54 700L54 0L187 0L187 584L495 584L495 800Z"  horiz-adv-x="518" vert-adv-y="1000"  />

      
      <glyph glyph-name="uni0414" unicode="&#x0414;" d="M670 110L670 700L189 700L189 508C189 254 152 162 101 110L24 110L24-69L152-69L152 0L656 0L656-69L784-69L784 110ZM243 110C289 162 322 254 322 508L322 584L536 584L536 110Z"  horiz-adv-x="814" vert-adv-y="1000"  />

      
      <glyph glyph-name="uni0415" unicode="&#x0415;" d="M187 116L187 302L485 302L485 410L187 410L187 584L535 584L535 700L54 700L54 0L545 0L545 116Z"  horiz-adv-x="575" vert-adv-y="1000"  />

      
      <glyph glyph-name="uni0401" unicode="&#x0401;" d="M248 889L117 889L117 785L248 785ZM476 889L346 889L346 785L476 785ZM187 116L187 302L485 302L485 410L187 410L187 584L535 584L535 700L54 700L54 0L545 0L545 116Z"  horiz-adv-x="575" vert-adv-y="1000"  />

      
      <glyph glyph-name="uni0416" unicode="&#x0416;" d="M973 0L671 354L966 700L813 700L564 412L564 700L430 700L430 410L180 700L27 700L322 354L20 0L173 0L430 298L430 0L564 0L564 296L820 0Z"  horiz-adv-x="993" vert-adv-y="1000"  />

      
      <glyph glyph-name="uni0417" unicode="&#x0417;" d="M410 373C466 388 528 436 528 524C528 624 437 709 293 709C148 709 57 625 57 478L177 478C178 570 235 599 294 599C353 599 404 568 404 510C404 469 383 409 276 409L244 409L244 323L276 323C387 323 433 270 433 209C433 129 361 98 297 98C226 98 159 138 155 232L35 232C35 89 132-12 297-12C465-12 561 77 561 203C561 319 466 366 410 373Z"  horiz-adv-x="601" vert-adv-y="1000"  />

      
      <glyph glyph-name="uni0418" unicode="&#x0418;" d="M53 700L53 0L196 0L495 479L499 479L499 0L632 0L632 700L495 700L191 213L187 213L187 700Z"  horiz-adv-x="686" vert-adv-y="1000"  />

      
      <glyph glyph-name="uni0419" unicode="&#x0419;" d="M423 889C416 847 392 827 342 827C292 827 268 847 262 889L178 889C178 801 231 742 342 742C453 742 506 801 506 889ZM53 700L53 0L196 0L495 479L499 479L499 0L632 0L632 700L495 700L191 213L187 213L187 700Z"  horiz-adv-x="686" vert-adv-y="1000"  />

      
      <glyph glyph-name="uni041A" unicode="&#x041A;" d="M366 383L640 700L487 700L187 357L187 700L54 700L54 0L187 0L187 177L286 292L286 290L519 0L667 0Z"  horiz-adv-x="687" vert-adv-y="1000"  />

      
      <glyph glyph-name="uni040C" unicode="&#x040C;" d="M499 889L359 889L277 761L386 761ZM366 383L640 700L487 700L187 357L187 700L54 700L54 0L187 0L187 177L286 292L286 290L519 0L667 0Z"  horiz-adv-x="687" vert-adv-y="1000"  />

      
      <glyph glyph-name="uni041B" unicode="&#x041B;" d="M629 700L124 700L124 226C124 125 75 108 15 109L15-7C156-20 258 49 258 220L258 584L495 584L495 0L629 0Z"  horiz-adv-x="682" vert-adv-y="1000"  />

      
      <glyph glyph-name="uni041C" unicode="&#x041C;" d="M54 700L54 0L187 0L187 471L192 471L372 0L472 0L651 471L656 471L656 0L790 0L790 700L636 700L422 176L208 700Z"  horiz-adv-x="843" vert-adv-y="1000"  />

      
      <glyph glyph-name="uni041D" unicode="&#x041D;" d="M482 700L482 402L187 402L187 700L54 700L54 0L187 0L187 293L482 293L482 0L616 0L616 700Z"  horiz-adv-x="670" vert-adv-y="1000"  />

      
      <glyph glyph-name="uni041E" unicode="&#x041E;" d="M366 709C170 709 39 579 39 350C39 122 170-9 366-9C563-9 694 122 694 350C694 579 563 709 366 709ZM366 107C249 107 179 196 179 350C179 505 249 593 366 593C484 593 554 505 554 350C554 196 484 107 366 107Z"  horiz-adv-x="733" vert-adv-y="1000"  />

      
      <glyph glyph-name="uni041F" unicode="&#x041F;" d="M616 700L54 700L54 0L187 0L187 584L482 584L482 0L616 0Z"  horiz-adv-x="670" vert-adv-y="1000"  />

      
      <glyph glyph-name="uni0420" unicode="&#x0420;" d="M326 700L54 700L54 0L187 0L187 224L326 224C507 224 591 319 591 462C591 604 507 700 326 700ZM326 340L187 340L187 584L326 584C407 584 448 538 448 462C448 385 407 340 326 340Z"  horiz-adv-x="619" vert-adv-y="1000"  />

      
      <glyph glyph-name="uni0421" unicode="&#x0421;" d="M360 107C246 107 179 197 179 350C179 504 246 593 360 593C442 593 482 558 508 490L641 490C622 635 500 709 357 709C170 709 39 584 39 350C39 116 170-9 357-9C501-9 624 65 643 212L510 212C484 142 443 107 360 107Z"  horiz-adv-x="673" vert-adv-y="1000"  />

      
      <glyph glyph-name="uni0422" unicode="&#x0422;" d="M571 700L24 700L24 584L230 584L230 0L364 0L364 584L571 584Z"  horiz-adv-x="595" vert-adv-y="1000"  />

      
      <glyph glyph-name="uni0423" unicode="&#x0423;" d="M425 700L296 365L171 700L24 700L209 262C226 221 229 192 217 164C202 128 180 95 91 105L91-14C221-28 282 22 346 171L572 700Z"  horiz-adv-x="595" vert-adv-y="1000"  />

      
      <glyph glyph-name="uni040E" unicode="&#x040E;" d="M379 889C372 847 348 827 298 827C248 827 224 847 218 889L134 889C134 801 187 742 298 742C409 742 462 801 462 889ZM425 700L296 365L171 700L24 700L209 262C226 221 229 192 217 164C202 128 180 95 91 105L91-14C221-28 282 22 346 171L572 700Z"  horiz-adv-x="595" vert-adv-y="1000"  />

      
      <glyph glyph-name="uni0424" unicode="&#x0424;" d="M693 350C693 512 593 615 433 637L433 715L299 715L299 638C140 616 39 513 39 350C39 188 140 84 299 62L299-15L433-15L433 63C593 85 693 189 693 350ZM167 350C167 446 213 511 299 533L299 168C213 189 167 256 167 350ZM433 168L433 532C520 511 565 446 565 350C565 256 520 190 433 168Z"  horiz-adv-x="731" vert-adv-y="1000"  />

      
      <glyph glyph-name="uni0425" unicode="&#x0425;" d="M650 0L409 361L635 700L485 700L334 473L183 700L33 700L259 361L19 0L169 0L334 248L500 0Z"  horiz-adv-x="668" vert-adv-y="1000"  />

      
      <glyph glyph-name="uni0427" unicode="&#x0427;" d="M462 700L462 388C455 349 398 274 296 274C220 274 172 309 172 391L172 700L39 700L39 385C39 219 125 155 243 155C374 155 447 243 462 279L462 0L596 0L596 700Z"  horiz-adv-x="649" vert-adv-y="1000"  />

      
      <glyph glyph-name="uni0426" unicode="&#x0426;" d="M616 116L616 700L482 700L482 116L187 116L187 700L54 700L54 0L551 0L551-141L679-141L679 116Z"  horiz-adv-x="702" vert-adv-y="1000"  />

      
      <glyph glyph-name="uni0428" unicode="&#x0428;" d="M637 700L637 116L479 116L479 700L345 700L345 116L187 116L187 700L54 700L54 0L771 0L771 700Z"  horiz-adv-x="825" vert-adv-y="1000"  />

      
      <glyph glyph-name="uni0429" unicode="&#x0429;" d="M771 116L771 700L637 700L637 116L479 116L479 700L345 700L345 116L187 116L187 700L54 700L54 0L705 0L705-141L832-141L832 116Z"  horiz-adv-x="856" vert-adv-y="1000"  />

      
      <glyph glyph-name="uni042C" unicode="&#x042C;" d="M326 461L187 461L187 700L54 700L54 0L326 0C507 0 591 90 591 231C591 370 507 461 326 461ZM326 114L187 114L187 346L326 346C407 346 448 304 448 231C448 156 407 114 326 114Z"  horiz-adv-x="634" vert-adv-y="1000"  />

      
      <glyph glyph-name="uni042A" unicode="&#x042A;" d="M383 461L244 461L244 700L24 700L24 584L111 584L111 0L383 0C564 0 648 90 648 231C648 370 564 461 383 461ZM383 114L244 114L244 346L383 346C464 346 505 304 505 231C505 156 464 114 383 114Z"  horiz-adv-x="691" vert-adv-y="1000"  />

      
      <glyph glyph-name="uni042B" unicode="&#x042B;" d="M326 461L187 461L187 700L54 700L54 0L326 0C507 0 591 90 591 231C591 370 507 461 326 461ZM664 700L664 0L797 0L797 700ZM326 114L187 114L187 346L326 346C407 346 448 304 448 231C448 156 407 114 326 114Z"  horiz-adv-x="851" vert-adv-y="1000"  />

      
      <glyph glyph-name="uni0404" unicode="&#x0404;" d="M510 212C484 142 443 107 360 107C258 107 194 178 181 302L388 302L388 410L183 410C198 527 262 593 360 593C442 593 482 558 508 490L641 490C622 635 500 709 357 709C170 709 39 584 39 350C39 116 170-9 357-9C501-9 624 65 643 212Z"  horiz-adv-x="673" vert-adv-y="1000"  />

      
      <glyph glyph-name="uni042D" unicode="&#x042D;" d="M324 709C181 709 59 635 40 490L173 490C199 558 239 593 321 593C419 593 483 527 498 410L294 410L294 302L500 302C487 178 423 107 321 107C238 107 197 142 171 212L38 212C57 65 180-9 324-9C511-9 642 116 642 350C642 584 511 709 324 709Z"  horiz-adv-x="681" vert-adv-y="1000"  />

      
      <glyph glyph-name="uni0407" unicode="&#x0407;" d="M-60 889L-60 785L71 785L71 889ZM169 889L169 785L299 785L299 889ZM187 0L187 700L54 700L54 0Z"  horiz-adv-x="241" vert-adv-y="1000"  />

      
      <glyph glyph-name="uni042E" unicode="&#x042E;" d="M608 709C427 709 302 599 283 402L187 402L187 700L54 700L54 0L187 0L187 293L284 293C304 100 429-9 608-9C805-9 936 122 936 350C936 579 805 709 608 709ZM608 107C491 107 421 196 421 350C421 505 491 593 608 593C726 593 796 505 796 350C796 196 726 107 608 107Z"  horiz-adv-x="975" vert-adv-y="1000"  />

      
      <glyph glyph-name="uni042F" unicode="&#x042F;" d="M602 700L308 700C130 700 53 611 53 492C53 404 99 355 154 323C77 291 48 244 48 171L48 117C48 57 44 27 28 0L162 0C178 27 182 57 182 117L182 167C182 231 225 262 286 262L469 262L469 0L602 0ZM469 369L309 369C227 369 191 407 191 480C191 550 233 584 311 584L469 584Z"  horiz-adv-x="656" vert-adv-y="1000"  />

      
      <glyph glyph-name="uni0430" unicode="&#x0430;" d="M497 122L497 313C497 463 433 525 276 525C143 525 68 471 59 367L179 367C187 414 223 431 275 431C323 431 369 417 369 343L369 341C338 323 277 316 218 306C116 288 29 262 29 152C29 40 111-7 203-7C327-7 373 73 382 89L382 76C382 21 427-4 487-4C506-4 519-3 534 4L534 78C510 79 497 93 497 122ZM369 164C357 144 317 85 237 85C182 85 157 118 157 156C157 196 178 217 237 230C290 241 334 247 369 264Z"  horiz-adv-x="553" vert-adv-y="1000"  />

      
      <glyph glyph-name="uni0431" unicode="&#x0431;" d="M320 521C239 521 175 485 161 444L161 487C161 550 200 600 270 600L330 600C435 600 479 633 505 722L391 722C378 710 360 700 314 700L270 700C121 700 38 621 39 441L39 305C39 65 182-9 292-9C403-9 546 60 546 258C546 450 414 521 320 521ZM292 95C224 95 162 142 162 257C162 374 224 423 292 423C360 423 423 374 423 258C423 143 360 95 292 95Z"  horiz-adv-x="574" vert-adv-y="1000"  />

      
      <glyph glyph-name="uni0432" unicode="&#x0432;" d="M441 289C491 306 511 345 511 392C511 477 434 520 319 520L54 520L54 0L319 0C453 0 552 35 552 152C552 218 511 268 441 289ZM182 417L319 417C381 417 393 388 393 366C393 347 381 314 318 314L182 314ZM323 104L182 104L182 234L322 234C411 234 424 198 424 168C424 136 406 104 323 104Z"  horiz-adv-x="581" vert-adv-y="1000"  />

      
      <glyph glyph-name="uni0433" unicode="&#x0433;" d="M414 520L54 520L54 0L182 0L182 419L414 419Z"  horiz-adv-x="438" vert-adv-y="1000"  />

      
      <glyph glyph-name="uni0453" unicode="&#x0453;" d="M152 581L234 709L374 709L261 581ZM414 520L54 520L54 0L182 0L182 419L414 419Z"  horiz-adv-x="438" vert-adv-y="1000"  />

      
      <glyph glyph-name="uni0491" unicode="&#x0491;" d="M304 586L304 520L54 520L54 0L182 0L182 419L414 419L414 586Z"  horiz-adv-x="438" vert-adv-y="1000"  />

      
      <glyph glyph-name="uni0434" unicode="&#x0434;" d="M579 101L579 520L115 520L115 381C115 242 113 149 68 101L24 101L24-56L140-56L140 0L509 0L509-56L625-56L625 101ZM191 101C238 149 243 242 243 381L243 419L451 419L451 101Z"  horiz-adv-x="648" vert-adv-y="1000"  />

      
      <glyph glyph-name="uni0435" unicode="&#x0435;" d="M525 245C525 448 410 525 282 525C160 525 29 448 29 258C29 69 160-7 281-7C401-7 477 40 510 140L397 140C378 106 345 89 288 89C210 89 162 127 152 219L524 219C525 228 525 236 525 245ZM152 299C163 386 211 429 282 429C357 429 401 380 403 299Z"  horiz-adv-x="553" vert-adv-y="1000"  />

      
      <glyph glyph-name="uni0451" unicode="&#x0451;" d="M231 709L100 709L100 605L231 605ZM459 709L329 709L329 605L459 605ZM525 245C525 448 410 525 282 525C160 525 29 448 29 258C29 69 160-7 281-7C401-7 477 40 510 140L397 140C378 106 345 89 288 89C210 89 162 127 152 219L524 219C525 228 525 236 525 245ZM152 299C163 386 211 429 282 429C357 429 401 380 403 299Z"  horiz-adv-x="553" vert-adv-y="1000"  />

      
      <glyph glyph-name="uni0436" unicode="&#x0436;" d="M846 0L592 259L840 520L682 520L494 317L494 520L366 520L366 318L179 520L21 520L269 259L15 0L173 0L366 202L366 0L494 0L494 203L688 0Z"  horiz-adv-x="854" vert-adv-y="1000"  />

      
      <glyph glyph-name="uni0437" unicode="&#x0437;" d="M384 275C418 284 477 309 477 386C477 471 389 527 260 527C131 527 47 459 47 348L163 348C163 402 206 434 263 434C314 434 356 410 356 372C356 341 334 305 243 304L243 238C337 237 380 203 380 161C380 113 335 84 261 84C188 84 144 129 144 193L29 193C29 62 111-9 261-9C396-9 507 47 507 152C507 243 417 269 384 275Z"  horiz-adv-x="540" vert-adv-y="1000"  />

      
      <glyph glyph-name="uni0438" unicode="&#x0438;" d="M54 520L54 0L190 0L419 334L422 334L422 0L550 0L550 520L419 520L185 178L182 178L182 520Z"  horiz-adv-x="604" vert-adv-y="1000"  />

      
      <glyph glyph-name="uni0439" unicode="&#x0439;" d="M384 709C377 667 353 647 303 647C253 647 229 667 223 709L139 709C139 621 192 562 303 562C414 562 467 621 467 709ZM54 520L54 0L190 0L419 334L422 334L422 0L550 0L550 520L419 520L185 178L182 178L182 520Z"  horiz-adv-x="604" vert-adv-y="1000"  />

      
      <glyph glyph-name="uni043A" unicode="&#x043A;" d="M421 0L561 0L318 300L531 520L386 520L182 307L182 520L54 520L54 0L182 0L182 159L238 217Z"  horiz-adv-x="570" vert-adv-y="1000"  />

      
      <glyph glyph-name="uni045C" unicode="&#x045C;" d="M440 709L300 709L218 581L327 581ZM421 0L561 0L318 300L531 520L386 520L182 307L182 520L54 520L54 0L182 0L182 159L238 217Z"  horiz-adv-x="570" vert-adv-y="1000"  />

      
      <glyph glyph-name="uni043B" unicode="&#x043B;" d="M562 520L124 520L124 223C124 118 75 96 15 97L15-4C156-17 252 45 252 216L252 419L436 419L440 0L562 0Z"  horiz-adv-x="616" vert-adv-y="1000"  />

      
      <glyph glyph-name="uni043C" unicode="&#x043C;" d="M54 520L54 0L182 0L182 315L186 315L318 0L414 0L546 315L551 315L551 0L679 0L679 520L530 520L366 148L202 520Z"  horiz-adv-x="732" vert-adv-y="1000"  />

      
      <glyph glyph-name="uni043D" unicode="&#x043D;" d="M381 520L381 321L182 321L182 520L54 520L54 0L182 0L182 220L381 220L381 0L509 0L509 520Z"  horiz-adv-x="562" vert-adv-y="1000"  />

      
      <glyph glyph-name="uni043E" unicode="&#x043E;" d="M282 525C171 525 29 450 29 259C29 69 171-7 282-7C393-7 536 69 536 259C536 450 393 525 282 525ZM412 259C412 146 350 97 282 97C214 97 152 146 152 259C152 373 214 421 282 421C350 421 412 373 412 259Z"  horiz-adv-x="564" vert-adv-y="1000"  />

      
      <glyph glyph-name="uni043F" unicode="&#x043F;" d="M506 520L54 520L54 0L182 0L182 419L378 419L378 0L506 0Z"  horiz-adv-x="559" vert-adv-y="1000"  />

      
      <glyph glyph-name="uni0440" unicode="&#x0440;" d="M333 525C258 525 203 485 182 446L182 520L54 520L54-190L182-190L182 77C188 53 233-7 330-7C428-7 562 68 562 260C562 449 429 525 333 525ZM304 97C234 97 176 149 176 260C176 371 234 421 304 421C374 421 438 374 438 260C438 145 374 97 304 97Z"  horiz-adv-x="591" vert-adv-y="1000"  />

      
      <glyph glyph-name="uni0441" unicode="&#x0441;" d="M282 97C206 97 152 151 152 259C152 365 205 421 281 421C345 421 373 391 386 345L503 345C475 488 374 525 280 525C161 525 29 451 29 259C29 65 162-7 281-7C373-7 481 31 508 178L392 178C377 129 347 97 282 97Z"  horiz-adv-x="538" vert-adv-y="1000"  />

      
      <glyph glyph-name="uni0442" unicode="&#x0442;" d="M485 520L30 520L30 419L194 419L194 0L322 0L322 419L485 419Z"  horiz-adv-x="515" vert-adv-y="1000"  />

      
      <glyph glyph-name="uni0443" unicode="&#x0443;" d="M417 520L281 159L151 520L19 520L209 49C219 21 222 8 213-14C194-56 165-95 76-85L76-194C206-208 270-159 331-9L547 520Z"  horiz-adv-x="565" vert-adv-y="1000"  />

      
      <glyph glyph-name="uni045E" unicode="&#x045E;" d="M364 709C357 667 333 647 283 647C233 647 209 667 203 709L119 709C119 621 172 562 283 562C394 562 447 621 447 709ZM417 520L281 159L151 520L19 520L209 49C219 21 222 8 213-14C194-56 165-95 76-85L76-194C206-208 270-159 331-9L547 520Z"  horiz-adv-x="565" vert-adv-y="1000"  />

      
      <glyph glyph-name="uni0444" unicode="&#x0444;" d="M579 258C579 420 474 500 364 521L364 707L244 707L244 521C134 501 29 421 29 258C29 95 134 17 244-3L244-185L364-185L364-4C474 16 579 95 579 258ZM134 258C134 353 176 406 244 424L244 94C176 112 134 164 134 258ZM364 94L364 424C432 405 474 353 474 258C474 164 432 112 364 94Z"  horiz-adv-x="607" vert-adv-y="1000"  />

      
      <glyph glyph-name="uni0445" unicode="&#x0445;" d="M542 0L354 270L527 520L387 520L283 364L178 520L38 520L211 270L24 0L163 0L283 177L402 0Z"  horiz-adv-x="565" vert-adv-y="1000"  />

      
      <glyph glyph-name="uni0447" unicode="&#x0447;" d="M386 520L386 348C379 309 341 241 260 241C199 241 157 272 157 343L157 520L29 520L29 336C29 189 108 134 213 134C314 134 372 209 386 246L386 0L514 0L514 520Z"  horiz-adv-x="567" vert-adv-y="1000"  />

      
      <glyph glyph-name="uni0446" unicode="&#x0446;" d="M506 101L506 520L378 520L378 101L182 101L182 520L54 520L54 0L443 0L443-140L565-140L565 101Z"  horiz-adv-x="583" vert-adv-y="1000"  />

      
      <glyph glyph-name="uni0448" unicode="&#x0448;" d="M605 520L605 101L454 101L454 520L333 520L333 101L182 101L182 520L54 520L54 0L733 0L733 520Z"  horiz-adv-x="787" vert-adv-y="1000"  />

      
      <glyph glyph-name="uni0449" unicode="&#x0449;" d="M733 101L733 520L605 520L605 101L454 101L454 520L333 520L333 101L182 101L182 520L54 520L54 0L671 0L671-140L793-140L793 101Z"  horiz-adv-x="811" vert-adv-y="1000"  />

      
      <glyph glyph-name="uni044C" unicode="&#x044C;" d="M320 342L182 342L182 520L54 520L54 0L320 0C453 0 534 64 534 171C534 275 453 342 320 342ZM319 101L182 101L182 242L319 242C383 242 409 214 409 171C409 128 383 101 319 101Z"  horiz-adv-x="562" vert-adv-y="1000"  />

      
      <glyph glyph-name="uni044A" unicode="&#x044A;" d="M380 342L242 342L242 520L24 520L24 419L114 419L114 0L380 0C513 0 594 64 594 171C594 275 513 342 380 342ZM379 101L242 101L242 242L379 242C443 242 469 214 469 171C469 128 443 101 379 101Z"  horiz-adv-x="622" vert-adv-y="1000"  />

      
      <glyph glyph-name="uni044B" unicode="&#x044B;" d="M320 342L182 342L182 520L54 520L54 0L320 0C453 0 534 64 534 171C534 275 453 342 320 342ZM599 520L599 0L727 0L727 520ZM319 101L182 101L182 242L319 242C383 242 409 214 409 171C409 128 383 101 319 101Z"  horiz-adv-x="780" vert-adv-y="1000"  />

      
      <glyph glyph-name="uni0454" unicode="&#x0454;" d="M392 178C377 129 347 97 282 97C215 97 165 139 154 224L306 224L306 303L155 303C168 380 216 421 281 421C345 421 373 391 386 345L503 345C475 488 374 525 280 525C161 525 29 451 29 259C29 65 162-7 281-7C373-7 481 31 508 178Z"  horiz-adv-x="538" vert-adv-y="1000"  />

      
      <glyph glyph-name="uni044D" unicode="&#x044D;" d="M256 525C162 525 61 488 33 345L150 345C163 391 191 421 255 421C320 421 368 380 381 303L230 303L230 224L382 224C371 139 321 97 254 97C189 97 159 129 144 178L28 178C55 31 163-7 255-7C374-7 507 65 507 259C507 451 375 525 256 525Z"  horiz-adv-x="536" vert-adv-y="1000"  />

      
      <glyph glyph-name="uni0457" unicode="&#x0457;" d="M-62 709L-62 605L69 605L69 709ZM167 709L167 605L297 605L297 709ZM54 520L54 0L182 0L182 520Z"  horiz-adv-x="235" vert-adv-y="1000"  />

      
      <glyph glyph-name="uni044E" unicode="&#x044E;" d="M499 525C398 525 273 463 250 310L182 310L182 519L54 519L54-1L182-1L182 209L250 209C272 56 398-7 499-7C610-7 753 69 753 259C753 450 610 525 499 525ZM499 97C431 97 369 146 369 259C369 373 431 421 499 421C567 421 629 373 629 259C629 146 567 97 499 97Z"  horiz-adv-x="781" vert-adv-y="1000"  />

      
      <glyph glyph-name="uni044F" unicode="&#x044F;" d="M520 520L254 520C121 520 40 456 40 349C40 293 63 248 106 218C57 199 45 164 45 121L45 78C45 32 41 20 30 0L158 0C169 20 173 32 173 78L173 121C173 162 194 178 237 178L392 178L392 0L520 0ZM392 278L255 278C191 278 165 306 165 349C165 392 191 419 255 419L392 419Z"  horiz-adv-x="574" vert-adv-y="1000"  />

      
      <glyph glyph-name="uni0394" unicode="&#x0394;" d="M677 0L375 700L345 700L44 0ZM516 110L205 110L361 493Z"  horiz-adv-x="720" vert-adv-y="1000"  />

      
      </font>
</defs>
</svg>
