<svg width="64" height="64" viewBox="0 0 64 64" fill="none" xmlns="http://www.w3.org/2000/svg">
<circle cx="32" cy="32" r="32" fill="white"/>
<path d="M26.6666 23.9998H37.3333M37.3333 34.6665V39.9998M37.3333 29.3332H37.3466M31.9999 29.3332H32.0133M26.6666 29.3332H26.6799M31.9999 34.6665H32.0133M26.6666 34.6665H26.6799M31.9999 39.9998H32.0133M26.6666 39.9998H26.6799M23.9999 18.6665H39.9999C41.4727 18.6665 42.6666 19.8604 42.6666 21.3332V42.6665C42.6666 44.1393 41.4727 45.3332 39.9999 45.3332H23.9999C22.5272 45.3332 21.3333 44.1393 21.3333 42.6665V21.3332C21.3333 19.8604 22.5272 18.6665 23.9999 18.6665Z" stroke="#292524" stroke-width="1.5" stroke-linecap="round" stroke-linejoin="round"/>
</svg>
