<svg width="1200" height="672" viewBox="0 0 1200 672" fill="none" xmlns="http://www.w3.org/2000/svg">
<text fill="#111111" style="white-space: pre" xml:space="preserve" font-family="Pragmatica Next VF TEST" font-size="56" letter-spacing="-0.02em"><tspan x="245.282" y="54.5986">&#x414;&#x438;&#x437;&#x430;&#x439;&#x43d;&#x435;&#x440;&#x430;&#x43c; &#x438;&#x43d;&#x442;&#x435;&#x440;&#x44c;&#x435;&#x440;&#x43e;&#x432; &#x432; </tspan><tspan x="284.44" y="124.599">&#x41a;&#x430;&#x437;&#x430;&#x43d;&#x438; &#x438; &#x43f;&#x43e; &#x422;&#x430;&#x442;&#x430;&#x440;&#x441;&#x442;&#x430;&#x43d;&#x443;</tspan></text>
<text fill="#111111" style="white-space: pre" xml:space="preserve" font-family="Pragmatica Next VF TEST" font-size="20" letter-spacing="0em"><tspan x="187.484" y="194">&#x41a;&#x43e;&#x43c;&#x43f;&#x430;&#x43d;&#x438;&#x44f; &#xab;&#x420;&#x411;&#x41a;-&#x422;&#x440;&#x435;&#x439;&#x434;&#xbb; &#x441;&#x43f;&#x435;&#x446;&#x438;&#x430;&#x43b;&#x438;&#x437;&#x438;&#x440;&#x443;&#x435;&#x442;&#x441;&#x44f; &#x43d;&#x430; &#x434;&#x438;&#x437;&#x430;&#x439;&#x43d;&#x435;&#x440;&#x441;&#x43a;&#x438;&#x445; &#x440;&#x430;&#x434;&#x438;&#x430;&#x442;&#x43e;&#x440;&#x430;&#x445; &#x43e;&#x442;&#x43e;&#x43f;&#x43b;&#x435;&#x43d;&#x438;&#x44f; &#x434;&#x43b;&#x44f; </tspan><tspan x="433.148" y="224">&#x436;&#x438;&#x43b;&#x44b;&#x445; &#x438; &#x43a;&#x43e;&#x43c;&#x43c;&#x435;&#x440;&#x447;&#x435;&#x441;&#x43a;&#x438;&#x445; &#x438;&#x43d;&#x442;&#x435;&#x440;&#x44c;&#x435;&#x440;&#x43e;&#x432;.</tspan></text>
<rect y="296" width="282" height="256" rx="16" fill="#F6F6F6"/>
<circle cx="64" cy="360" r="32" fill="white"/>
<path d="M59.6187 362.667H54.672C54.3924 362.667 54.12 362.755 53.8932 362.918C53.6663 363.081 53.4966 363.312 53.408 363.577L50.736 371.577C50.669 371.778 50.6506 371.991 50.6823 372.2C50.7141 372.409 50.795 372.607 50.9184 372.779C51.0419 372.95 51.2043 373.09 51.3924 373.186C51.5804 373.283 51.7887 373.333 52 373.333H76C76.2112 373.333 76.4193 373.283 76.6072 373.186C76.7951 373.09 76.9574 372.95 77.0808 372.779C77.2043 372.608 77.2852 372.41 77.3171 372.201C77.3489 371.992 77.3307 371.779 77.264 371.579L74.5973 363.579C74.5089 363.313 74.339 363.082 74.1119 362.918C73.8848 362.754 73.612 362.666 73.332 362.667H68.3827M72 354.667C72 359.484 66.8413 364.572 64.8093 366.393C64.5769 366.571 64.2925 366.667 64 366.667C63.7075 366.667 63.4231 366.571 63.1907 366.393C61.16 364.572 56 359.484 56 354.667C56 352.545 56.8429 350.51 58.3431 349.01C59.8434 347.509 61.8783 346.667 64 346.667C66.1217 346.667 68.1566 347.509 69.6569 349.01C71.1571 350.51 72 352.545 72 354.667ZM66.6667 354.667C66.6667 356.139 65.4728 357.333 64 357.333C62.5272 357.333 61.3333 356.139 61.3333 354.667C61.3333 353.194 62.5272 352 64 352C65.4728 352 66.6667 353.194 66.6667 354.667Z" stroke="#292524" stroke-width="1.5" stroke-linecap="round" stroke-linejoin="round"/>
<text fill="#292524" style="white-space: pre" xml:space="preserve" font-family="Pragmatica Next VF TEST" font-size="16" letter-spacing="0em"><tspan x="32" y="441.6">&#x41c;&#x44b; &#x43d;&#x430;&#x445;&#x43e;&#x434;&#x438;&#x43c;&#x441;&#x44f; &#x432; &#x41a;&#x430;&#x437;&#x430;&#x43d;&#x438; &#x438; </tspan><tspan x="32" y="465.6">&#x440;&#x430;&#x431;&#x43e;&#x442;&#x430;&#x435;&#x43c; &#x441; &#x434;&#x438;&#x437;&#x430;&#x439;&#x43d;-</tspan><tspan x="32" y="489.6">&#x43f;&#x440;&#x43e;&#x435;&#x43a;&#x442;&#x430;&#x43c;&#x438; &#x43f;&#x43e; &#x432;&#x441;&#x435;&#x439; &#x420;&#x43e;&#x441;&#x441;&#x438;&#x438;.</tspan></text>
<rect x="306" y="296" width="282" height="256" rx="16" fill="#F6F6F6"/>
<circle cx="370" cy="360" r="32" fill="white"/>
<path d="M374 372V365.333C374 364.98 373.86 364.64 373.61 364.39C373.36 364.14 373.02 364 372.667 364H367.333C366.98 364 366.641 364.14 366.391 364.39C366.141 364.64 366 364.98 366 365.333V372M377.699 357.747C377.421 357.48 377.051 357.332 376.666 357.332C376.281 357.332 375.911 357.48 375.633 357.747C375.013 358.338 374.19 358.668 373.333 358.668C372.476 358.668 371.652 358.338 371.032 357.747C370.754 357.481 370.385 357.333 370 357.333C369.616 357.333 369.246 357.481 368.968 357.747C368.348 358.338 367.524 358.668 366.667 358.668C365.81 358.668 364.985 358.338 364.365 357.747C364.087 357.48 363.718 357.332 363.333 357.332C362.948 357.332 362.578 357.48 362.3 357.747C361.701 358.318 360.911 358.646 360.084 358.667C359.256 358.688 358.45 358.401 357.823 357.86C357.196 357.32 356.792 356.566 356.691 355.744C356.589 354.923 356.797 354.093 357.273 353.416L361.125 347.837C361.37 347.477 361.699 347.181 362.084 346.977C362.469 346.773 362.898 346.666 363.333 346.667H376.667C377.101 346.666 377.529 346.772 377.913 346.975C378.297 347.178 378.626 347.472 378.871 347.831L382.731 353.42C383.207 354.097 383.415 354.928 383.313 355.75C383.21 356.572 382.806 357.326 382.178 357.866C381.55 358.406 380.743 358.693 379.915 358.67C379.087 358.648 378.297 358.318 377.699 357.745M359.333 358.6V369.333C359.333 370.04 359.614 370.719 360.114 371.219C360.615 371.719 361.293 372 362 372H378C378.707 372 379.386 371.719 379.886 371.219C380.386 370.719 380.667 370.04 380.667 369.333V358.6" stroke="#292524" stroke-width="1.5" stroke-linecap="round" stroke-linejoin="round"/>
<text fill="#292524" style="white-space: pre" xml:space="preserve" font-family="Pragmatica Next VF TEST" font-size="16" letter-spacing="0em"><tspan x="338" y="441.6">&#x414;&#x432;&#x430; &#x448;&#x43e;&#x443;&#x440;&#x443;&#x43c;&#x430; - &#x43d;&#x430; &#x43f;&#x440;&#x43e;&#x441;&#x43f;&#x435;&#x43a;&#x442;&#x435; </tspan><tspan x="338" y="465.6">&#x423;&#x43d;&#x438;&#x432;&#x435;&#x440;&#x441;&#x438;&#x430;&#x434;&#x44b; &#x438; &#x443;&#x43b;&#x438;&#x446;&#x435; </tspan><tspan x="338" y="489.6">&#x42f;&#x43c;&#x430;&#x448;&#x435;&#x432;&#x430; - &#x43f;&#x43e;&#x437;&#x432;&#x43e;&#x43b;&#x44f;&#x44e;&#x442; </tspan><tspan x="338" y="513.6">&#x443;&#x432;&#x438;&#x434;&#x435;&#x442;&#x44c; &#x440;&#x430;&#x434;&#x438;&#x430;&#x442;&#x43e;&#x440;&#x44b; &#x432;&#x436;&#x438;&#x432;&#x443;&#x44e;.</tspan></text>
<rect x="612" y="296" width="282" height="256" rx="16" fill="#F6F6F6"/>
<circle cx="676" cy="360" r="32" fill="white"/>
<path d="M670.667 352H681.333M681.333 362.667V368M681.333 357.333H681.347M676 357.333H676.013M670.667 357.333H670.68M676 362.667H676.013M670.667 362.667H670.68M676 368H676.013M670.667 368H670.68M668 346.667H684C685.473 346.667 686.667 347.86 686.667 349.333V370.667C686.667 372.139 685.473 373.333 684 373.333H668C666.527 373.333 665.333 372.139 665.333 370.667V349.333C665.333 347.86 666.527 346.667 668 346.667Z" stroke="#292524" stroke-width="1.5" stroke-linecap="round" stroke-linejoin="round"/>
<text fill="#292524" style="white-space: pre" xml:space="preserve" font-family="Pragmatica Next VF TEST" font-size="16" letter-spacing="0em"><tspan x="644" y="441.6">&#x41f;&#x43e;&#x43c;&#x43e;&#x433;&#x430;&#x435;&#x43c; &#x441; &#x440;&#x430;&#x441;&#x447;&#x435;&#x442;&#x43e;&#x43c; </tspan><tspan x="644" y="465.6">&#x442;&#x435;&#x43f;&#x43b;&#x43e;&#x43e;&#x442;&#x434;&#x430;&#x447;&#x438;, &#x438;&#x43d;&#x442;&#x435;&#x433;&#x440;&#x430;&#x446;&#x438;&#x435;&#x439; &#x432; </tspan><tspan x="644" y="489.6">&#x43d;&#x438;&#x448;&#x438; &#x438; &#x434;&#x430;&#x436;&#x435; &#x441;&#x43a;&#x440;&#x44b;&#x442;&#x44b;&#x43c; </tspan><tspan x="644" y="513.6">&#x43c;&#x43e;&#x43d;&#x442;&#x430;&#x436;&#x43e;&#x43c;.</tspan></text>
<rect x="918" y="296" width="282" height="256" rx="16" fill="#F6F6F6"/>
<circle cx="982" cy="360" r="32" fill="white"/>
<path d="M980.667 366.667L983.333 369.334C983.596 369.596 983.908 369.804 984.251 369.947C984.594 370.089 984.962 370.162 985.333 370.162C985.705 370.162 986.073 370.089 986.416 369.947C986.759 369.804 987.071 369.596 987.333 369.334C987.596 369.071 987.804 368.759 987.947 368.416C988.089 368.073 988.162 367.705 988.162 367.334C988.162 366.962 988.089 366.594 987.947 366.251C987.804 365.908 987.596 365.596 987.333 365.334M984.667 362.667L988 366C988.531 366.531 989.25 366.829 990 366.829C990.75 366.829 991.47 366.531 992 366C992.531 365.47 992.829 364.75 992.829 364C992.829 363.25 992.531 362.531 992 362L986.827 356.827C986.077 356.078 985.06 355.657 984 355.657C982.94 355.657 981.923 356.078 981.173 356.827L980 358C979.47 358.531 978.75 358.829 978 358.829C977.25 358.829 976.531 358.531 976 358C975.47 357.47 975.172 356.75 975.172 356C975.172 355.25 975.47 354.531 976 354L979.747 350.254C980.963 349.04 982.549 348.268 984.254 348.057C985.959 347.847 987.686 348.212 989.16 349.094L989.787 349.467C990.354 349.809 991.029 349.928 991.68 349.8L994 349.334M994 348L995.333 362.667H992.667M970 348L968.667 362.667L977.333 371.334C977.864 371.864 978.583 372.162 979.333 372.162C980.084 372.162 980.803 371.864 981.333 371.334C981.864 370.803 982.162 370.084 982.162 369.334C982.162 368.583 981.864 367.864 981.333 367.334M970 349.334H980.667" stroke="#292524" stroke-width="1.5" stroke-linecap="round" stroke-linejoin="round"/>
<text fill="#292524" style="white-space: pre" xml:space="preserve" font-family="Pragmatica Next VF TEST" font-size="16" letter-spacing="0em"><tspan x="950" y="441.6">&#x420;&#x430;&#x431;&#x43e;&#x442;&#x430;&#x435;&#x43c; &#x441; </tspan><tspan x="950" y="465.6">&#x430;&#x440;&#x445;&#x438;&#x442;&#x435;&#x43a;&#x442;&#x443;&#x440;&#x43d;&#x44b;&#x43c;&#x438; &#x431;&#x44e;&#x440;&#x43e; &#x438; </tspan><tspan x="950" y="489.6">&#x447;&#x430;&#x441;&#x442;&#x43d;&#x44b;&#x43c;&#x438; &#x434;&#x438;&#x437;&#x430;&#x439;&#x43d;&#x435;&#x440;&#x430;&#x43c;&#x438; &#x2014; </tspan><tspan x="950" y="513.6">&#x43e;&#x442; &#x44d;&#x441;&#x43a;&#x438;&#x437;&#x430; &#x434;&#x43e; &#x441;&#x434;&#x430;&#x447;&#x438; &#x43e;&#x431;&#x44a;&#x435;&#x43a;&#x442;&#x430;.</tspan></text>
<rect x="418" y="616" width="365" height="56" rx="28" fill="#111111"/>
<text fill="white" style="white-space: pre" xml:space="preserve" font-family="Pragmatica Next VF TEST" font-size="16" letter-spacing="-0.01em"><tspan x="442" y="649.6">&#x417;&#x430;&#x43a;&#x430;&#x437;&#x430;&#x442;&#x44c; &#x43f;&#x43e;&#x434;&#x431;&#x43e;&#x440; &#x440;&#x430;&#x434;&#x438;&#x430;&#x442;&#x43e;&#x440;&#x43e;&#x432; &#x43f;&#x43e;&#x434; &#x43f;&#x440;&#x43e;&#x435;&#x43a;&#x442;</tspan></text>
</svg>
