<svg width="1200" height="512" viewBox="0 0 1200 512" fill="none" xmlns="http://www.w3.org/2000/svg">
<rect width="1200" height="512" rx="16" fill="#DE6D20"/>
<text fill="white" style="white-space: pre" xml:space="preserve" font-family="Pragmatica Next VF TEST" font-size="14" letter-spacing="0em"><tspan x="632" y="78.8997">&#x412;&#x430;&#x448;&#x435; &#x438;&#x43c;&#x44f;</tspan></text>
<rect x="632" y="96" width="244" height="48" rx="8" fill="white" fill-opacity="0.08"/>
<rect x="632.5" y="96.5" width="243" height="47" rx="7.5" stroke="white" stroke-opacity="0.24"/>
<text fill="white" style="white-space: pre" xml:space="preserve" font-family="Pragmatica Next VF TEST" font-size="16" letter-spacing="0em"><tspan x="648" y="125.6">&#x410;&#x43b;&#x44c;&#x431;&#x435;&#x440;&#x442;</tspan></text>
<text fill="white" style="white-space: pre" xml:space="preserve" font-family="Pragmatica Next VF TEST" font-size="14" letter-spacing="0em"><tspan x="892" y="78.8997">&#x41d;&#x43e;&#x43c;&#x435;&#x440; &#x442;&#x435;&#x43b;&#x435;&#x444;&#x43e;&#x43d;&#x430;</tspan></text>
<rect x="892" y="96" width="244" height="48" rx="8" fill="white" fill-opacity="0.08"/>
<rect x="892.5" y="96.5" width="243" height="47" rx="7.5" stroke="white" stroke-opacity="0.24"/>
<text fill="white" style="white-space: pre" xml:space="preserve" font-family="Pragmatica Next VF TEST" font-size="16" letter-spacing="0em"><tspan x="908" y="125.6">8 800 555 35 35</tspan></text>
<text fill="white" style="white-space: pre" xml:space="preserve" font-family="Pragmatica Next VF TEST" font-size="14" letter-spacing="0em"><tspan x="632" y="190.9">&#x420;&#x430;&#x441;&#x441;&#x43a;&#x430;&#x436;&#x438;&#x442;&#x435; &#x43e; &#x432;&#x430;&#x448;&#x435;&#x43c; &#x43f;&#x440;&#x43e;&#x435;&#x43a;&#x442;&#x435;</tspan></text>
<rect x="632" y="208" width="504" height="96" rx="8" fill="white" fill-opacity="0.08"/>
<rect x="632.5" y="208.5" width="503" height="95" rx="7.5" stroke="white" stroke-opacity="0.24"/>
<rect x="632" y="392" width="504" height="56" rx="28" fill="white"/>
<text fill="#DE6D20" style="white-space: pre" xml:space="preserve" font-family="Pragmatica Next VF TEST" font-size="16" letter-spacing="-0.01em"><tspan x="818" y="425.6">&#x41e;&#x431;&#x441;&#x443;&#x434;&#x438;&#x442;&#x44c; &#x43f;&#x440;&#x43e;&#x435;&#x43a;&#x442;</tspan></text>
<rect x="632" y="336" width="24" height="24" rx="4" fill="white" fill-opacity="0.08"/>
<rect x="632.5" y="336.5" width="23" height="23" rx="3.5" stroke="white" stroke-opacity="0.24"/>
<text fill="white" style="white-space: pre" xml:space="preserve" font-family="Pragmatica Next VF TEST" font-size="14" letter-spacing="0em"><tspan x="668" y="352.9">&#x42f; &#x441;&#x43e;&#x433;&#x43b;&#x430;&#x441;&#x435;&#x43d; &#x441; &#x41f;&#x43e;&#x43b;&#x438;&#x442;&#x438;&#x43a;&#x43e;&#x439; &#x43e;&#x431;&#x440;&#x430;&#x431;&#x43e;&#x442;&#x43a;&#x438; &#x43f;&#x435;&#x440;&#x441;&#x43e;&#x43d;&#x430;&#x43b;&#x44c;&#x43d;&#x44b;&#x445; &#x434;&#x430;&#x43d;&#x43d;&#x44b;&#x445;</tspan></text>
<text fill="white" style="white-space: pre" xml:space="preserve" font-family="Pragmatica Next VF TEST" font-size="56" letter-spacing="-0.02em"><tspan x="64" y="118.599">&#x421;&#x432;&#x44f;&#x436;&#x438;&#x442;&#x435;&#x441;&#x44c; &#x441; &#x43d;&#x430;&#x43c;&#x438;</tspan></text>
<text fill="white" style="white-space: pre" xml:space="preserve" font-family="Pragmatica Next VF TEST" font-size="14" letter-spacing="0em"><tspan x="64" y="212.9">&#x422;&#x435;&#x43b;&#x435;&#x444;&#x43e;&#x43d;</tspan></text>
<text fill="white" style="white-space: pre" xml:space="preserve" font-family="Pragmatica Next VF TEST" font-size="24" letter-spacing="0em"><tspan x="64" y="252.399">+7(843) 212-13-23</tspan></text>
<text fill="white" style="white-space: pre" xml:space="preserve" font-family="Pragmatica Next VF TEST" font-size="14" letter-spacing="0em"><tspan x="324" y="212.9">&#x41f;&#x43e;&#x447;&#x442;&#x430;</tspan></text>
<text fill="white" style="white-space: pre" xml:space="preserve" font-family="Pragmatica Next VF TEST" font-size="24" letter-spacing="0em"><tspan x="324" y="252.399">rbk-treid@mail.ru</tspan></text>
<text fill="white" style="white-space: pre" xml:space="preserve" font-family="Pragmatica Next VF TEST" font-size="14" letter-spacing="0em"><tspan x="64" y="308.9">&#x41c;&#x435;&#x441;&#x441;&#x435;&#x43d;&#x434;&#x436;&#x435;&#x440;&#x44b;</tspan></text>
<mask id="path-24-inside-1_267_2009" fill="white">
<path d="M64 322H200.749V367H64V322Z"/>
</mask>
<path d="M200.749 367V366H64V367V368H200.749V367Z" fill="white" fill-opacity="0.32" mask="url(#path-24-inside-1_267_2009)"/>
<path fill-rule="evenodd" clip-rule="evenodd" d="M65.5026 338.781C71.3327 336.224 75.2298 334.572 77.1939 333.761C82.7434 331.454 83.897 331.049 84.6452 331.018C84.8011 331.018 85.1752 331.049 85.4246 331.236C85.6117 331.392 85.674 331.61 85.7052 331.766C85.7364 331.922 85.7676 332.265 85.7364 332.545C85.4246 335.694 84.1464 343.395 83.4605 346.918C83.1799 348.414 82.6187 348.913 82.0887 348.975C80.9352 349.069 80.031 348.196 78.9087 347.479C77.1627 346.325 76.1651 345.608 74.4504 344.486C72.4862 343.177 73.7645 342.46 74.8868 341.306C75.1674 340.994 80.3116 336.349 80.4051 335.912C80.4051 335.85 80.4363 335.663 80.3116 335.569C80.1869 335.476 80.031 335.507 79.9063 335.538C79.7193 335.569 76.9133 337.44 71.4574 341.119C70.6468 341.68 69.9297 341.93 69.275 341.93C68.5579 341.93 67.1861 341.524 66.1573 341.181C64.9102 340.776 63.9125 340.558 64.0061 339.872C64.0684 339.529 64.5673 339.155 65.5026 338.781Z" fill="white"/>
<text fill="white" style="white-space: pre" xml:space="preserve" font-family="Pragmatica Next VF TEST" font-size="24" letter-spacing="0em"><tspan x="97.7493" y="348.399">Telegram</tspan></text>
<mask id="path-28-inside-2_267_2009" fill="white">
<path d="M224.749 322H313.749V367H224.749V322Z"/>
</mask>
<path d="M313.749 367V366H224.749V367V368H313.749V367Z" fill="white" fill-opacity="0.32" mask="url(#path-28-inside-2_267_2009)"/>
<path fill-rule="evenodd" clip-rule="evenodd" d="M239.996 351.35C237.746 351.35 236.7 351.021 234.882 349.707C233.732 351.186 230.092 352.341 229.933 350.364C229.933 348.881 229.604 347.627 229.232 346.258C228.788 344.572 228.285 342.694 228.285 339.973C228.285 333.474 233.617 328.585 239.936 328.585C246.259 328.585 251.214 333.715 251.214 340.033C251.235 346.253 246.216 351.317 239.996 351.35ZM240.089 334.202C237.012 334.043 234.614 336.173 234.083 339.513C233.645 342.278 234.422 345.645 235.085 345.82C235.402 345.897 236.202 345.251 236.7 344.753C237.524 345.322 238.483 345.663 239.481 345.743C242.669 345.897 245.393 343.47 245.608 340.285C245.732 337.094 243.277 334.39 240.089 334.208V334.202Z" fill="white"/>
<text fill="white" style="white-space: pre" xml:space="preserve" font-family="Pragmatica Next VF TEST" font-size="24" letter-spacing="0em"><tspan x="266.749" y="348.399">Max</tspan></text>
</svg>
