<svg width="1200" height="356" viewBox="0 0 1200 356" fill="none" xmlns="http://www.w3.org/2000/svg">
<text fill="#111111" style="white-space: pre" xml:space="preserve" font-family="Pragmatica Next VF TEST" font-size="56" letter-spacing="-0.02em"><tspan x="251.78" y="54.5986">&#x41c;&#x44b; &#x440;&#x430;&#x431;&#x43e;&#x442;&#x430;&#x435;&#x43c; &#xab;&#x43f;&#x43e;&#x434; &#x43a;&#x43b;&#x44e;&#x447;&#xbb;</tspan></text>
<text fill="#111111" style="white-space: pre" xml:space="preserve" font-family="Pragmatica Next VF TEST" font-size="18" letter-spacing="0em"><tspan x="185.543" y="121.8">&#x423; &#x43d;&#x430;&#x441; &#x432;&#x44b; &#x43c;&#x43e;&#x436;&#x435;&#x442;&#x435; &#x43d;&#x435; &#x442;&#x43e;&#x43b;&#x44c;&#x43a;&#x43e; &#x43a;&#x443;&#x43f;&#x438;&#x442;&#x44c; &#x440;&#x430;&#x434;&#x438;&#x430;&#x442;&#x43e;&#x440;, &#x43d;&#x43e; &#x438; &#x441;&#x440;&#x430;&#x437;&#x443; &#x437;&#x430;&#x43a;&#x430;&#x437;&#x430;&#x442;&#x44c; &#x432;&#x441;&#x435; &#x43a;&#x43e;&#x43c;&#x43f;&#x43b;&#x435;&#x43a;&#x442;&#x443;&#x44e;&#x449;&#x438;&#x435; (&#x437;&#x430;&#x43f;&#x43e;&#x440;&#x43d;&#x43e;&#x435; </tspan><tspan x="230.332" y="148.8">&#x43e;&#x431;&#x43e;&#x440;&#x443;&#x434;&#x43e;&#x432;&#x430;&#x43d;&#x438;&#x435;, &#x441;&#x438;&#x444;&#x43e;&#x43d;&#x44b;, &#x432;&#x435;&#x43d;&#x442;&#x438;&#x43b;&#x44f;&#x446;&#x438;&#x43e;&#x43d;&#x43d;&#x44b;&#x435; &#x440;&#x435;&#x448;&#x435;&#x442;&#x43a;&#x438;) &#x438; &#x43f;&#x43e;&#x43b;&#x43e;&#x442;&#x435;&#x43d;&#x446;&#x435;&#x441;&#x443;&#x448;&#x438;&#x442;&#x435;&#x43b;&#x438; &#x434;&#x43b;&#x44f; &#x432;&#x430;&#x43d;&#x43d;&#x43e;&#x439;.</tspan></text>
<circle cx="173.333" cy="252" r="32" fill="#F5F5F4"/>
<path d="M170.333 256V252M175.666 256V252M181 256V252M159.666 246.667V241.333M186.333 244H159.666M186.333 246.667V241.333M165 256V252M162.333 252H183.666C185.139 252 186.333 253.194 186.333 254.667V260C186.333 261.473 185.139 262.667 183.666 262.667H162.333C160.86 262.667 159.666 261.473 159.666 260V254.667C159.666 253.194 160.86 252 162.333 252Z" stroke="#292524" stroke-width="1.5" stroke-linecap="round" stroke-linejoin="round"/>
<text fill="#292524" style="white-space: pre" xml:space="preserve" font-family="Pragmatica Next VF TEST" font-size="16" letter-spacing="0em"><tspan x="47.8958" y="325.6">&#x412;&#x44b;&#x435;&#x437;&#x434; &#x441;&#x43f;&#x435;&#x446;&#x438;&#x430;&#x43b;&#x438;&#x441;&#x442;&#x430; &#x43d;&#x430; &#x437;&#x430;&#x43c;&#x435;&#x440;&#x44b; &#x438; </tspan><tspan x="28.5443" y="349.6">&#x43a;&#x43e;&#x43d;&#x441;&#x443;&#x43b;&#x44c;&#x442;&#x430;&#x446;&#x438;&#x44e; (&#x431;&#x435;&#x441;&#x43f;&#x43b;&#x430;&#x442;&#x43d;&#x43e; &#x43f;&#x43e; &#x41a;&#x430;&#x437;&#x430;&#x43d;&#x438;).</tspan></text>
<circle cx="600" cy="252" r="32" fill="#F5F5F4"/>
<path d="M602.667 260V244C602.667 243.293 602.386 242.615 601.886 242.114C601.386 241.614 600.707 241.333 600 241.333H589.333C588.626 241.333 587.948 241.614 587.448 242.114C586.948 242.615 586.667 243.293 586.667 244V258.667C586.667 259.02 586.807 259.359 587.057 259.61C587.307 259.86 587.646 260 588 260H590.667M590.667 260C590.667 261.473 591.861 262.667 593.333 262.667C594.806 262.667 596 261.473 596 260M590.667 260C590.667 258.527 591.861 257.333 593.333 257.333C594.806 257.333 596 258.527 596 260M604 260H596M604 260C604 261.473 605.194 262.667 606.667 262.667C608.139 262.667 609.333 261.473 609.333 260M604 260C604 258.527 605.194 257.333 606.667 257.333C608.139 257.333 609.333 258.527 609.333 260M609.333 260H612C612.354 260 612.693 259.86 612.943 259.61C613.193 259.359 613.333 259.02 613.333 258.667V253.8C613.333 253.497 613.229 253.204 613.04 252.968L608.4 247.168C608.275 247.012 608.117 246.886 607.937 246.799C607.757 246.712 607.56 246.667 607.36 246.667H602.667" stroke="#292524" stroke-width="1.5" stroke-linecap="round" stroke-linejoin="round"/>
<text fill="#292524" style="white-space: pre" xml:space="preserve" font-family="Pragmatica Next VF TEST" font-size="16" letter-spacing="0em"><tspan x="464.82" y="325.6">&#x414;&#x43e;&#x441;&#x442;&#x430;&#x432;&#x43a;&#x430; &#x432; &#x443;&#x434;&#x43e;&#x431;&#x43d;&#x43e;&#x435; &#x434;&#x43b;&#x44f; &#x432;&#x430;&#x441; &#x432;&#x440;&#x435;&#x43c;&#x44f;.</tspan></text>
<circle cx="1026.67" cy="252" r="32" fill="#F5F5F4"/>
<path d="M1015 260C1014.65 260 1014.31 260.14 1014.06 260.39C1013.81 260.641 1013.67 260.98 1013.67 261.333C1013.67 262.394 1014.09 263.412 1014.84 264.162C1015.59 264.912 1016.61 265.333 1017.67 265.333H1024.33C1024.69 265.333 1025.03 265.193 1025.28 264.943C1025.53 264.693 1025.67 264.354 1025.67 264V261.333C1025.67 260.98 1025.53 260.641 1025.28 260.39C1025.03 260.14 1024.69 260 1024.33 260H1015ZM1015 260L1017.67 249.333M1028.33 249.333H1016.33C1015.63 249.333 1014.95 249.052 1014.45 248.552C1013.95 248.052 1013.67 247.374 1013.67 246.667V241.333C1013.67 240.626 1013.95 239.948 1014.45 239.448C1014.95 238.948 1015.63 238.667 1016.33 238.667H1028.33C1028.69 238.667 1029.03 238.807 1029.28 239.057C1029.53 239.307 1029.67 239.646 1029.67 240V248C1029.67 248.354 1029.53 248.693 1029.28 248.943C1029.03 249.193 1028.69 249.333 1028.33 249.333ZM1028.33 249.333L1027.25 253.656C1027.18 253.945 1027.01 254.201 1026.78 254.384C1026.55 254.567 1026.26 254.667 1025.96 254.667H1021.67M1029.67 241.333H1033.67C1034.02 241.333 1034.36 241.474 1034.61 241.724C1034.86 241.974 1035 242.313 1035 242.667V245.333C1035 245.687 1034.86 246.026 1034.61 246.276C1034.36 246.526 1034.02 246.667 1033.67 246.667H1029.67M1035 244H1040.33M1020.33 260L1023 249.333" stroke="#292524" stroke-width="1.5" stroke-linecap="round" stroke-linejoin="round"/>
<text fill="#292524" style="white-space: pre" xml:space="preserve" font-family="Pragmatica Next VF TEST" font-size="16" letter-spacing="0em"><tspan x="864.823" y="325.6">&#x41f;&#x440;&#x43e;&#x444;&#x435;&#x441;&#x441;&#x438;&#x43e;&#x43d;&#x430;&#x43b;&#x44c;&#x43d;&#x430;&#x44f; &#x443;&#x441;&#x442;&#x430;&#x43d;&#x43e;&#x432;&#x43a;&#x430; &#x43d;&#x430;&#x43f;&#x43e;&#x43b;&#x44c;&#x43d;&#x44b;&#x445;, </tspan><tspan x="871.8" y="349.6">&#x43d;&#x430;&#x441;&#x442;&#x435;&#x43d;&#x43d;&#x44b;&#x445; &#x438;&#x43b;&#x438; &#x432;&#x43d;&#x443;&#x442;&#x440;&#x438;&#x43f;&#x43e;&#x43b;&#x44c;&#x43d;&#x44b;&#x445; &#x43c;&#x43e;&#x434;&#x435;&#x43b;&#x435;&#x439;.</tspan></text>
</svg>
