<svg width="776" height="48" viewBox="0 0 776 48" fill="none" xmlns="http://www.w3.org/2000/svg">
<text fill="white" style="white-space: pre" xml:space="preserve" font-family="Pragmatica Next VF TEST" font-size="14" letter-spacing="0em"><tspan x="0" y="28.8997">&#x41d;&#x430;&#x448;&#x438; &#x443;&#x441;&#x43b;&#x443;&#x433;&#x438;</tspan></text>
<path d="M93.5 21.75L98 26.25L102.5 21.75" stroke="white" stroke-width="1.25" stroke-linecap="round" stroke-linejoin="round"/>
<text fill="white" style="white-space: pre" xml:space="preserve" font-family="Pragmatica Next VF TEST" font-size="14" letter-spacing="0em"><tspan x="139" y="28.8997">&#x41d;&#x430;&#x448;&#x438; &#x440;&#x430;&#x431;&#x43e;&#x442;&#x44b;</tspan></text>
<text fill="white" style="white-space: pre" xml:space="preserve" font-family="Pragmatica Next VF TEST" font-size="14" letter-spacing="0em"><tspan x="262" y="28.8997">&#x41c;&#x430;&#x433;&#x430;&#x437;&#x438;&#x43d;&#x44b;</tspan></text>
<text fill="white" style="white-space: pre" xml:space="preserve" font-family="Pragmatica Next VF TEST" font-size="14" letter-spacing="0em" text-decoration="underline"><tspan x="362" y="28.8997">+7 (843) 212-13-23</tspan></text>
<text fill="white" style="white-space: pre" xml:space="preserve" font-family="Pragmatica Next VF TEST" font-size="14" letter-spacing="0em" text-decoration="underline"><tspan x="516" y="28.8997">+7 (843) 253-38-15</tspan></text>
<rect x="672.5" y="0.5" width="47" height="47" rx="23.5" stroke="#F6F6F6"/>
<path fill-rule="evenodd" clip-rule="evenodd" d="M685.041 23.7973C690.871 21.2408 694.768 19.5885 696.733 18.7779C702.282 16.4708 703.436 16.0655 704.184 16.0343C704.34 16.0343 704.714 16.0655 704.963 16.2525C705.15 16.4084 705.213 16.6267 705.244 16.7825C705.275 16.9384 705.306 17.2814 705.275 17.562C704.963 20.7108 703.685 28.4115 702.999 31.9345C702.719 33.431 702.157 33.9298 701.627 33.9922C700.474 34.0857 699.57 33.2128 698.447 32.4957C696.701 31.3422 695.704 30.6251 693.989 29.5027C692.025 28.1933 693.303 27.4762 694.426 26.3227C694.706 26.0109 699.85 21.3655 699.944 20.9291C699.944 20.8667 699.975 20.6797 699.85 20.5861C699.726 20.4926 699.57 20.5238 699.445 20.5549C699.258 20.5861 696.452 22.4567 690.996 26.1356C690.185 26.6968 689.468 26.9462 688.814 26.9462C688.097 26.9462 686.725 26.5409 685.696 26.198C684.449 25.7927 683.451 25.5744 683.545 24.8885C683.607 24.5456 684.106 24.1715 685.041 23.7973Z" fill="white"/>
<rect x="728.5" y="0.5" width="47" height="47" rx="23.5" stroke="white"/>
<path fill-rule="evenodd" clip-rule="evenodd" d="M752.246 35.3498C749.996 35.3498 748.95 35.0213 747.133 33.7073C745.983 35.1856 742.342 36.3408 742.183 34.3643C742.183 32.8807 741.855 31.6269 741.483 30.2581C741.039 28.5718 740.535 26.6939 740.535 23.9729C740.535 17.4741 745.868 12.585 752.186 12.585C758.51 12.585 763.465 17.715 763.465 24.0331C763.486 30.2535 758.467 35.3167 752.246 35.3498ZM752.339 18.2023C749.262 18.0435 746.864 20.1733 746.333 23.513C745.895 26.2779 746.673 29.6449 747.335 29.8201C747.653 29.8968 748.452 29.2507 748.95 28.7525C749.774 29.3217 750.734 29.6635 751.732 29.7435C754.92 29.8969 757.644 27.4697 757.858 24.285C757.983 21.0935 755.528 18.3904 752.339 18.2078V18.2023Z" fill="white"/>
</svg>
