<svg width="64" height="64" viewBox="0 0 64 64" fill="none" xmlns="http://www.w3.org/2000/svg">
<circle cx="32" cy="32" r="32" fill="white" fill-opacity="0.16"/>
<path d="M22.6666 44H41.3332M31.4159 20.3546C31.4735 20.2501 31.558 20.163 31.6607 20.1023C31.7635 20.0415 31.8806 20.0095 31.9999 20.0095C32.1192 20.0095 32.2364 20.0415 32.3391 20.1023C32.4418 20.163 32.5264 20.2501 32.5839 20.3546L36.5199 27.8266C36.6138 27.9997 36.7448 28.1498 36.9035 28.2661C37.0623 28.3825 37.2448 28.4623 37.438 28.4998C37.6313 28.5373 37.8304 28.5315 38.0212 28.4829C38.2119 28.4343 38.3895 28.344 38.5412 28.2186L44.2439 23.3333C44.3534 23.2443 44.4883 23.1923 44.6292 23.1848C44.7701 23.1773 44.9098 23.2147 45.028 23.2916C45.1463 23.3686 45.2372 23.4811 45.2875 23.6129C45.3377 23.7447 45.3449 23.8891 45.3079 24.0253L41.5292 37.6866C41.4521 37.9662 41.2859 38.213 41.0559 38.3896C40.8259 38.5662 40.5446 38.663 40.2546 38.6653H23.7466C23.4564 38.6633 23.1747 38.5666 22.9444 38.39C22.7141 38.2134 22.5478 37.9664 22.4706 37.6866L18.6932 24.0266C18.6562 23.8905 18.6634 23.7461 18.7137 23.6142C18.764 23.4824 18.8548 23.3699 18.9731 23.293C19.0914 23.216 19.2311 23.1786 19.372 23.1861C19.5129 23.1936 19.6478 23.2456 19.7572 23.3346L25.4586 28.22C25.6103 28.3454 25.7879 28.4356 25.9787 28.4842C26.1694 28.5328 26.3685 28.5386 26.5618 28.5011C26.755 28.4637 26.9376 28.3839 27.0963 28.2675C27.255 28.1511 27.3861 28.001 27.4799 27.828L31.4159 20.3546Z" stroke="white" stroke-width="1.5" stroke-linecap="round" stroke-linejoin="round"/>
</svg>
