<svg width="64" height="64" viewBox="0 0 64 64" fill="none" xmlns="http://www.w3.org/2000/svg">
<circle cx="32" cy="32" r="32" fill="white"/>
<path d="M25.6666 44C27.0811 44 28.4376 43.4381 29.4378 42.4379C30.438 41.4377 30.9999 40.0812 30.9999 38.6667V22.6667C30.9999 21.9594 30.719 21.2811 30.2189 20.781C29.7188 20.281 29.0405 20 28.3333 20H22.9999C22.2927 20 21.6144 20.281 21.1143 20.781C20.6142 21.2811 20.3333 21.9594 20.3333 22.6667V38.6667C20.3333 40.0812 20.8952 41.4377 21.8953 42.4379C22.8955 43.4381 24.2521 44 25.6666 44ZM25.6666 44H41.6666C42.3738 44 43.0521 43.719 43.5522 43.219C44.0523 42.7189 44.3333 42.0406 44.3333 41.3333V36C44.3333 35.2928 44.0523 34.6145 43.5522 34.1144C43.0521 33.6143 42.3738 33.3333 41.6666 33.3333H38.5999M25.6666 38.6667H25.6799M30.9999 26.6667L34.0666 23.6C34.3643 23.3012 34.7182 23.0643 35.1078 22.9027C35.4975 22.7412 35.9152 22.6583 36.337 22.6588C36.7588 22.6593 37.1764 22.7432 37.5656 22.9056C37.9549 23.0681 38.3082 23.3059 38.6053 23.6053L41.1333 26.1333C41.4407 26.4291 41.6859 26.7833 41.8545 27.1752C42.0231 27.5671 42.1116 27.9888 42.1148 28.4154C42.118 28.842 42.0359 29.2649 41.8733 29.6593C41.7107 30.0537 41.4709 30.4116 41.1679 30.712L29.5333 42.4" stroke="#292524" stroke-width="1.5" stroke-linecap="round" stroke-linejoin="round"/>
</svg>
