<svg width="64" height="64" viewBox="0 0 64 64" fill="none" xmlns="http://www.w3.org/2000/svg">
<circle cx="32" cy="32" r="32" fill="white"/>
<path d="M33.6667 25.3333L27.9334 19.6C27.3312 19.0007 26.5162 18.6643 25.6667 18.6643C24.8172 18.6643 24.0022 19.0007 23.4 19.6L19.9334 23.0666C19.3341 23.6688 18.9977 24.4838 18.9977 25.3333C18.9977 26.1828 19.3341 26.9978 19.9334 27.6L25.6667 33.3333M27 24L29.6667 21.3333M40.3334 37.3333L43 34.6666M39 30.6666L44.7334 36.4C45.9867 37.6533 45.9867 39.68 44.7334 40.9333L41.2667 44.4C40.0134 45.6533 37.9867 45.6533 36.7334 44.4L31 38.6666M36.3334 22.6666L41.6667 28M44.5654 25.0826C45.2703 24.3779 45.6664 23.4219 45.6665 22.4251C45.6667 21.4283 45.2708 20.4723 44.566 19.7673C43.8613 19.0624 42.9053 18.6663 41.9085 18.6661C40.9117 18.666 39.9556 19.0619 39.2507 19.7666L21.456 37.5653C21.1464 37.874 20.9175 38.254 20.7894 38.672L19.028 44.4746C18.9936 44.59 18.991 44.7124 19.0205 44.8291C19.05 44.9458 19.1106 45.0523 19.1957 45.1373C19.2809 45.2223 19.3875 45.2827 19.5042 45.3121C19.6209 45.3414 19.7434 45.3386 19.8587 45.304L25.6627 43.544C26.0802 43.417 26.4603 43.1894 26.7694 42.8813L44.5654 25.0826Z" stroke="#292524" stroke-width="1.5" stroke-linecap="round" stroke-linejoin="round"/>
</svg>
