<svg width="384" height="287" viewBox="0 0 384 287" fill="none" xmlns="http://www.w3.org/2000/svg">
<rect width="384" height="287" rx="16" fill="#F6F6F6"/>
<circle cx="64" cy="64" r="32" fill="white"/>
<path d="M61.6664 77.3333H55.6664C54.9592 77.3333 54.2809 77.0524 53.7808 76.5523C53.2807 76.0522 52.9998 75.3739 52.9998 74.6666V53.3333C52.9998 52.6261 53.2807 51.9478 53.7808 51.4477C54.2809 50.9476 54.9592 50.6666 55.6664 50.6666H66.3331M66.3331 50.6666C66.7556 50.6656 67.1742 50.7482 67.5646 50.9098C67.955 51.0714 68.3095 51.3087 68.6078 51.608L73.3918 56.392C73.6911 56.6902 73.9283 57.0447 74.0899 57.4352C74.2515 57.8256 74.3341 58.2441 74.3331 58.6666M66.3331 50.6666V57.3333C66.3331 57.6869 66.4736 58.0261 66.7236 58.2761C66.9737 58.5262 67.3128 58.6666 67.6664 58.6666H74.3331M74.3331 58.6666V66.6666M66.3331 74.6666L68.9998 77.3333L74.3331 72" stroke="#292524" stroke-width="1.5" stroke-linecap="round" stroke-linejoin="round"/>
<text fill="#292524" style="white-space: pre" xml:space="preserve" font-family="Pragmatica Next VF TEST" font-size="16" letter-spacing="0em"><tspan x="32" y="145.6">&#x41f;&#x440;&#x43e;&#x437;&#x440;&#x430;&#x447;&#x43d;&#x43e;&#x441;&#x442;&#x44c; &#x438; &#x431;&#x435;&#x437; &#x441;&#x43a;&#x440;&#x44b;&#x442;&#x44b;&#x445; </tspan><tspan x="32" y="169.6">&#x441;&#x43e;&#x433;&#x43b;&#x430;&#x441;&#x43e;&#x432;&#x430;&#x43d;&#x438;&#x439;</tspan></text>
<text fill="#292524" fill-opacity="0.72" style="white-space: pre" xml:space="preserve" font-family="Pragmatica Next VF TEST" font-size="14" letter-spacing="0em"><tspan x="32" y="207.4">&#x424;&#x438;&#x43a;&#x441;&#x438;&#x440;&#x443;&#x435;&#x43c; &#x441;&#x442;&#x43e;&#x438;&#x43c;&#x43e;&#x441;&#x442;&#x44c; &#x434;&#x43e; &#x441;&#x442;&#x430;&#x440;&#x442;&#x430;, </tspan><tspan x="32" y="228.4">&#x441;&#x43e;&#x433;&#x43b;&#x430;&#x441;&#x43e;&#x432;&#x44b;&#x432;&#x430;&#x435;&#x43c; &#x441; &#x432;&#x430;&#x43c;&#x438;, &#x43d;&#x435; &#x43e;&#x431;&#x449;&#x430;&#x435;&#x43c;&#x441;&#x44f; &#x441; </tspan><tspan x="32" y="249.4">&#x43a;&#x43b;&#x438;&#x435;&#x43d;&#x442;&#x43e;&#x43c; &#x437;&#x430; &#x432;&#x430;&#x448;&#x435;&#x439; &#x441;&#x43f;&#x438;&#x43d;&#x43e;&#x439;.</tspan></text>
</svg>
