<svg width="64" height="64" viewBox="0 0 64 64" fill="none" xmlns="http://www.w3.org/2000/svg">
<circle cx="32" cy="32" r="32" fill="white"/>
<path d="M29.6664 45.3333H23.6664C22.9592 45.3333 22.2809 45.0524 21.7808 44.5523C21.2807 44.0522 20.9998 43.3739 20.9998 42.6666V21.3333C20.9998 20.6261 21.2807 19.9478 21.7808 19.4477C22.2809 18.9476 22.9592 18.6666 23.6664 18.6666H34.3331M34.3331 18.6666C34.7556 18.6656 35.1742 18.7482 35.5646 18.9098C35.955 19.0714 36.3095 19.3087 36.6078 19.608L41.3918 24.392C41.6911 24.6902 41.9283 25.0447 42.0899 25.4352C42.2515 25.8256 42.3341 26.2441 42.3331 26.6666M34.3331 18.6666V25.3333C34.3331 25.6869 34.4736 26.0261 34.7236 26.2761C34.9737 26.5262 35.3128 26.6666 35.6664 26.6666H42.3331M42.3331 26.6666V34.6666M34.3331 42.6666L36.9998 45.3333L42.3331 40" stroke="#292524" stroke-width="1.5" stroke-linecap="round" stroke-linejoin="round"/>
</svg>
