<svg width="774" height="136" viewBox="0 0 774 136" fill="none" xmlns="http://www.w3.org/2000/svg">
<circle cx="173.5" cy="32" r="32" fill="#F5F5F4"/>
<path d="M176.167 39.9999V23.9999C176.167 23.2927 175.886 22.6144 175.386 22.1143C174.886 21.6142 174.207 21.3333 173.5 21.3333H162.833C162.126 21.3333 161.448 21.6142 160.948 22.1143C160.448 22.6144 160.167 23.2927 160.167 23.9999V38.6666C160.167 39.0202 160.307 39.3593 160.557 39.6094C160.807 39.8594 161.146 39.9999 161.5 39.9999H164.167M164.167 39.9999C164.167 41.4727 165.361 42.6666 166.833 42.6666C168.306 42.6666 169.5 41.4727 169.5 39.9999M164.167 39.9999C164.167 38.5272 165.361 37.3333 166.833 37.3333C168.306 37.3333 169.5 38.5272 169.5 39.9999M177.5 39.9999H169.5M177.5 39.9999C177.5 41.4727 178.694 42.6666 180.167 42.6666C181.639 42.6666 182.833 41.4727 182.833 39.9999M177.5 39.9999C177.5 38.5272 178.694 37.3333 180.167 37.3333C181.639 37.3333 182.833 38.5272 182.833 39.9999M182.833 39.9999H185.5C185.854 39.9999 186.193 39.8594 186.443 39.6094C186.693 39.3593 186.833 39.0202 186.833 38.6666V33.7999C186.833 33.4973 186.729 33.2039 186.54 32.9679L181.9 27.1679C181.775 27.0118 181.617 26.8856 181.437 26.7988C181.257 26.7121 181.06 26.6669 180.86 26.6666H176.167" stroke="#292524" stroke-width="1.5" stroke-linecap="round" stroke-linejoin="round"/>
<text fill="#292524" style="white-space: pre" xml:space="preserve" font-family="Pragmatica Next VF TEST" font-size="16" letter-spacing="0em"><tspan x="42.9219" y="105.6">&#x414;&#x43e;&#x441;&#x442;&#x430;&#x432;&#x43a;&#x430; &#x438; &#x443;&#x441;&#x442;&#x430;&#x43d;&#x43e;&#x432;&#x43a;&#x430; &#x440;&#x430;&#x434;&#x438;&#x430;&#x442;&#x43e;&#x440;&#x43e;&#x432;</tspan></text>
<circle cx="600.5" cy="32" r="32" fill="#F5F5F4"/>
<path d="M609 29.3334C609 26.5044 607.876 23.7913 605.876 21.7909C603.875 19.7906 601.162 18.6667 598.333 18.6667C595.504 18.6667 592.791 19.7906 590.791 21.7909C588.79 23.7913 587.667 26.5044 587.667 29.3334C587.667 35.9907 595.052 42.9241 597.532 45.0654C597.763 45.2388 598.044 45.3324 598.333 45.3321M609 45.3334V41.3334M605 45.3334C604.646 45.3334 604.307 45.1929 604.057 44.9429C603.807 44.6928 603.667 44.3537 603.667 44.0001V38.6667C603.667 38.4473 603.721 38.2312 603.824 38.0377C603.928 37.8442 604.077 37.6792 604.26 37.5574L608.26 34.8907C608.479 34.7446 608.737 34.6665 609 34.6665C609.263 34.6665 609.521 34.7446 609.74 34.8907L613.74 37.5574C613.923 37.6792 614.072 37.8442 614.176 38.0377C614.279 38.2312 614.333 38.4473 614.333 38.6667V44.0001C614.333 44.3537 614.193 44.6928 613.943 44.9429C613.693 45.1929 613.354 45.3334 613 45.3334H605ZM602.333 29.3334C602.333 31.5426 600.542 33.3334 598.333 33.3334C596.124 33.3334 594.333 31.5426 594.333 29.3334C594.333 27.1243 596.124 25.3334 598.333 25.3334C600.542 25.3334 602.333 27.1243 602.333 29.3334Z" stroke="#292524" stroke-width="1.5" stroke-linecap="round" stroke-linejoin="round"/>
<text fill="#292524" style="white-space: pre" xml:space="preserve" font-family="Pragmatica Next VF TEST" font-size="16" letter-spacing="0em"><tspan x="434.422" y="105.6">&#x420;&#x430;&#x431;&#x43e;&#x442;&#x430;&#x435;&#x43c; &#x43f;&#x43e; &#x432;&#x441;&#x435;&#x439; &#x420;&#x43e;&#x441;&#x441;&#x438;&#x438; &#x43e;&#x442; &#x41a;&#x430;&#x43b;&#x438;&#x43d;&#x438;&#x43d;&#x433;&#x440;&#x430;&#x434;&#x430; </tspan><tspan x="535.148" y="129.6">&#x434;&#x43e; &#x412;&#x43b;&#x430;&#x434;&#x438;&#x432;&#x43e;&#x441;&#x442;&#x43e;&#x43a;&#x430;</tspan></text>
</svg>
