<svg width="1200" height="136" viewBox="0 0 1200 136" fill="none" xmlns="http://www.w3.org/2000/svg">
<circle cx="173.333" cy="32" r="32" fill="#F5F5F4"/>
<path d="M171.8 45.3334H165C164.293 45.3334 163.614 45.0525 163.114 44.5524C162.614 44.0523 162.333 43.374 162.333 42.6668V21.3334C162.333 20.6262 162.614 19.9479 163.114 19.4478C163.614 18.9477 164.293 18.6668 165 18.6668H175.666M175.666 18.6668C176.089 18.6657 176.508 18.7484 176.898 18.9099C177.288 19.0715 177.643 19.3088 177.941 19.6081L182.726 24.3921C183.026 24.6904 183.263 25.045 183.424 25.4354C183.585 25.8258 183.668 26.2443 183.666 26.6668M175.666 18.6668V25.3334C175.666 25.687 175.807 26.0262 176.057 26.2762C176.307 26.5263 176.646 26.6668 177 26.6668H183.666M183.666 26.6668V31.0001M185 45.3334L181.16 41.4934M182.333 38.6668C182.333 40.8759 180.542 42.6668 178.333 42.6668C176.124 42.6668 174.333 40.8759 174.333 38.6668C174.333 36.4576 176.124 34.6668 178.333 34.6668C180.542 34.6668 182.333 36.4576 182.333 38.6668Z" stroke="#292524" stroke-width="1.5" stroke-linecap="round" stroke-linejoin="round"/>
<text fill="#292524" style="white-space: pre" xml:space="preserve" font-family="Pragmatica Next VF TEST" font-size="16" letter-spacing="0em"><tspan x="47.5521" y="105.6">&#x420;&#x430;&#x431;&#x43e;&#x442;&#x430;&#x435;&#x43c; &#x441; &#x43b;&#x44e;&#x431;&#x44b;&#x43c; &#x422;&#x417; &#x438; &#x431;&#x435;&#x437; &#x43d;&#x435;&#x433;&#x43e;</tspan></text>
<circle cx="600" cy="32" r="32" fill="#F5F5F4"/>
<path d="M603.6 24.4001C603.356 24.6494 603.219 24.9845 603.219 25.3335C603.219 25.6825 603.356 26.0175 603.6 26.2668L605.733 28.4001C605.983 28.6444 606.318 28.7813 606.667 28.7813C607.016 28.7813 607.351 28.6444 607.6 28.4001L611.741 24.2601C612.168 23.8308 612.892 23.9668 613.052 24.5508C613.455 26.016 613.432 27.5655 612.986 29.0182C612.541 30.4709 611.69 31.7667 610.535 32.7538C609.38 33.7409 607.967 34.3786 606.463 34.5922C604.959 34.8058 603.424 34.5866 602.04 33.9601L591.493 44.5068C590.963 45.037 590.244 45.3349 589.493 45.3347C588.743 45.3346 588.024 45.0366 587.494 44.5061C586.964 43.9757 586.666 43.2563 586.666 42.5063C586.666 41.7563 586.964 41.037 587.495 40.5068L598.041 29.9601C597.415 28.5757 597.196 27.0416 597.409 25.5371C597.623 24.0327 598.261 22.6202 599.248 21.4649C600.235 20.3097 601.53 19.4595 602.983 19.0138C604.436 18.568 605.985 18.5453 607.451 18.9481C608.035 19.1081 608.171 19.8308 607.743 20.2601L603.6 24.4001Z" stroke="#292524" stroke-width="1.5" stroke-linecap="round" stroke-linejoin="round"/>
<text fill="#292524" style="white-space: pre" xml:space="preserve" font-family="Pragmatica Next VF TEST" font-size="16" letter-spacing="0em"><tspan x="453.219" y="105.6">&#x41f;&#x440;&#x43e;&#x432;&#x43e;&#x434;&#x438;&#x43c; &#x442;&#x435;&#x445;&#x43d;&#x438;&#x447;&#x435;&#x441;&#x43a;&#x43e;&#x435; &#x43e;&#x431;&#x441;&#x43b;&#x443;&#x436;&#x438;&#x432;&#x430;&#x43d;&#x438;&#x435; </tspan><tspan x="554.617" y="129.6">&#x440;&#x430;&#x434;&#x438;&#x430;&#x442;&#x43e;&#x440;&#x43e;&#x432;</tspan></text>
<circle cx="1026.67" cy="32" r="32" fill="#F5F5F4"/>
<path d="M1029.67 20V25.3333C1029.67 25.687 1029.81 26.0261 1030.06 26.2761C1030.31 26.5262 1030.65 26.6667 1031 26.6667H1036.33M1029.67 20H1020.33C1019.63 20 1018.95 20.281 1018.45 20.781C1017.95 21.2811 1017.67 21.9594 1017.67 22.6667V41.3333C1017.67 42.0406 1017.95 42.7189 1018.45 43.219C1018.95 43.719 1019.63 44 1020.33 44H1033.67C1034.37 44 1035.05 43.719 1035.55 43.219C1036.05 42.7189 1036.33 42.0406 1036.33 41.3333V26.6667M1029.67 20L1036.33 26.6667M1023 36L1025.67 38.6667L1031 33.3333" stroke="#292524" stroke-width="1.5" stroke-linecap="round" stroke-linejoin="round"/>
<text fill="#292524" style="white-space: pre" xml:space="preserve" font-family="Pragmatica Next VF TEST" font-size="16" letter-spacing="0em"><tspan x="920.995" y="105.6">&#x413;&#x430;&#x440;&#x430;&#x43d;&#x442;&#x438;&#x44f; &#x43e;&#x442; &#x43f;&#x440;&#x43e;&#x438;&#x437;&#x432;&#x43e;&#x434;&#x438;&#x442;&#x435;&#x43b;&#x44f;</tspan></text>
</svg>
