<svg width="384" height="287" viewBox="0 0 384 287" fill="none" xmlns="http://www.w3.org/2000/svg">
<rect width="384" height="287" rx="16" fill="#F6F6F6"/>
<circle cx="64" cy="64" r="32" fill="white"/>
<path d="M68 62.6667L66.6666 74.6667M73.3333 62.6667L68 53.3334M50.6666 62.6667H77.3333M52.6666 62.6667L54.8 72.5334C54.9246 73.1448 55.2598 73.6931 55.747 74.0829C56.2343 74.4727 56.8428 74.6793 57.4666 74.6667H70.5333C71.1571 74.6793 71.7657 74.4727 72.2529 74.0829C72.7402 73.6931 73.0753 73.1448 73.2 72.5334L75.4666 62.6667M54 68.6667H74M54.6666 62.6667L60 53.3334M60 62.6667L61.3333 74.6667" stroke="#292524" stroke-width="1.5" stroke-linecap="round" stroke-linejoin="round"/>
<text fill="#292524" style="white-space: pre" xml:space="preserve" font-family="Pragmatica Next VF TEST" font-size="16" letter-spacing="0em"><tspan x="32" y="145.6">&#x41f;&#x43e;&#x43c;&#x43e;&#x433;&#x430;&#x435;&#x43c; &#x43f;&#x440;&#x43e;&#x434;&#x430;&#x442;&#x44c; &#x440;&#x435;&#x448;&#x435;&#x43d;&#x438;&#x435;&#10;</tspan><tspan x="32" y="169.6">&#x43a;&#x43b;&#x438;&#x435;&#x43d;&#x442;&#x443;</tspan></text>
<text fill="#292524" fill-opacity="0.72" style="white-space: pre" xml:space="preserve" font-family="Pragmatica Next VF TEST" font-size="14" letter-spacing="0em"><tspan x="32" y="207.4">&#x420;&#x435;&#x444;&#x435;&#x440;&#x435;&#x43d;&#x441;&#x44b;, &#x441;&#x440;&#x430;&#x432;&#x43d;&#x435;&#x43d;&#x438;&#x435; &#xab;&#x43e;&#x431;&#x44b;&#x447;&#x43d;&#x44b;&#x439; vs &#x434;&#x438;&#x437;&#x430;&#x439;&#x43d;&#xbb;, </tspan><tspan x="32" y="228.4">&#x432;&#x438;&#x437;&#x443;&#x430;&#x43b;&#x438;&#x437;&#x430;&#x446;&#x438;&#x438;, &#x436;&#x438;&#x432;&#x44b;&#x435; &#x43e;&#x431;&#x440;&#x430;&#x437;&#x446;&#x44b; &#x432; &#x448;&#x43e;&#x443;&#x440;&#x443;&#x43c;&#x430;&#x445;.</tspan></text>
</svg>
