<svg width="384" height="287" viewBox="0 0 384 287" fill="none" xmlns="http://www.w3.org/2000/svg">
<rect width="384" height="287" rx="16" fill="#F6F6F6"/>
<circle cx="64" cy="64" r="32" fill="white"/>
<path d="M57.6666 76C59.0811 76 60.4376 75.4381 61.4378 74.4379C62.438 73.4377 62.9999 72.0812 62.9999 70.6667V54.6667C62.9999 53.9594 62.719 53.2811 62.2189 52.781C61.7188 52.281 61.0405 52 60.3333 52H54.9999C54.2927 52 53.6144 52.281 53.1143 52.781C52.6142 53.2811 52.3333 53.9594 52.3333 54.6667V70.6667C52.3333 72.0812 52.8952 73.4377 53.8953 74.4379C54.8955 75.4381 56.2521 76 57.6666 76ZM57.6666 76H73.6666C74.3738 76 75.0521 75.719 75.5522 75.219C76.0523 74.7189 76.3333 74.0406 76.3333 73.3333V68C76.3333 67.2928 76.0523 66.6145 75.5522 66.1144C75.0521 65.6143 74.3738 65.3333 73.6666 65.3333H70.5999M57.6666 70.6667H57.6799M62.9999 58.6667L66.0666 55.6C66.3643 55.3012 66.7182 55.0643 67.1078 54.9027C67.4975 54.7412 67.9152 54.6583 68.337 54.6588C68.7588 54.6593 69.1764 54.7432 69.5656 54.9056C69.9549 55.0681 70.3082 55.3059 70.6053 55.6053L73.1333 58.1333C73.4407 58.4291 73.6859 58.7833 73.8545 59.1752C74.0231 59.5671 74.1116 59.9888 74.1148 60.4154C74.118 60.842 74.0359 61.2649 73.8733 61.6593C73.7107 62.0537 73.4709 62.4116 73.1679 62.712L61.5333 74.4" stroke="#292524" stroke-width="1.5" stroke-linecap="round" stroke-linejoin="round"/>
<text fill="#292524" style="white-space: pre" xml:space="preserve" font-family="Pragmatica Next VF TEST" font-size="16" letter-spacing="0em"><tspan x="32" y="145.6">&#x420;&#x430;&#x431;&#x43e;&#x442;&#x430;&#x435;&#x43c; &#x441; &#x43b;&#x44e;&#x431;&#x44b;&#x43c;&#x438; &#x431;&#x44e;&#x434;&#x436;&#x435;&#x442;&#x430;&#x43c;&#x438; &#x438; </tspan><tspan x="32" y="169.6">&#x441;&#x442;&#x438;&#x43b;&#x44f;&#x43c;&#x438;</tspan></text>
<text fill="#292524" fill-opacity="0.72" style="white-space: pre" xml:space="preserve" font-family="Pragmatica Next VF TEST" font-size="14" letter-spacing="0em"><tspan x="32" y="207.4">&#x41c;&#x438;&#x43d;&#x438;&#x43c;&#x430;&#x43b;&#x438;&#x437;&#x43c;, &#x43a;&#x43b;&#x430;&#x441;&#x441;&#x438;&#x43a;&#x430;, &#x43b;&#x43e;&#x444;&#x442;, &#x441;&#x43a;&#x430;&#x43d;&#x434;&#x438;, &#x445;&#x430;&#x439;-&#x442;&#x435;&#x43a; </tspan><tspan x="32" y="228.4">&#x2014; &#x43f;&#x43e;&#x434;&#x431;&#x435;&#x440;&#x451;&#x43c; &#x43f;&#x43e;&#x434; &#x43a;&#x430;&#x436;&#x434;&#x44b;&#x439; &#x441;&#x442;&#x438;&#x43b;&#x44c;.</tspan></text>
</svg>
