<svg width="384" height="598" viewBox="0 0 384 598" fill="none" xmlns="http://www.w3.org/2000/svg">
<rect width="384" height="598" rx="16" fill="#DE6D20"/>
<circle cx="64" cy="64" r="32" fill="white" fill-opacity="0.16"/>
<path d="M54.6666 76H73.3332M63.4159 52.3546C63.4735 52.2501 63.558 52.163 63.6607 52.1023C63.7635 52.0415 63.8806 52.0095 63.9999 52.0095C64.1192 52.0095 64.2364 52.0415 64.3391 52.1023C64.4418 52.163 64.5264 52.2501 64.5839 52.3546L68.5199 59.8266C68.6138 59.9997 68.7448 60.1498 68.9035 60.2661C69.0623 60.3825 69.2448 60.4623 69.438 60.4998C69.6313 60.5373 69.8304 60.5315 70.0212 60.4829C70.2119 60.4343 70.3895 60.344 70.5412 60.2186L76.2439 55.3333C76.3534 55.2443 76.4883 55.1923 76.6292 55.1848C76.7701 55.1773 76.9098 55.2147 77.028 55.2916C77.1463 55.3686 77.2372 55.4811 77.2875 55.6129C77.3377 55.7447 77.3449 55.8891 77.3079 56.0253L73.5292 69.6866C73.4521 69.9662 73.2859 70.213 73.0559 70.3896C72.8259 70.5662 72.5446 70.663 72.2546 70.6653H55.7466C55.4564 70.6633 55.1747 70.5666 54.9444 70.39C54.7141 70.2134 54.5478 69.9664 54.4706 69.6866L50.6932 56.0266C50.6562 55.8905 50.6634 55.7461 50.7137 55.6142C50.764 55.4824 50.8548 55.3699 50.9731 55.293C51.0914 55.216 51.2311 55.1786 51.372 55.1861C51.5129 55.1936 51.6478 55.2456 51.7572 55.3346L57.4586 60.22C57.6103 60.3454 57.7879 60.4356 57.9787 60.4842C58.1694 60.5328 58.3685 60.5386 58.5618 60.5011C58.755 60.4637 58.9376 60.3839 59.0963 60.2675C59.255 60.1511 59.3861 60.001 59.4799 59.828L63.4159 52.3546Z" stroke="white" stroke-width="1.5" stroke-linecap="round" stroke-linejoin="round"/>
<text fill="white" style="white-space: pre" xml:space="preserve" font-family="Pragmatica Next VF TEST" font-size="32" letter-spacing="-0.02em"><tspan x="32" y="159.199">&#x418;&#x43d;&#x434;&#x438;&#x432;&#x438;&#x434;&#x443;&#x430;&#x43b;&#x44c;&#x43d;&#x44b;&#x435; </tspan><tspan x="32" y="199.199">&#x443;&#x441;&#x43b;&#x43e;&#x432;&#x438;&#x44f; &#x434;&#x43b;&#x44f; </tspan><tspan x="32" y="239.199">&#x434;&#x438;&#x437;&#x430;&#x439;&#x43d;&#x435;&#x440;&#x43e;&#x432;</tspan></text>
<path d="M52 278L41 289L36 284" stroke="white" stroke-width="1.5" stroke-linecap="round" stroke-linejoin="round"/>
<text fill="white" style="white-space: pre" xml:space="preserve" font-family="Pragmatica Next VF TEST" font-size="16" letter-spacing="0em"><tspan x="72" y="289.6">&#x41f;&#x430;&#x440;&#x442;&#x43d;&#x451;&#x440;&#x441;&#x43a;&#x438;&#x439; &#x43f;&#x440;&#x430;&#x439;&#x441;</tspan></text>
<path d="M52 318L41 329L36 324" stroke="white" stroke-width="1.5" stroke-linecap="round" stroke-linejoin="round"/>
<text fill="white" style="white-space: pre" xml:space="preserve" font-family="Pragmatica Next VF TEST" font-size="16" letter-spacing="0em"><tspan x="72" y="329.6">&#x411;&#x43e;&#x43d;&#x443;&#x441;&#x43d;&#x430;&#x44f; &#x43f;&#x440;&#x43e;&#x433;&#x440;&#x430;&#x43c;&#x43c;&#x430;</tspan></text>
<path d="M52 358L41 369L36 364" stroke="white" stroke-width="1.5" stroke-linecap="round" stroke-linejoin="round"/>
<text fill="white" style="white-space: pre" xml:space="preserve" font-family="Pragmatica Next VF TEST" font-size="16" letter-spacing="0em"><tspan x="72" y="369.6">&#x41a;&#x41f; &#x437;&#x430; 1 &#x434;&#x435;&#x43d;&#x44c;</tspan></text>
<path d="M52 398L41 409L36 404" stroke="white" stroke-width="1.5" stroke-linecap="round" stroke-linejoin="round"/>
<text fill="white" style="white-space: pre" xml:space="preserve" font-family="Pragmatica Next VF TEST" font-size="16" letter-spacing="0em"><tspan x="72" y="409.6">&#x417;&#x430;&#x43a;&#x440;&#x44b;&#x442;&#x44b;&#x439; &#x447;&#x430;&#x442;</tspan></text>
</svg>
