<svg width="64" height="64" viewBox="0 0 64 64" fill="none" xmlns="http://www.w3.org/2000/svg">
<circle cx="32" cy="32" r="32" fill="#F5F5F4"/>
<path d="M20.333 40C19.9793 40 19.6402 40.1404 19.3902 40.3905C19.1401 40.6405 18.9996 40.9797 18.9996 41.3333C18.9996 42.3942 19.4211 43.4116 20.1712 44.1617C20.9214 44.9119 21.9388 45.3333 22.9996 45.3333H29.6663C30.0199 45.3333 30.3591 45.1928 30.6091 44.9428C30.8592 44.6927 30.9996 44.3536 30.9996 44V41.3333C30.9996 40.9797 30.8592 40.6405 30.6091 40.3905C30.3591 40.1404 30.0199 40 29.6663 40H20.333ZM20.333 40L22.9996 29.3333M33.6663 29.3333H21.6663C20.9591 29.3333 20.2808 29.0523 19.7807 28.5522C19.2806 28.0521 18.9996 27.3739 18.9996 26.6666V21.3333C18.9996 20.626 19.2806 19.9478 19.7807 19.4477C20.2808 18.9476 20.9591 18.6666 21.6663 18.6666H33.6663C34.0199 18.6666 34.3591 18.8071 34.6091 19.0572C34.8592 19.3072 34.9996 19.6463 34.9996 20V28C34.9996 28.3536 34.8592 28.6927 34.6091 28.9428C34.3591 29.1928 34.0199 29.3333 33.6663 29.3333ZM33.6663 29.3333L32.5863 33.656C32.5143 33.9445 32.3479 34.2008 32.1136 34.3839C31.8792 34.567 31.5904 34.6665 31.293 34.6666H26.9996M34.9996 21.3333H38.9996C39.3533 21.3333 39.6924 21.4738 39.9424 21.7238C40.1925 21.9739 40.333 22.313 40.333 22.6666V25.3333C40.333 25.6869 40.1925 26.0261 39.9424 26.2761C39.6924 26.5261 39.3533 26.6666 38.9996 26.6666H34.9996M40.333 24H45.6663M25.6663 40L28.333 29.3333" stroke="#292524" stroke-width="1.5" stroke-linecap="round" stroke-linejoin="round"/>
</svg>
