<svg width="64" height="64" viewBox="0 0 64 64" fill="none" xmlns="http://www.w3.org/2000/svg">
<circle cx="32" cy="32" r="32" fill="#F5F5F4"/>
<path d="M34.6667 40V24C34.6667 23.2928 34.3857 22.6145 33.8856 22.1144C33.3855 21.6143 32.7073 21.3334 32 21.3334H21.3334C20.6261 21.3334 19.9478 21.6143 19.4477 22.1144C18.9476 22.6145 18.6667 23.2928 18.6667 24V38.6667C18.6667 39.0203 18.8072 39.3595 19.0572 39.6095C19.3073 39.8596 19.6464 40 20 40H22.6667M22.6667 40C22.6667 41.4728 23.8606 42.6667 25.3334 42.6667C26.8061 42.6667 28 41.4728 28 40M22.6667 40C22.6667 38.5273 23.8606 37.3334 25.3334 37.3334C26.8061 37.3334 28 38.5273 28 40M36 40H28M36 40C36 41.4728 37.1939 42.6667 38.6667 42.6667C40.1394 42.6667 41.3334 41.4728 41.3334 40M36 40C36 38.5273 37.1939 37.3334 38.6667 37.3334C40.1394 37.3334 41.3334 38.5273 41.3334 40M41.3334 40H44C44.3536 40 44.6928 39.8596 44.9428 39.6095C45.1929 39.3595 45.3334 39.0203 45.3334 38.6667V33.8C45.3328 33.4975 45.2294 33.2041 45.04 32.968L40.4 27.168C40.2753 27.0119 40.1171 26.8857 39.9371 26.799C39.7571 26.7122 39.5599 26.667 39.36 26.6667H34.6667" stroke="#292524" stroke-width="1.5" stroke-linecap="round" stroke-linejoin="round"/>
</svg>
